<?xml version="1.0" encoding="UTF-8"?>
<svg xmlns="http://www.w3.org/2000/svg" xmlns:xlink="http://www.w3.org/1999/xlink" version="1.1" viewBox="0 0 400 420">
  <defs>
    <style>
      .cls-1 {
        fill: #606063;
        opacity: .3;
      }

      .cls-2 {
        fill: #2f2c2e;
      }

      .cls-3 {
        fill: #2c292a;
      }

      .cls-4 {
        fill: #4e4e50;
        opacity: .7;
      }

      .cls-5 {
        fill: #3e3d3f;
      }

      .cls-6 {
        fill: #414042;
      }

      .cls-7 {
        fill: #231f20;
      }

      .cls-8 {
        fill: url(#linear-gradient);
      }

      .cls-8, .cls-9 {
        opacity: 0;
      }

      .cls-10 {
        fill: #323031;
      }

      .cls-11 {
        fill: #646568;
        opacity: .2;
      }

      .cls-12 {
        fill: url(#linear-gradient-7);
        opacity: .2;
      }

      .cls-13 {
        fill: url(#linear-gradient-9);
        opacity: .2;
      }

      .cls-14 {
        fill: url(#linear-gradient-4);
        opacity: 0;
      }

      .cls-15 {
        fill: url(#linear-gradient-6);
        opacity: .1;
      }

      .cls-16 {
        fill: url(#linear-gradient-5);
        opacity: .1;
      }

      .cls-17 {
        fill: url(#linear-gradient-8);
        opacity: .2;
      }

      .cls-18 {
        fill: url(#linear-gradient-3);
        opacity: 0;
      }

      .cls-19 {
        fill: url(#linear-gradient-2);
        opacity: 0;
      }

      .cls-20 {
        fill: #383638;
      }

      .cls-21 {
        fill: #69696c;
        opacity: .1;
      }

      .cls-22 {
        fill: #292627;
      }

      .cls-23 {
        fill: #3b393b;
      }

      .cls-24 {
        fill: url(#linear-gradient-32);
        opacity: .9;
      }

      .cls-25 {
        fill: url(#linear-gradient-31);
        opacity: .9;
      }

      .cls-26 {
        fill: url(#linear-gradient-30);
        opacity: .8;
      }

      .cls-27 {
        fill: url(#linear-gradient-29);
        opacity: .8;
      }

      .cls-28 {
        fill: url(#linear-gradient-28);
        opacity: .8;
      }

      .cls-29 {
        fill: url(#linear-gradient-27);
        opacity: .8;
      }

      .cls-30 {
        fill: url(#linear-gradient-25);
        opacity: .7;
      }

      .cls-31 {
        fill: url(#linear-gradient-26);
        opacity: .7;
      }

      .cls-32 {
        fill: url(#linear-gradient-12);
        opacity: .3;
      }

      .cls-33 {
        fill: url(#linear-gradient-11);
        opacity: .3;
      }

      .cls-34 {
        fill: url(#linear-gradient-10);
        opacity: .3;
      }

      .cls-35 {
        fill: url(#linear-gradient-23);
        opacity: .6;
      }

      .cls-36 {
        fill: url(#linear-gradient-22);
        opacity: .6;
      }

      .cls-37 {
        fill: url(#linear-gradient-21);
        opacity: .6;
      }

      .cls-38 {
        fill: url(#linear-gradient-20);
        opacity: .6;
      }

      .cls-39 {
        fill: url(#linear-gradient-19);
        opacity: .5;
      }

      .cls-40 {
        fill: url(#linear-gradient-18);
        opacity: .5;
      }

      .cls-41 {
        fill: url(#linear-gradient-17);
        opacity: .5;
      }

      .cls-42 {
        fill: url(#linear-gradient-16);
        opacity: .4;
      }

      .cls-43 {
        fill: url(#linear-gradient-15);
        opacity: .4;
      }

      .cls-44 {
        fill: url(#linear-gradient-14);
        opacity: .4;
      }

      .cls-45 {
        fill: url(#linear-gradient-13);
        opacity: .3;
      }

      .cls-46 {
        fill: url(#linear-gradient-24);
        opacity: .7;
      }

      .cls-47 {
        fill: #535255;
        opacity: .6;
      }

      .cls-48 {
        fill: #353334;
      }

      .cls-49 {
        opacity: .8;
      }

      .cls-50 {
        opacity: .6;
      }

      .cls-51 {
        fill: #5b5c5e;
        opacity: .4;
      }

      .cls-52 {
        fill: #454547;
        opacity: .9;
      }

      .cls-53 {
        fill: #262223;
      }

      .cls-54 {
        fill: #4a494b;
        opacity: .8;
      }

      .cls-55 {
        fill: #57575a;
        opacity: .5;
      }

      .cls-9 {
        fill: #6d6e71;
      }
    </style>
    <linearGradient id="linear-gradient" x1="-4248.4" y1="-1329.9" x2="-4052.6" y2="-956.9" gradientTransform="translate(2396.9 3908.8) rotate(44)" gradientUnits="userSpaceOnUse">
      <stop offset="0" stop-color="#fff"/>
      <stop offset="1" stop-color="#949292"/>
    </linearGradient>
    <linearGradient id="linear-gradient-2" x1="-4264.2" y1="-1318.7" x2="-4033.6" y2="-969.9" gradientTransform="translate(2396.9 3908.8) rotate(44)" gradientUnits="userSpaceOnUse">
      <stop offset="0" stop-color="#fcfbfb"/>
      <stop offset="1" stop-color="#979696"/>
      <stop offset="1" stop-color="#979696"/>
    </linearGradient>
    <linearGradient id="linear-gradient-3" x1="-4281.2" y1="-1302.5" x2="-4020.8" y2="-983.5" gradientTransform="translate(2396.9 3908.8) rotate(44)" gradientUnits="userSpaceOnUse">
      <stop offset="0" stop-color="#f8f8f8"/>
      <stop offset="1" stop-color="#9b9999"/>
      <stop offset="1" stop-color="#9b9999"/>
    </linearGradient>
    <linearGradient id="linear-gradient-4" x1="-4294.9" y1="-1283.9" x2="-4010.5" y2="-999.5" gradientTransform="translate(2396.9 3908.8) rotate(44)" gradientUnits="userSpaceOnUse">
      <stop offset="0" stop-color="#f5f4f4"/>
      <stop offset="1" stop-color="#9e9d9d"/>
      <stop offset="1" stop-color="#9e9d9d"/>
    </linearGradient>
    <linearGradient id="linear-gradient-5" x1="-4304.9" y1="-1263.7" x2="-4003.1" y2="-1017.3" gradientTransform="translate(2396.9 3908.8) rotate(44)" gradientUnits="userSpaceOnUse">
      <stop offset="0" stop-color="#f1f1f1"/>
      <stop offset="1" stop-color="#a2a0a0"/>
      <stop offset="1" stop-color="#a2a0a0"/>
    </linearGradient>
    <linearGradient id="linear-gradient-6" x1="-4311.1" y1="-1242.5" x2="-3998" y2="-1035.6" gradientTransform="translate(2396.9 3908.8) rotate(44)" gradientUnits="userSpaceOnUse">
      <stop offset="0" stop-color="#eeeded"/>
      <stop offset="1" stop-color="#a5a4a4"/>
      <stop offset="1" stop-color="#a5a4a4"/>
    </linearGradient>
    <linearGradient id="linear-gradient-7" x1="-4318" y1="-1223.5" x2="-3987.2" y2="-1049.8" gradientTransform="translate(2396.9 3908.8) rotate(44)" gradientUnits="userSpaceOnUse">
      <stop offset="0" stop-color="#eaeaea"/>
      <stop offset="1" stop-color="#a9a7a7"/>
      <stop offset="1" stop-color="#a9a7a7"/>
    </linearGradient>
    <linearGradient id="linear-gradient-8" x1="-4332.2" y1="-1208.3" x2="-3979" y2="-1066.1" gradientTransform="translate(2396.9 3908.8) rotate(44)" gradientUnits="userSpaceOnUse">
      <stop offset="0" stop-color="#e7e6e6"/>
      <stop offset="1" stop-color="#acabab"/>
      <stop offset="1" stop-color="#acabab"/>
    </linearGradient>
    <linearGradient id="linear-gradient-9" x1="-4343.3" y1="-1191.3" x2="-3973.8" y2="-1084.2" gradientTransform="translate(2396.9 3908.8) rotate(44)" gradientUnits="userSpaceOnUse">
      <stop offset="0" stop-color="#e3e3e3"/>
      <stop offset="1" stop-color="#b0aeae"/>
      <stop offset="1" stop-color="#b0aeae"/>
    </linearGradient>
    <linearGradient id="linear-gradient-10" x1="-4350.7" y1="-1175.4" x2="-3971.3" y2="-1105.7" gradientTransform="translate(2396.9 3908.8) rotate(44)" gradientUnits="userSpaceOnUse">
      <stop offset="0" stop-color="#e0dfdf"/>
      <stop offset="1" stop-color="#b3b2b2"/>
      <stop offset="1" stop-color="#b3b2b2"/>
    </linearGradient>
    <linearGradient id="linear-gradient-11" x1="-4355.2" y1="-1156.9" x2="-3972.7" y2="-1125.9" gradientTransform="translate(2396.9 3908.8) rotate(44)" gradientUnits="userSpaceOnUse">
      <stop offset="0" stop-color="#dcdcdc"/>
      <stop offset="1" stop-color="#b7b5b5"/>
      <stop offset="1" stop-color="#b7b5b5"/>
    </linearGradient>
    <linearGradient id="linear-gradient-12" x1="-4356.1" y1="-1138.3" x2="-3977.5" y2="-1145.8" gradientTransform="translate(2396.9 3908.8) rotate(44)" gradientUnits="userSpaceOnUse">
      <stop offset="0" stop-color="#d9d8d8"/>
      <stop offset="1" stop-color="#bab9b9"/>
      <stop offset="1" stop-color="#bab9b9"/>
    </linearGradient>
    <linearGradient id="linear-gradient-13" x1="-4353.5" y1="-1120.3" x2="-3985.7" y2="-1164.8" gradientTransform="translate(2396.9 3908.8) rotate(44)" gradientUnits="userSpaceOnUse">
      <stop offset="0" stop-color="#d6d5d5"/>
      <stop offset="1" stop-color="#bdbcbc"/>
      <stop offset="1" stop-color="#bdbcbc"/>
    </linearGradient>
    <linearGradient id="linear-gradient-14" x1="-4347.4" y1="-1103.6" x2="-3989.7" y2="-1184" gradientTransform="translate(2396.9 3908.8) rotate(44)" gradientUnits="userSpaceOnUse">
      <stop offset="0" stop-color="#d2d1d1"/>
      <stop offset="1" stop-color="#c1c0c0"/>
      <stop offset="1" stop-color="#c1c0c0"/>
    </linearGradient>
    <linearGradient id="linear-gradient-15" x1="-4338.3" y1="-1088.8" x2="-3988.9" y2="-1205.3" gradientTransform="translate(2396.9 3908.8) rotate(44)" gradientUnits="userSpaceOnUse">
      <stop offset="0" stop-color="#cfcece"/>
      <stop offset="1" stop-color="#c4c3c3"/>
      <stop offset="1" stop-color="#c4c3c3"/>
    </linearGradient>
    <linearGradient id="linear-gradient-16" x1="-4325.1" y1="-1073" x2="-3990.9" y2="-1223.3" gradientTransform="translate(2396.9 3908.8) rotate(44)" gradientUnits="userSpaceOnUse">
      <stop offset="0" stop-color="#cbcaca"/>
      <stop offset="1" stop-color="#c8c7c7"/>
      <stop offset="1" stop-color="#c8c7c7"/>
    </linearGradient>
    <linearGradient id="linear-gradient-17" x1="-4309.1" y1="-1060.3" x2="-3996.3" y2="-1240.7" gradientTransform="translate(2396.9 3908.8) rotate(44)" gradientUnits="userSpaceOnUse">
      <stop offset="0" stop-color="#c8c7c7"/>
      <stop offset="1" stop-color="#cbcaca"/>
      <stop offset="1" stop-color="#cbcaca"/>
    </linearGradient>
    <linearGradient id="linear-gradient-18" x1="-4291.1" y1="-1051.2" x2="-4005" y2="-1257.1" gradientTransform="translate(2396.9 3908.8) rotate(44)" gradientUnits="userSpaceOnUse">
      <stop offset="0" stop-color="#c4c3c3"/>
      <stop offset="1" stop-color="#cfcece"/>
      <stop offset="1" stop-color="#cfcece"/>
    </linearGradient>
    <linearGradient id="linear-gradient-19" x1="-4280.2" y1="-1038.7" x2="-4016.7" y2="-1271.8" gradientTransform="translate(2396.9 3908.8) rotate(44)" gradientUnits="userSpaceOnUse">
      <stop offset="0" stop-color="#c1c0c0"/>
      <stop offset="1" stop-color="#d2d1d1"/>
      <stop offset="1" stop-color="#d2d1d1"/>
    </linearGradient>
    <linearGradient id="linear-gradient-20" x1="-4269.9" y1="-1025.8" x2="-4031.2" y2="-1284.3" gradientTransform="translate(2396.9 3908.8) rotate(44)" gradientUnits="userSpaceOnUse">
      <stop offset="0" stop-color="#bdbcbc"/>
      <stop offset="1" stop-color="#d6d5d5"/>
      <stop offset="1" stop-color="#d6d5d5"/>
    </linearGradient>
    <linearGradient id="linear-gradient-21" x1="-4257.4" y1="-1015.3" x2="-4047.8" y2="-1293.9" gradientTransform="translate(2396.9 3908.8) rotate(44)" gradientUnits="userSpaceOnUse">
      <stop offset="0" stop-color="#bab9b9"/>
      <stop offset="1" stop-color="#d9d8d8"/>
      <stop offset="1" stop-color="#d9d8d8"/>
    </linearGradient>
    <linearGradient id="linear-gradient-22" x1="-4244.4" y1="-1008.5" x2="-4067.2" y2="-1301.1" gradientTransform="translate(2396.9 3908.8) rotate(44)" gradientUnits="userSpaceOnUse">
      <stop offset="0" stop-color="#b7b5b5"/>
      <stop offset="1" stop-color="#dcdcdc"/>
      <stop offset="1" stop-color="#dcdcdc"/>
    </linearGradient>
    <linearGradient id="linear-gradient-23" x1="-4231.7" y1="-1005.2" x2="-4089" y2="-1305.3" gradientTransform="translate(2396.9 3908.8) rotate(44)" gradientUnits="userSpaceOnUse">
      <stop offset="0" stop-color="#b3b2b2"/>
      <stop offset="1" stop-color="#e0dfdf"/>
      <stop offset="1" stop-color="#e0dfdf"/>
    </linearGradient>
    <linearGradient id="linear-gradient-24" x1="-4218.6" y1="-1004.5" x2="-4111.2" y2="-1305.4" gradientTransform="translate(2396.9 3908.8) rotate(44)" gradientUnits="userSpaceOnUse">
      <stop offset="0" stop-color="#b0aeae"/>
      <stop offset="1" stop-color="#e3e3e3"/>
      <stop offset="1" stop-color="#e3e3e3"/>
    </linearGradient>
    <linearGradient id="linear-gradient-25" x1="-4206.7" y1="-1002.4" x2="-4132.4" y2="-1302.7" gradientTransform="translate(2396.9 3908.8) rotate(44)" gradientUnits="userSpaceOnUse">
      <stop offset="0" stop-color="#acabab"/>
      <stop offset="1" stop-color="#e7e6e6"/>
      <stop offset="1" stop-color="#e7e6e6"/>
    </linearGradient>
    <linearGradient id="linear-gradient-26" x1="-4195.2" y1="-996.6" x2="-4150.3" y2="-1311.1" gradientTransform="translate(2396.9 3908.8) rotate(44)" gradientUnits="userSpaceOnUse">
      <stop offset="0" stop-color="#a9a7a7"/>
      <stop offset="1" stop-color="#eaeaea"/>
      <stop offset="1" stop-color="#eaeaea"/>
    </linearGradient>
    <linearGradient id="linear-gradient-27" x1="-4182.6" y1="-993.4" x2="-4169.3" y2="-1316.4" gradientTransform="translate(2396.9 3908.8) rotate(44)" gradientUnits="userSpaceOnUse">
      <stop offset="0" stop-color="#a5a4a4"/>
      <stop offset="1" stop-color="#eeeded"/>
      <stop offset="1" stop-color="#eeeded"/>
    </linearGradient>
    <linearGradient id="linear-gradient-28" x1="-4167.6" y1="-993" x2="-4187" y2="-1318.5" gradientTransform="translate(2396.9 3908.8) rotate(44)" gradientUnits="userSpaceOnUse">
      <stop offset="0" stop-color="#a2a0a0"/>
      <stop offset="1" stop-color="#f1f1f1"/>
      <stop offset="1" stop-color="#f1f1f1"/>
    </linearGradient>
    <linearGradient id="linear-gradient-29" x1="-4147.1" y1="-996.6" x2="-4199.1" y2="-1318.4" gradientTransform="translate(2396.9 3908.8) rotate(44)" gradientUnits="userSpaceOnUse">
      <stop offset="0" stop-color="#9e9d9d"/>
      <stop offset="1" stop-color="#f5f4f4"/>
      <stop offset="1" stop-color="#f5f4f4"/>
    </linearGradient>
    <linearGradient id="linear-gradient-30" x1="-4127.6" y1="-1003.9" x2="-4211.1" y2="-1316.5" gradientTransform="translate(2396.9 3908.8) rotate(44)" gradientUnits="userSpaceOnUse">
      <stop offset="0" stop-color="#9b9999"/>
      <stop offset="1" stop-color="#f8f8f8"/>
      <stop offset="1" stop-color="#f8f8f8"/>
    </linearGradient>
    <linearGradient id="linear-gradient-31" x1="-4107.2" y1="-1008" x2="-4222.5" y2="-1312.8" gradientTransform="translate(2396.9 3908.8) rotate(44)" gradientUnits="userSpaceOnUse">
      <stop offset="0" stop-color="#979696"/>
      <stop offset="1" stop-color="#fcfbfb"/>
      <stop offset="1" stop-color="#fcfbfb"/>
    </linearGradient>
    <linearGradient id="linear-gradient-32" x1="-4088" y1="-1016.1" x2="-4233.2" y2="-1307.5" gradientTransform="translate(2396.9 3908.8) rotate(44)" gradientUnits="userSpaceOnUse">
      <stop offset="0" stop-color="#949292"/>
      <stop offset="1" stop-color="#fff"/>
    </linearGradient>
  </defs>
  <!-- Generator: Adobe Illustrator 28.6.0, SVG Export Plug-In . SVG Version: 1.2.0 Build 709)  -->
  <g>
    <g id="Layer_1">
      <g class="cls-49">
        <g class="cls-50">
          <path class="cls-8" d="M56.2,58c33.7-22.4,52.7,8.9,82.9,2.7,30.2-6.2,61.9-78.6,127.8-56.4,91.4,30.7,50.8,126.1,88.2,140.7,37.4,14.7,50.3,50.8,40.4,80.4-9.9,29.5-39.2-17.3-47.4,10.1-8.3,27.4-22.1,126.6-36.9,146.8-14.8,20.2-37.6,18.7-50.2,1.8-12.6-16.8-50,14.1-79,30.8-29.1,16.6-39.5-10.2-61.1-25.4-21.6-15.2-30.5,14.3-43.2-6.3-12.7-20.6-7.7-87.5-36.4-103.1-28.7-15.6-52.2-5.7-32.9-38.3,19.3-32.5,76.1-67.1,72.8-115-2.5-36.9-56.3-47.8-24.9-68.7Z"/>
          <path class="cls-19" d="M56.7,58c33.4-21.8,52.8,9.5,82.8,3.3,30.1-6.2,61.5-78.3,127.2-56.4,90.5,30.3,50.3,125.7,87.5,140.3,37.2,14.6,50.8,50.4,41.1,79.6-9.7,29.5-39.2-17.2-47.5,10.1-8.2,27.3-22.5,125.1-37.4,145-15.1,20-37.3,17.2-50.2,1-12.8-16.2-49.1,14.9-78,31.5-29,16.6-39-10.5-60.5-25.7-21.5-15.2-30.6,14.1-43.2-6.4-12.6-20.5-7.3-86.2-35.8-101.8-28.6-15.5-51.6-6-32.4-38.4,19.2-32.4,74.5-65.8,71.2-113.5-2.5-36.8-56.3-48.3-24.9-68.7Z"/>
          <path class="cls-18" d="M57.1,58.1c33.2-21.2,52.8,10.2,82.8,4,30-6.2,61.1-78,126.6-56.3,89.6,29.9,49.7,125.2,86.8,139.8,37.1,14.5,51.3,50,41.8,78.8-9.5,29.4-39.3-17-47.5,10.2-8.2,27.2-22.8,123.7-37.8,143.2s-37.1,15.7-50.2.1-48.2,15.7-77,32.2c-28.8,16.5-38.5-10.8-60-26-21.4-15.1-30.6,14-43.2-6.4-12.6-20.5-6.8-85-35.3-100.4-28.5-15.5-51-6.3-31.9-38.6,19.2-32.3,72.9-64.5,69.6-112-2.5-36.6-56.2-48.6-24.8-68.7Z"/>
          <path class="cls-14" d="M57.5,58.2c32.9-20.7,52.9,10.8,82.8,4.7,29.8-6.1,60.8-77.7,126-56.2,88.7,29.4,49.1,124.8,86.1,139.3,36.9,14.5,51.7,49.5,42.6,78.1-9.4,29.3-39.3-16.8-47.5,10.2-8.2,27.1-23.1,122.2-38.3,141.5s-36.9,14.3-50.2-.8-47.3,16.4-76,32.8c-28.7,16.4-38.1-11.1-59.4-26.2-21.3-15.1-30.7,13.9-43.2-6.5-12.5-20.4-6.3-83.7-34.7-99.1-28.4-15.4-50.4-6.6-31.3-38.7,19.1-32.2,71.3-63.2,68.1-110.5-2.5-36.5-56.1-49-24.8-68.7Z"/>
          <path class="cls-16" d="M57.9,58.2c32.7-20.1,53,11.5,82.7,5.4,29.7-6.1,60.4-77.5,125.4-56.1,87.8,29,48.6,124.4,85.3,138.9,36.8,14.4,52.2,49.1,43.3,77.3s-39.4-16.7-47.5,10.3c-8.1,27-23.4,120.7-38.8,139.7s-36.7,12.8-50.2-1.6c-13.4-14.3-46.4,17.2-75,33.5-28.6,16.4-37.6-11.5-58.8-26.5-21.2-15-30.7,13.8-43.2-6.5-12.5-20.3-5.9-82.4-34.1-97.8-28.2-15.3-49.8-6.9-30.8-38.9,19-32,69.7-61.9,66.5-109-2.5-36.3-56-49.4-24.7-68.7Z"/>
          <path class="cls-15" d="M58.3,58.3c32.4-19.5,53.1,12.1,82.7,6,29.6-6.1,60-77.2,124.8-56,86.9,28.6,48,124,84.6,138.4,36.6,14.4,52.7,48.6,44,76.6s-39.5-16.5-47.6,10.4c-8.1,26.9-23.7,119.2-39.2,137.9-16.1,19.4-36.4,11.3-50.1-2.5-13.6-13.7-45.5,17.9-74,34.2-28.5,16.3-37.1-11.8-58.3-26.7-21.2-14.9-30.8,13.6-43.2-6.6-12.4-20.2-5.4-81.1-33.6-96.4-28.1-15.3-49.3-7.1-30.3-39.1,18.9-31.9,68.1-60.6,64.9-107.5-2.5-36.2-55.9-49.9-24.7-68.7Z"/>
          <path class="cls-12" d="M58.7,58.4c32.1-19,53.2,12.8,82.7,6.7,29.5-6.1,59.6-76.9,124.1-55.9,86,28.1,47.4,123.6,83.9,137.9,36.5,14.3,53.1,48.2,44.7,75.8-8.9,29-39.5-16.3-47.6,10.4-8.1,26.8-24,117.7-39.7,136.2-16.3,19.3-36.2,9.9-50.1-3.4s-44.6,18.7-73,34.9c-28.4,16.2-36.7-12.1-57.7-27-21.1-14.9-30.9,13.5-43.2-6.6-12.4-20.1-5-79.9-33-95.1-28-15.2-48.7-7.4-29.8-39.2,18.9-31.8,66.6-59.3,63.3-106-2.5-36-55.9-50.3-24.6-68.7Z"/>
          <path class="cls-17" d="M59.1,58.4c31.9-18.4,53.3,13.4,82.6,7.4,29.4-6,59.2-76.6,123.5-55.8,85.1,27.7,46.9,123.2,83.2,137.5,36.3,14.3,53.6,47.8,45.4,75-8.7,28.9-39.6-16.2-47.6,10.5-8,26.6-24.4,116.2-40.1,134.4-16.6,19.1-36,8.4-50.1-4.2s-43.7,19.5-72,35.6c-28.3,16.2-36.2-12.4-57.2-27.2-21-14.8-30.9,13.4-43.2-6.7-12.3-20-4.5-78.6-32.4-93.8-27.9-15.2-48.1-7.7-29.3-39.4,18.8-31.7,65-58,61.8-104.5-2.5-35.9-55.8-50.7-24.6-68.7Z"/>
          <path class="cls-13" d="M59.5,58.5c31.6-17.8,53.3,14.1,82.6,8,29.3-6,58.9-76.3,122.9-55.8,84.2,27.3,46.3,122.8,82.5,137,36.2,14.2,54.1,47.3,46.2,74.3-8.5,28.9-39.6-16-47.6,10.6-8,26.5-24.7,114.7-40.6,132.6-16.9,19-35.7,6.9-50.1-5.1s-42.8,20.2-71,36.3c-28.2,16.1-35.7-12.7-56.6-27.5-20.9-14.8-31,13.2-43.2-6.7-12.3-20-4.1-77.3-31.8-92.5-27.8-15.1-47.5-8-28.8-39.5,18.7-31.5,63.4-56.7,60.2-103-2.5-35.7-55.7-51.1-24.5-68.7Z"/>
          <path class="cls-34" d="M59.9,58.6c31.3-17.3,53.4,14.7,82.6,8.7,29.1-6,58.5-76.1,122.3-55.7,83.3,26.8,45.7,122.4,81.8,136.5,36,14.1,54.6,46.9,46.9,73.5-8.3,28.8-39.7-15.8-47.7,10.6-8,26.4-25,113.2-41.1,130.8s-35.5,5.5-50.1-6c-14.4-11.2-41.9,21-69.9,37-28,16-35.2-13-56.1-27.7-20.8-14.7-31,13.1-43.3-6.8-12.2-19.9-3.6-76.1-31.3-91.1-27.7-15-46.9-8.3-28.3-39.7,18.6-31.4,61.8-55.4,58.6-101.5-2.5-35.6-55.7-51.5-24.5-68.7Z"/>
          <path class="cls-33" d="M60.3,58.6c31.1-16.7,53.5,15.3,82.5,9.4,29-6,58.1-75.8,121.7-55.6,82.4,26.4,45.2,122,81.1,136.1,35.9,14.1,55,46.4,47.6,72.7-8.1,28.7-39.7-15.6-47.7,10.7-7.9,26.3-25.4,111.7-41.5,129.1-17.4,18.6-35.2,4-50.1-6.8-14.6-10.6-41,21.7-68.9,37.7-27.9,16-34.8-13.3-55.5-28-20.7-14.6-31.1,13-43.3-6.8-12.2-19.8-3.1-74.8-30.7-89.8-27.6-15-46.3-8.6-27.8-39.9,18.6-31.3,60.2-54.1,57-100-2.4-35.5-55.6-51.9-24.5-68.7Z"/>
          <path class="cls-32" d="M60.7,58.7c30.8-16.2,53.6,16,82.5,10,28.9-6,57.7-75.5,121.1-55.5,81.5,26,44.6,121.6,80.3,135.6,35.8,14,55.5,46,48.3,72-8,28.6-39.8-15.5-47.7,10.7-7.9,26.2-25.7,110.3-42,127.3s-35,2.5-50.1-7.7c-14.8-10-40.1,22.5-67.9,38.4-27.8,15.9-34.3-13.7-54.9-28.2-20.7-14.6-31.1,12.8-43.3-6.9-12.1-19.7-2.7-73.5-30.1-88.5-27.5-14.9-45.7-8.9-27.2-40,18.5-31.1,58.6-52.8,55.4-98.6-2.4-35.3-55.6-52.3-24.4-68.7Z"/>
          <path class="cls-45" d="M61.1,58.8c30.5-15.6,53.7,16.6,82.5,10.7,28.8-5.9,57.3-75.2,120.5-55.4,80.6,25.5,44,121.2,79.6,135.1,35.6,14,56,45.6,49,71.2-7.8,28.5-39.9-15.3-47.7,10.8-7.9,26.1-26,108.8-42.4,125.5-17.9,18.3-34.8,1.1-50.1-8.6-14.9-9.4-39.2,23.2-66.9,39.1-27.7,15.8-33.8-14-54.4-28.5-20.6-14.5-31.2,12.7-43.3-6.9-12.1-19.6-2.2-72.3-29.6-87.1-27.3-14.9-45.1-9.2-26.7-40.2,18.4-31,57-51.5,53.9-97.1-2.4-35.2-55.5-52.7-24.4-68.7Z"/>
          <path class="cls-44" d="M61.5,58.8c30.2-15.1,53.8,17.3,82.4,11.4,28.7-5.9,57-74.9,119.9-55.3,79.7,25.1,43.5,120.8,78.9,134.7,35.5,13.9,56.5,45.1,49.8,70.4-7.6,28.5-39.9-15.1-47.8,10.9-7.8,26-26.4,107.3-42.9,123.8-18.2,18.2-34.5-.4-50.1-9.4s-38.3,24-65.9,39.8c-27.6,15.8-33.3-14.3-53.8-28.8-20.5-14.5-31.2,12.6-43.3-7-12-19.6-1.8-71-29-85.8-27.2-14.8-44.6-9.4-26.2-40.3,18.3-30.9,55.4-50.2,52.3-95.6-2.4-35-55.4-53.2-24.3-68.7Z"/>
          <path class="cls-43" d="M61.9,58.9c29.9-14.5,53.8,17.9,82.4,12.1,28.5-5.9,56.6-74.6,119.3-55.3,78.8,24.7,42.9,120.4,78.2,134.2,35.3,13.9,57,44.7,50.5,69.7s-40-15-47.8,10.9c-7.8,25.9-26.7,105.8-43.3,122-18.5,18-34.3-1.9-50.1-10.3-15.3-8.1-37.4,24.8-64.9,40.5-27.5,15.7-32.9-14.6-53.3-29-20.4-14.4-31.3,12.5-43.3-7-12-19.5-1.3-69.7-28.4-84.5-27.1-14.7-44-9.7-25.7-40.5,18.3-30.8,53.8-48.9,50.7-94.1-2.4-34.9-55.4-53.6-24.3-68.6Z"/>
          <path class="cls-42" d="M62.3,59c29.7-14,53.9,18.6,82.4,12.7,28.4-5.9,56.2-74.4,118.7-55.2,77.9,24.2,42.3,120,77.5,133.8,35.2,13.8,57.5,44.3,51.2,68.9-7.2,28.3-40-14.8-47.8,11-7.8,25.8-27,104.3-43.8,120.2-18.8,17.9-34-3.3-50.1-11.2s-36.5,25.5-63.9,41.2c-27.4,15.6-32.4-14.9-52.7-29.3-20.3-14.4-31.3,12.3-43.3-7.1-11.9-19.4-.9-68.5-27.9-83.2-27-14.7-43.4-10-25.2-40.7,18.2-30.6,52.2-47.6,49.1-92.6-2.4-34.7-55.3-54-24.2-68.6Z"/>
          <path class="cls-41" d="M62.7,59c29.4-13.4,54,19.2,82.3,13.4,28.3-5.8,55.8-74.1,118.1-55.1,77,23.8,41.7,119.5,76.8,133.3,35,13.7,58,43.8,51.9,68.1s-40.1-14.6-47.8,11c-7.7,25.7-27.4,102.8-44.3,118.4-19,17.7-33.8-4.8-50.1-12-15.7-6.9-35.6,26.3-62.9,41.8-27.2,15.6-31.9-15.2-52.2-29.5-20.2-14.3-31.4,12.2-43.3-7.1-11.9-19.3-.4-67.2-27.3-81.8-26.9-14.6-42.8-10.3-24.7-40.8,18.1-30.5,50.7-46.3,47.6-91.1-2.4-34.6-55.3-54.4-24.2-68.6Z"/>
          <path class="cls-40" d="M63.1,59.1c29.1-12.9,54.1,19.9,82.3,14.1,28.2-5.8,55.4-73.8,117.5-55,76.1,23.4,41.2,119.1,76.1,132.8,34.9,13.7,58.5,43.4,52.6,67.4-6.8,28.1-40.1-14.5-47.9,11.1-7.7,25.6-27.7,101.3-44.7,116.7-19.3,17.5-33.5-6.3-50.1-12.9s-34.7,27-61.9,42.5c-27.1,15.5-31.5-15.5-51.6-29.8-20.1-14.2-31.5,12.1-43.3-7.2-11.8-19.2,0-65.9-26.7-80.5-26.8-14.6-42.2-10.6-24.2-41,18-30.4,49.1-45,46-89.6-2.4-34.4-55.2-54.9-24.2-68.6Z"/>
          <path class="cls-39" d="M63.5,59.2c28.8-12.3,54.2,20.5,82.3,14.7,28.1-5.8,55.1-73.5,116.9-54.9,75.2,22.9,40.6,118.7,75.3,132.4,34.7,13.6,59,43,53.4,66.6-6.6,28.1-40.2-14.3-47.9,11.2-7.7,25.5-28.1,99.7-45.2,114.9s-33.3-7.8-50.1-13.8-33.8,27.8-60.9,43.2c-27,15.4-31-15.9-51-30-20.1-14.2-31.5,11.9-43.3-7.2-11.8-19.2.5-64.7-26.2-79.2-26.7-14.5-41.6-10.9-23.7-41.1,18-30.3,47.5-43.7,44.4-88.1-2.4-34.3-55.2-55.3-24.1-68.6Z"/>
          <path class="cls-38" d="M64,59.2c28.5-11.8,54.3,21.2,82.2,15.4,28-5.8,54.7-73.2,116.3-54.8,74.3,22.5,40,118.3,74.6,131.9,34.6,13.6,59.4,42.5,54.1,65.8s-40.3-14.1-47.9,11.2c-7.6,25.4-28.4,98.2-45.6,113.1s-33-9.3-50.1-14.6c-16.2-5.1-32.9,28.5-59.8,43.9-26.9,15.4-30.5-16.2-50.5-30.3-20-14.1-31.6,11.8-43.3-7.3-11.7-19.1,1-63.4-25.6-77.8-26.6-14.4-41-11.2-23.2-41.3,17.9-30.1,45.9-42.4,42.8-86.6-2.4-34.1-55.1-55.7-24.1-68.6Z"/>
          <path class="cls-37" d="M64.4,59.3c28.2-11.3,54.4,21.8,82.2,16.1,27.8-5.7,54.3-73,115.7-54.8,73.4,22,39.5,117.9,73.9,131.4,34.4,13.5,59.9,42.1,54.8,65.1s-40.3-14-47.9,11.3c-7.6,25.2-28.8,96.7-46.1,111.4-20.2,17-32.8-10.7-50.1-15.5-16.4-4.5-32,29.3-58.8,44.6-26.8,15.3-30-16.5-49.9-30.5-19.9-14.1-31.6,11.7-43.3-7.3-11.7-19,1.4-62.1-25-76.5-26.4-14.4-40.4-11.5-22.6-41.5,17.8-30,44.3-41.1,41.2-85.1-2.3-34-55.1-56.2-24-68.6Z"/>
          <path class="cls-36" d="M64.8,59.4c27.9-10.8,54.4,22.4,82.2,16.7,27.7-5.7,53.9-72.7,115.1-54.7,72.5,21.6,38.9,117.5,73.2,131,34.3,13.4,60.4,41.7,55.5,64.3-6,27.8-40.4-13.8-47.9,11.4-7.6,25.1-29.1,95.2-46.5,109.6s-32.5-12.2-50.1-16.4-31.2,30.1-57.8,45.3c-26.7,15.2-29.6-16.8-49.4-30.8-19.8-14-31.7,11.5-43.3-7.4-11.6-18.9,1.9-60.9-24.5-75.2-26.3-14.3-39.8-11.8-22.1-41.6,17.7-29.9,42.7-39.8,39.7-83.6-2.3-33.9-55-56.6-24-68.6Z"/>
          <path class="cls-35" d="M65.2,59.4c27.6-10.2,54.5,23.1,82.1,17.4,27.6-5.7,53.5-72.4,114.5-54.6,71.6,21.2,38.3,117.1,72.5,130.5,34.1,13.4,60.9,41.2,56.2,63.5-5.8,27.8-40.4-13.6-48,11.4-7.5,25-29.5,93.7-47,107.8-20.7,16.7-32.3-13.7-50.1-17.2-16.7-3.3-30.3,30.8-56.8,46-26.6,15.2-29.1-17.1-48.8-31-19.7-13.9-31.7,11.4-43.3-7.4-11.6-18.8,2.3-59.6-23.9-73.9-26.2-14.2-39.3-12-21.6-41.8,17.6-29.7,41.1-38.4,38.1-82.1-2.3-33.7-55-57.1-23.9-68.6Z"/>
          <path class="cls-46" d="M65.6,59.5c27.3-9.7,54.6,23.7,82.1,18.1,27.5-5.7,53.2-72.1,113.9-54.5,70.7,20.7,37.8,116.7,71.8,130,34,13.3,61.4,40.8,57,62.8-5.6,27.7-40.5-13.4-48,11.5-7.5,24.9-29.8,92.2-47.5,106s-32-15.2-50.1-18.1c-16.9-2.7-29.4,31.6-55.8,46.7-26.4,15.1-28.6-17.4-48.3-31.3-19.6-13.9-31.8,11.3-43.3-7.5-11.5-18.8,2.8-58.3-23.3-72.5-26.1-14.2-38.7-12.3-21.1-41.9,17.6-29.6,39.5-37.1,36.5-80.6-2.3-33.6-55-57.5-23.9-68.6Z"/>
          <path class="cls-30" d="M66,59.6c27-9.2,54.7,24.4,82,18.8,27.4-5.6,52.8-71.8,113.3-54.4,69.8,20.3,37.2,116.3,71,129.6,33.8,13.3,61.9,40.4,57.7,62-5.4,27.6-40.5-13.3-48,11.5-7.5,24.8-30.2,90.7-47.9,104.3s-31.8-16.7-50.1-19c-17.1-2.1-28.5,32.3-54.8,47.4-26.3,15.1-28.1-17.7-47.7-31.6-19.6-13.8-31.8,11.1-43.3-7.5-11.5-18.7,3.2-57.1-22.7-71.2-26-14.1-38.1-12.6-20.6-42.1,17.5-29.5,37.9-35.8,34.9-79.2-2.3-33.4-54.9-58-23.8-68.6Z"/>
          <path class="cls-31" d="M66.4,59.6c26.7-8.7,54.8,25,82,19.4,27.2-5.6,52.4-71.5,112.7-54.3,68.9,19.9,36.6,115.9,70.3,129.1,33.7,13.2,62.5,39.9,58.4,61.2-5.2,27.5-40.6-13.1-48,11.6-7.5,24.7-30.5,89.2-48.4,102.5-21.6,16.1-31.5-18.2-50-19.8-17.3-1.5-27.6,33.1-53.8,48.1-26.2,15-27.7-18.1-47.1-31.8-19.5-13.8-31.9,11-43.3-7.6-11.4-18.6,3.7-55.8-22.2-69.9-25.9-14.1-37.5-12.9-20.1-42.3,17.4-29.4,36.3-34.5,33.4-77.7-2.3-33.3-54.9-58.5-23.8-68.6Z"/>
          <path class="cls-29" d="M66.8,59.7c26.4-8.2,54.9,25.7,82,20.1,27.1-5.6,52-71.3,112-54.3,68,19.4,36.1,115.5,69.6,128.6,33.6,13.2,63,39.5,59.1,60.5-5,27.5-40.7-12.9-48.1,11.7-7.4,24.6-30.9,87.6-48.8,100.7s-31.3-19.7-50-20.7c-17.4-.9-26.7,33.9-52.8,48.8-26.1,14.9-27.2-18.4-46.6-32.1-19.4-13.7-31.9,10.9-43.3-7.6-11.4-18.5,4.2-54.5-21.6-68.5-25.8-14-36.9-13.2-19.6-42.4,17.3-29.2,34.8-33.2,31.8-76.2-2.3-33.1-54.8-58.9-23.8-68.6Z"/>
          <path class="cls-28" d="M67.2,59.7c26.1-7.7,54.9,26.3,81.9,20.8,27-5.6,51.6-71,111.4-54.2,67.1,19,35.5,115.1,68.9,128.2,33.4,13.1,63.5,39.1,59.8,59.7-4.8,27.4-40.7-12.8-48.1,11.7-7.4,24.5-31.2,86.1-49.3,98.9-22.2,15.7-31-21.2-50-21.6-17.6-.3-25.8,34.6-51.8,49.5-26,14.9-26.7-18.7-46-32.3-19.3-13.6-32,10.8-43.3-7.7-11.3-18.4,4.6-53.3-21-67.2-25.7-13.9-36.3-13.5-19.1-42.6,17.3-29.1,33.2-31.9,30.2-74.7-2.3-33-54.8-59.4-23.7-68.6Z"/>
          <path class="cls-27" d="M67.6,59.8c25.9-7.2,55,27,81.9,21.4,26.9-5.5,51.2-70.7,110.8-54.1,66.2,18.6,34.9,114.7,68.2,127.7,33.3,13,64,38.6,60.6,59-4.6,27.3-40.8-12.6-48.1,11.8-7.4,24.4-31.6,84.6-49.8,97.2s-30.8-22.7-50-22.4-24.9,35.4-50.8,50.2c-25.9,14.8-26.3-19-45.5-32.6-19.2-13.6-32,10.6-43.3-7.7-11.3-18.3,5.1-52-20.5-65.9-25.5-13.9-35.7-13.8-18.5-42.7,17.2-29,31.6-30.6,28.6-73.2-2.3-32.8-54.8-59.9-23.7-68.6Z"/>
          <path class="cls-26" d="M68,59.9c25.6-6.7,55.1,27.6,81.9,22.1,26.8-5.5,50.9-70.4,110.2-54,65.3,18.1,34.4,114.3,67.5,127.2,33.1,13,64.5,38.2,61.3,58.2-4.4,27.2-40.8-12.4-48.1,11.8-7.3,24.3-31.9,83.1-50.2,95.4s-30.5-24.2-50-23.3-24,36.1-49.8,50.9c-25.8,14.7-25.8-19.3-44.9-32.8-19.1-13.5-32.1,10.5-43.3-7.8-11.2-18.3,5.5-50.7-19.9-64.6-25.4-13.8-35.1-14.1-18-42.9,17.1-28.8,30-29.3,27.1-71.7-2.3-32.7-54.7-60.4-23.6-68.6Z"/>
          <path class="cls-25" d="M68.4,59.9c25.3-6.2,55.2,28.3,81.8,22.8,26.6-5.5,50.5-70.1,109.6-53.9,64.4,17.7,33.8,113.8,66.8,126.8,33,12.9,65,37.8,62,57.4-4.1,27.2-40.9-12.3-48.2,11.9-7.3,24.2-32.3,81.5-50.7,93.6-23.1,15.1-30.3-25.7-50-24.2-18.2,1.4-23.1,36.9-48.7,51.5-25.6,14.7-25.3-19.6-44.4-33.1-19-13.5-32.2,10.4-43.3-7.8-11.2-18.2,6-49.5-19.3-63.2-25.3-13.8-34.6-14.3-17.5-43.1,17-28.7,28.4-28,25.5-70.2-2.2-32.6-54.7-60.9-23.6-68.6Z"/>
          <path class="cls-24" d="M68.8,60c25-5.8,55.3,28.9,81.8,23.4,26.5-5.5,50.1-69.9,109-53.8,63.5,17.3,33.2,113.4,66,126.3,32.8,12.9,65.5,37.3,62.7,56.7-3.9,27.1-40.9-12.1-48.2,12-7.3,24.1-32.6,80-51.1,91.9-23.4,15-30-27.2-50-25-18.4,2-22.2,37.6-47.7,52.2-25.5,14.6-24.8-19.9-43.8-33.3-19-13.4-32.2,10.2-43.3-7.9-11.1-18.1,6.4-48.2-18.8-61.9-25.2-13.7-34-14.6-17-43.2,17-28.6,26.8-26.7,23.9-68.7-2.2-32.4-54.7-61.4-23.5-68.6Z"/>
        </g>
        <g>
          <path class="cls-9" d="M228.3,90.5c-5,5-11.1,7.6-16.6,8.2s-10.5-1-13.2-4.4c-2.7-3.4-3.2-6.7-1.3-10.8s6.1-8.9,12.7-15.2c5.1-4.9,10.7-9,15.7-11.1s9.4-2.1,12.1,1.3c2.7,3.4,3,8.8,1.2,14.6s-5.4,12.2-10.7,17.4Z"/>
          <path class="cls-21" d="M210.3,68.6c5.1-4.9,10.5-8.9,15.3-10.9,1.1-.5,2.2-.8,3.2-1.1,3.6-.8,6.6-.2,8.6,2.4s2.7,8.5,1,14.2c-1.7,5.7-5.3,11.8-10.4,16.8-4.9,4.8-10.8,7.4-16.1,8s-10.1-.9-12.8-4.1c-2.7-3.3-3.1-6.5-1.2-10.5,1.9-4,6.1-8.8,12.5-14.8Z"/>
          <path class="cls-11" d="M210.7,69c5.1-4.9,10.4-8.8,15-10.7,1.1-.5,2.1-.8,3.1-1,3.6-.9,6.5-.1,8.3,2.5s2.4,8.3.7,13.8c-1.7,5.5-5.2,11.4-10.1,16.3-4.7,4.7-10.4,7.2-15.6,7.8s-9.8-.8-12.4-3.8c-2.7-3.2-3-6.4-1.2-10.2,1.9-4,6.2-8.7,12.2-14.5Z"/>
          <path class="cls-1" d="M211,69.3c5.1-4.9,10.2-8.7,14.7-10.6,1.1-.5,2.1-.8,3-1,3.6-.9,6.3,0,8,2.5s2.1,8,.4,13.3c-1.7,5.3-5.1,11-9.9,15.7-4.6,4.6-10.1,7-15.1,7.6s-9.5-.7-12-3.6c-2.7-3-3-6.2-1.2-10,1.9-4,6.2-8.6,12-14.1Z"/>
          <path class="cls-51" d="M211.3,69.6c5.1-4.9,10.1-8.5,14.3-10.4,1-.4,2-.8,3-1,3.6-.9,6.2,0,7.8,2.6s1.9,7.8.2,12.9c-1.7,5.1-5,10.6-9.6,15.2-4.4,4.4-9.8,6.8-14.6,7.4s-9.2-.6-11.7-3.3c-2.7-2.9-2.9-6-1.1-9.7,2-4,6.3-8.5,11.7-13.8Z"/>
          <path class="cls-55" d="M211.7,70c5.1-4.9,9.9-8.4,14-10.2,1-.4,2-.8,2.9-1,3.5-.9,6.1,0,7.5,2.7s1.6,7.5,0,12.5c-1.7,4.9-4.9,10.2-9.3,14.7-4.3,4.3-9.4,6.6-14.1,7.2s-8.9-.5-11.3-3c-2.7-2.8-2.8-5.9-1.1-9.4,2-4,6.3-8.4,11.5-13.4Z"/>
          <path class="cls-47" d="M212,70.3c5.1-4.9,9.8-8.3,13.7-10,1-.4,1.9-.8,2.8-1,3.5-.9,5.9.2,7.3,2.7s1.3,7.3-.4,12.1c-1.7,4.8-4.8,9.9-9,14.1-4.1,4.1-9.1,6.4-13.6,7s-8.6-.4-10.9-2.8c-2.7-2.7-2.8-5.7-1.1-9.1,2-3.9,6.3-8.3,11.3-13Z"/>
          <path class="cls-4" d="M212.4,70.7c5.1-4.9,9.6-8.2,13.3-9.8,1-.4,1.9-.8,2.7-1,3.5-.9,5.8.2,7,2.8s1,7.1-.6,11.7c-1.7,4.6-4.7,9.5-8.8,13.6-4,4-8.7,6.2-13.1,6.8s-8.3-.3-10.5-2.5c-2.7-2.6-2.7-5.6-1-8.9,2-3.9,6.4-8.2,11-12.7Z"/>
          <path class="cls-54" d="M212.7,71c5.1-4.8,9.5-8,13-9.6,1-.4,1.8-.8,2.7-1,3.5-.9,5.7.3,6.7,2.8s.8,6.8-.9,11.2c-1.6,4.4-4.6,9.1-8.5,13-3.8,3.8-8.4,6-12.6,6.6s-7.9-.1-10.2-2.2c-2.7-2.5-2.7-5.4-1-8.6,2-3.9,6.4-8.1,10.8-12.3Z"/>
          <path class="cls-52" d="M213,71.4c5.1-4.8,9.3-7.9,12.7-9.5.9-.4,1.8-.7,2.6-.9,3.5-.9,5.6.3,6.5,2.9s.5,6.6-1.2,10.8c-1.6,4.2-4.5,8.7-8.2,12.5-3.7,3.7-8.1,5.8-12.1,6.4s-7.6,0-9.8-2c-2.7-2.4-2.6-5.2-1-8.3,2-3.9,6.5-8.1,10.5-11.9Z"/>
          <path class="cls-6" d="M204,91.4c-6.2-5.1,2.6-13.2,9.3-19.6,6.5-6.2,11.4-9.3,14.9-10.2s5.5.4,6.2,2.9c1.5,5.1-2.1,15.1-9.4,22.3-3.5,3.5-7.7,5.6-11.6,6.3s-7.3,0-9.4-1.7Z"/>
          <path class="cls-5" d="M205.5,89.9c-5.9-4.9,2.4-12.6,8.8-18.7,24.8-23.6,25,.7,11.2,14.4-6.7,6.7-16,7.6-20,4.2Z"/>
          <path class="cls-23" d="M206.9,88.5c-5.7-4.7,2.2-11.9,8.3-17.7,23.5-22.3,23.9.8,10.8,13.8-6.4,6.3-15.2,7.1-19.1,3.9Z"/>
          <path class="cls-20" d="M208.3,87.1c-5.4-4.5,2-11.3,7.8-16.7,22.2-21,22.7.9,10.4,13.2-6,6-14.4,6.7-18.1,3.6Z"/>
          <path class="cls-48" d="M209.8,85.6c-5.2-4.3,1.9-10.7,7.2-15.8,20.9-19.7,21.6,1,9.9,12.5-5.7,5.6-13.6,6.2-17.2,3.2Z"/>
          <path class="cls-10" d="M211.2,84.2c-4.9-4.1,1.7-10,6.7-14.8,19.6-18.4,20.4,1.2,9.5,11.9-5.3,5.2-12.8,5.7-16.2,2.9Z"/>
          <path class="cls-2" d="M212.6,82.8c-4.7-3.9,1.5-9.4,6.2-13.8,18.3-17.1,19.2,1.3,9,11.2-5,4.9-12,5.3-15.2,2.6Z"/>
          <path class="cls-3" d="M214.1,81.3c-4.4-3.7,1.3-8.8,5.7-12.9,17-15.8,18.1,1.4,8.6,10.6-4.6,4.5-11.2,4.8-14.3,2.3Z"/>
          <path class="cls-22" d="M215.5,79.9c-4.2-3.5,1.1-8.2,5.1-11.9,15.7-14.5,16.9,1.5,8.2,10-4.3,4.1-10.4,4.3-13.3,1.9Z"/>
          <path class="cls-53" d="M216.9,78.5c-4-3.3.9-7.5,4.6-10.9,14.4-13.2,15.7,1.6,7.7,9.3-3.9,3.8-9.6,3.8-12.3,1.6Z"/>
          <path class="cls-7" d="M218.3,77c-3.7-3.1.7-6.9,4.1-10,13.1-11.8,14.6,1.8,7.3,8.7-3.5,3.4-8.8,3.4-11.4,1.3Z"/>
        </g>
        <g>
          <path class="cls-9" d="M244.5,94.2c1.2,7,4.6,12.7,8.7,16.3s9.1,5.3,13.2,4.1c4.2-1.2,6.5-3.6,7.3-8s.2-10.8-1.5-19.8c-1.3-6.9-3.4-13.6-6.3-18.2-2.8-4.6-6.4-7.2-10.6-6-4.2,1.2-7.5,5.4-9.5,11.2s-2.7,13.1-1.5,20.3Z"/>
          <path class="cls-21" d="M246.9,73.4c-2.2,5.5-3.1,13.1-1.9,20.6,1.1,6.8,4.4,12.3,8.4,15.9,4,3.6,8.8,5.2,12.8,4.1,4.1-1.1,6.3-3.5,7.1-7.8.8-4.4.1-10.7-1.5-19.3-1.2-6.7-3.3-13-5.9-17.4-2.7-4.4-6-6.9-9.8-6s-7.2,4.6-9.2,9.9Z"/>
          <path class="cls-11" d="M247.7,73c-2.3,5.3-3.5,13.1-2.2,20.9,1.1,6.6,4.3,11.9,8.1,15.4s8.4,5.1,12.3,4.1c4-1,6.2-3.4,6.9-7.6.8-4.4,0-10.6-1.5-18.9-1.2-6.4-3.1-12.4-5.5-16.6-2.5-4.3-5.5-6.6-9.1-6.1s-6.8,3.8-9,8.7Z"/>
          <path class="cls-1" d="M248.6,72.6c-2.5,5.1-4,13.1-2.6,21.2,1.1,6.3,4.1,11.5,7.8,14.9s8.1,5,11.8,4.1c4-.9,6-3.3,6.7-7.4.8-4.4,0-10.6-1.5-18.4-1.1-6.1-2.9-11.8-5.2-15.8-2.3-4.1-5.1-6.3-8.4-6.1s-6.5,3-8.7,7.4Z"/>
          <path class="cls-51" d="M249.5,72.2c-2.7,4.9-4.4,13.2-3,21.5,1,6.1,3.9,11.2,7.5,14.5,3.6,3.3,7.8,4.9,11.4,4.1,3.9-.8,5.9-3.2,6.5-7.2.7-4.3-.1-10.5-1.5-17.9-1.1-5.9-2.7-11.2-4.8-15-2.1-3.9-4.7-6.1-7.7-6.2s-6.2,2.2-8.4,6.2Z"/>
          <path class="cls-55" d="M250.4,71.8c-2.8,4.6-4.8,13.2-3.4,21.8,1,5.9,3.8,10.8,7.2,14s7.5,4.8,10.9,4.1c3.8-.7,5.7-3.1,6.3-7,.7-4.3-.2-10.5-1.5-17.5-1-5.6-2.6-10.6-4.5-14.3-1.9-3.7-4.3-5.8-7-6.2s-5.9,1.4-8.1,5Z"/>
          <path class="cls-47" d="M251.2,71.4c-3,4.4-5.3,13.2-3.8,22.1.9,5.7,3.6,10.4,6.9,13.5,3.3,3.1,7.1,4.7,10.4,4.1,3.7-.6,5.6-3,6.2-6.8.7-4.3-.3-10.4-1.5-17-1-5.3-2.4-10-4.1-13.5-1.8-3.6-3.9-5.6-6.2-6.2s-5.6.6-7.8,3.7Z"/>
          <path class="cls-4" d="M252.1,71c-3.3,4.1-5.7,13.2-4.2,22.4.9,5.5,3.5,10,6.6,13.1s6.8,4.6,10,4.1c3.7-.5,5.4-2.9,6-6.6.6-4.3-.4-10.3-1.5-16.6-.9-5-2.2-9.4-3.8-12.7-1.6-3.4-3.5-5.4-5.5-6.3-3-1.2-5.4-.2-7.5,2.5Z"/>
          <path class="cls-54" d="M253,70.6c-3.5,3.9-6.1,13.3-4.5,22.7.9,5.3,3.3,9.7,6.3,12.6s6.5,4.5,9.5,4.1c3.6-.4,5.3-2.8,5.8-6.3.6-4.3-.5-10.3-1.5-16.1-.9-4.8-2-8.8-3.4-11.9-1.4-3.2-3.1-5.3-4.8-6.3-2.8-1.7-5.1-1.1-7.2,1.3Z"/>
          <path class="cls-52" d="M253.9,70.1c-3.8,3.6-6.5,13.3-4.9,23,.8,5.1,3.2,9.3,6,12.1s6.1,4.4,9,4.1c3.5-.3,5.1-2.7,5.6-6.1.6-4.3-.5-10.2-1.6-15.7-.8-4.5-1.9-8.2-3-11.1-1.2-3.1-2.7-5.1-4.1-6.3-2.6-2.2-4.9-1.9-7,0Z"/>
          <path class="cls-6" d="M263.7,108.8c7.9-.6,5.5-12.1,3.8-21.1-1.6-8.8-3.8-14-6-16.7s-4.6-2.8-6.7-1.2c-4.1,3.2-7,13.3-5.3,23.3.8,4.9,3,8.9,5.7,11.7s5.8,4.3,8.5,4.1Z"/>
          <path class="cls-5" d="M263.3,106.8c7.5-.5,5.3-11.4,3.7-20-6.2-33.1-20.4-13.8-17.2,5.1,1.5,9.2,8.4,15.2,13.6,14.9Z"/>
          <path class="cls-23" d="M262.9,104.8c7.2-.5,5-10.8,3.5-18.8-5.9-31.2-19.4-13-16.4,4.8,1.5,8.7,8,14.4,12.9,14Z"/>
          <path class="cls-20" d="M262.5,102.8c6.8-.5,4.8-10.1,3.3-17.7-5.6-29.2-18.4-12.2-15.6,4.5,1.4,8.2,7.6,13.5,12.3,13.1Z"/>
          <path class="cls-48" d="M262.2,100.8c6.5-.5,4.5-9.5,3.2-16.5-5.3-27.3-17.5-11.4-14.8,4.2,1.3,7.6,7.2,12.6,11.6,12.2Z"/>
          <path class="cls-10" d="M261.8,98.8c6.1-.4,4.3-8.8,3-15.3-5-25.4-16.5-10.6-14,4,1.2,7.1,6.8,11.7,11,11.4Z"/>
          <path class="cls-2" d="M261.4,96.8c5.8-.4,4.1-8.1,2.9-14.2-4.6-23.4-15.5-9.7-13.2,3.7,1.1,6.5,6.4,10.8,10.3,10.5Z"/>
          <path class="cls-3" d="M261,94.8c5.4-.4,3.8-7.5,2.7-13-4.3-21.5-14.6-8.9-12.4,3.4,1.1,6,5.9,9.9,9.7,9.6Z"/>
          <path class="cls-22" d="M260.7,92.7c5.1-.4,3.6-6.8,2.6-11.9-4-19.6-13.6-8.1-11.6,3.1,1,5.5,5.5,9,9,8.7Z"/>
          <path class="cls-53" d="M260.3,90.7c4.7-.3,3.4-6.1,2.4-10.7-3.7-17.6-12.6-7.3-10.8,2.8.9,4.9,5.1,8.1,8.4,7.9Z"/>
          <path class="cls-7" d="M259.9,88.7c4.4-.3,3.1-5.5,2.3-9.5-3.4-15.7-11.7-6.4-10,2.6.8,4.4,4.7,7.2,7.7,7Z"/>
        </g>
      </g>
    </g>
  </g>
</svg>