<?xml version="1.0" encoding="UTF-8"?>
<svg xmlns="http://www.w3.org/2000/svg" xmlns:xlink="http://www.w3.org/1999/xlink" version="1.1" viewBox="0 0 360 360">
  <defs>
    <style>
      .cls-1 {
        mask: url(#mask);
      }

      .cls-2 {
        filter: url(#luminosity-noclip);
      }

      .cls-3 {
        fill: #626466;
        opacity: .5;
      }

      .cls-4 {
        fill: #58595b;
      }

      .cls-5 {
        filter: url(#luminosity-noclip-61);
      }

      .cls-6 {
        filter: url(#luminosity-noclip-57);
      }

      .cls-7 {
        filter: url(#luminosity-noclip-55);
      }

      .cls-8 {
        filter: url(#luminosity-noclip-53);
      }

      .cls-9 {
        filter: url(#luminosity-noclip-59);
      }

      .cls-10 {
        filter: url(#luminosity-noclip-51);
      }

      .cls-11 {
        filter: url(#luminosity-noclip-25);
      }

      .cls-12 {
        filter: url(#luminosity-noclip-27);
      }

      .cls-13 {
        filter: url(#luminosity-noclip-21);
      }

      .cls-14 {
        filter: url(#luminosity-noclip-23);
      }

      .cls-15 {
        filter: url(#luminosity-noclip-29);
      }

      .cls-16 {
        filter: url(#luminosity-noclip-17);
      }

      .cls-17 {
        filter: url(#luminosity-noclip-13);
      }

      .cls-18 {
        filter: url(#luminosity-noclip-11);
      }

      .cls-19 {
        filter: url(#luminosity-noclip-19);
      }

      .cls-20 {
        filter: url(#luminosity-noclip-15);
      }

      .cls-21 {
        filter: url(#luminosity-noclip-43);
      }

      .cls-22 {
        filter: url(#luminosity-noclip-49);
      }

      .cls-23 {
        filter: url(#luminosity-noclip-41);
      }

      .cls-24 {
        filter: url(#luminosity-noclip-45);
      }

      .cls-25 {
        filter: url(#luminosity-noclip-47);
      }

      .cls-26 {
        filter: url(#luminosity-noclip-31);
      }

      .cls-27 {
        filter: url(#luminosity-noclip-35);
      }

      .cls-28 {
        filter: url(#luminosity-noclip-33);
      }

      .cls-29 {
        filter: url(#luminosity-noclip-37);
      }

      .cls-30 {
        filter: url(#luminosity-noclip-39);
      }

      .cls-31 {
        filter: url(#luminosity-noclip-3);
      }

      .cls-32 {
        filter: url(#luminosity-noclip-9);
      }

      .cls-33 {
        filter: url(#luminosity-noclip-7);
      }

      .cls-34 {
        filter: url(#luminosity-noclip-5);
      }

      .cls-35 {
        fill: #333032;
      }

      .cls-36 {
        fill: #606164;
        opacity: .6;
      }

      .cls-37 {
        fill: #4d4d4f;
      }

      .cls-38 {
        fill: #5c5d5f;
        opacity: .8;
      }

      .cls-39 {
        fill: #231f20;
      }

      .cls-40 {
        fill: url(#linear-gradient-3);
      }

      .cls-40, .cls-41, .cls-42, .cls-43, .cls-44, .cls-45, .cls-46, .cls-47, .cls-48, .cls-49, .cls-50, .cls-51, .cls-52, .cls-53, .cls-54, .cls-55, .cls-56, .cls-57, .cls-58, .cls-59, .cls-60, .cls-61, .cls-62, .cls-63, .cls-64, .cls-65, .cls-66, .cls-67, .cls-68, .cls-69, .cls-70 {
        mix-blend-mode: multiply;
      }

      .cls-41 {
        fill: url(#linear-gradient-9);
      }

      .cls-42 {
        fill: url(#linear-gradient-5);
      }

      .cls-43 {
        fill: url(#linear-gradient-7);
      }

      .cls-71 {
        fill: #696a6d;
        opacity: .2;
      }

      .cls-72 {
        fill: #434243;
      }

      .cls-73 {
        mask: url(#mask-2);
      }

      .cls-74 {
        mask: url(#mask-3);
      }

      .cls-75 {
        mask: url(#mask-4);
      }

      .cls-76 {
        mask: url(#mask-5);
      }

      .cls-77 {
        mask: url(#mask-7);
      }

      .cls-78 {
        mask: url(#mask-6);
      }

      .cls-79 {
        mask: url(#mask-1);
      }

      .cls-80 {
        mask: url(#mask-9);
      }

      .cls-81 {
        mask: url(#mask-8);
      }

      .cls-44 {
        fill: url(#linear-gradient-11);
      }

      .cls-45 {
        fill: url(#linear-gradient-13);
      }

      .cls-46 {
        fill: url(#linear-gradient-61);
      }

      .cls-47 {
        fill: url(#linear-gradient-53);
      }

      .cls-48 {
        fill: url(#linear-gradient-55);
      }

      .cls-49 {
        fill: url(#linear-gradient-51);
      }

      .cls-50 {
        fill: url(#linear-gradient-59);
      }

      .cls-51 {
        fill: url(#linear-gradient-57);
      }

      .cls-52 {
        fill: url(#linear-gradient-23);
      }

      .cls-53 {
        fill: url(#linear-gradient-19);
      }

      .cls-54 {
        fill: url(#linear-gradient-21);
      }

      .cls-55 {
        fill: url(#linear-gradient-33);
      }

      .cls-56 {
        fill: url(#linear-gradient-31);
      }

      .cls-57 {
        fill: url(#linear-gradient-17);
      }

      .cls-58 {
        fill: url(#linear-gradient-15);
      }

      .cls-59 {
        fill: url(#linear-gradient-25);
      }

      .cls-60 {
        fill: url(#linear-gradient-27);
      }

      .cls-61 {
        fill: url(#linear-gradient-35);
      }

      .cls-62 {
        fill: url(#linear-gradient-39);
      }

      .cls-63 {
        fill: url(#linear-gradient-37);
      }

      .cls-64 {
        fill: url(#linear-gradient-29);
      }

      .cls-65 {
        fill: url(#linear-gradient-41);
      }

      .cls-66 {
        fill: url(#linear-gradient-43);
      }

      .cls-67 {
        fill: url(#linear-gradient-49);
      }

      .cls-68 {
        fill: url(#linear-gradient-45);
      }

      .cls-69 {
        fill: url(#linear-gradient-47);
      }

      .cls-82 {
        fill: url(#linear-gradient-8);
        opacity: 0;
      }

      .cls-83 {
        fill: url(#linear-gradient-6);
        opacity: 0;
      }

      .cls-84 {
        fill: url(#linear-gradient-4);
        opacity: 0;
      }

      .cls-85 {
        fill: #5e5f62;
        opacity: .7;
      }

      .cls-86 {
        fill: #535355;
      }

      .cls-87 {
        fill: #383638;
      }

      .cls-88 {
        fill: #6b6c6f;
        opacity: .1;
      }

      .cls-89 {
        fill: #282526;
      }

      .cls-90 {
        fill: url(#linear-gradient-63);
        opacity: .9;
      }

      .cls-91 {
        fill: url(#linear-gradient-62);
        opacity: .9;
      }

      .cls-92 {
        fill: url(#linear-gradient-60);
        opacity: .8;
      }

      .cls-93 {
        fill: url(#linear-gradient-58);
        opacity: .8;
      }

      .cls-94 {
        fill: url(#linear-gradient-56);
        opacity: .8;
      }

      .cls-95 {
        fill: url(#linear-gradient-54);
        opacity: .8;
      }

      .cls-96 {
        fill: url(#linear-gradient-50);
        opacity: .7;
      }

      .cls-97 {
        fill: url(#linear-gradient-52);
        opacity: .7;
      }

      .cls-98 {
        fill: url(#linear-gradient-12);
        opacity: .1;
      }

      .cls-99 {
        fill: url(#linear-gradient-10);
        opacity: .1;
      }

      .cls-100 {
        fill: url(#linear-gradient-24);
        opacity: .3;
      }

      .cls-101 {
        fill: url(#linear-gradient-22);
        opacity: .3;
      }

      .cls-102 {
        fill: url(#linear-gradient-20);
        opacity: .3;
      }

      .cls-103 {
        fill: url(#linear-gradient-18);
        opacity: .2;
      }

      .cls-104 {
        fill: url(#linear-gradient-46);
        opacity: .6;
      }

      .cls-105 {
        fill: url(#linear-gradient-44);
        opacity: .6;
      }

      .cls-106 {
        fill: url(#linear-gradient-42);
        opacity: .6;
      }

      .cls-107 {
        fill: url(#linear-gradient-40);
        opacity: .6;
      }

      .cls-108 {
        fill: url(#linear-gradient-38);
        opacity: .5;
      }

      .cls-109 {
        fill: url(#linear-gradient-36);
        opacity: .5;
      }

      .cls-110 {
        fill: url(#linear-gradient-34);
        opacity: .5;
      }

      .cls-111 {
        fill: url(#linear-gradient-16);
        opacity: .2;
      }

      .cls-112 {
        fill: url(#linear-gradient-14);
        opacity: .2;
      }

      .cls-113 {
        fill: url(#linear-gradient-32);
        opacity: .4;
      }

      .cls-114 {
        fill: url(#linear-gradient-30);
        opacity: .4;
      }

      .cls-115 {
        fill: url(#linear-gradient-28);
        opacity: .4;
      }

      .cls-116 {
        fill: url(#linear-gradient-26);
        opacity: .3;
      }

      .cls-117 {
        fill: url(#linear-gradient-48);
        opacity: .7;
      }

      .cls-70 {
        fill: url(#linear-gradient);
      }

      .cls-118 {
        opacity: .8;
      }

      .cls-119 {
        opacity: .7;
      }

      .cls-120 {
        fill: #3e3c3e;
      }

      .cls-121 {
        fill: url(#linear-gradient-2);
      }

      .cls-121, .cls-122 {
        opacity: 0;
      }

      .cls-123 {
        fill: #656668;
        opacity: .4;
      }

      .cls-124 {
        fill: #484849;
      }

      .cls-125 {
        fill: #5a5b5d;
        opacity: .9;
      }

      .cls-126 {
        fill: #67686a;
        opacity: .3;
      }

      .cls-127 {
        mask: url(#mask-50);
      }

      .cls-128 {
        mask: url(#mask-54);
      }

      .cls-129 {
        mask: url(#mask-51);
      }

      .cls-130 {
        mask: url(#mask-53);
      }

      .cls-131 {
        mask: url(#mask-52);
      }

      .cls-132 {
        mask: url(#mask-55);
      }

      .cls-133 {
        mask: url(#mask-60);
      }

      .cls-134 {
        mask: url(#mask-61);
      }

      .cls-135 {
        mask: url(#mask-56);
      }

      .cls-136 {
        mask: url(#mask-41);
      }

      .cls-137 {
        mask: url(#mask-59);
      }

      .cls-138 {
        mask: url(#mask-31);
      }

      .cls-139 {
        mask: url(#mask-35);
      }

      .cls-140 {
        mask: url(#mask-30);
      }

      .cls-141 {
        mask: url(#mask-34);
      }

      .cls-142 {
        mask: url(#mask-33);
      }

      .cls-143 {
        mask: url(#mask-57);
      }

      .cls-144 {
        mask: url(#mask-44);
      }

      .cls-145 {
        mask: url(#mask-43);
      }

      .cls-146 {
        mask: url(#mask-40);
      }

      .cls-147 {
        mask: url(#mask-46);
      }

      .cls-148 {
        mask: url(#mask-45);
      }

      .cls-149 {
        mask: url(#mask-42);
      }

      .cls-150 {
        mask: url(#mask-58);
      }

      .cls-151 {
        mask: url(#mask-32);
      }

      .cls-152 {
        mask: url(#mask-10);
      }

      .cls-153 {
        mask: url(#mask-14);
      }

      .cls-154 {
        mask: url(#mask-18);
      }

      .cls-155 {
        mask: url(#mask-11);
      }

      .cls-156 {
        mask: url(#mask-16);
      }

      .cls-157 {
        mask: url(#mask-13);
      }

      .cls-158 {
        mask: url(#mask-19);
      }

      .cls-159 {
        mask: url(#mask-12);
      }

      .cls-160 {
        mask: url(#mask-17);
      }

      .cls-161 {
        mask: url(#mask-15);
      }

      .cls-162 {
        mask: url(#mask-22);
      }

      .cls-163 {
        mask: url(#mask-21);
      }

      .cls-164 {
        mask: url(#mask-20);
      }

      .cls-165 {
        mask: url(#mask-36);
      }

      .cls-166 {
        mask: url(#mask-25);
      }

      .cls-167 {
        mask: url(#mask-24);
      }

      .cls-168 {
        mask: url(#mask-23);
      }

      .cls-169 {
        mask: url(#mask-39);
      }

      .cls-170 {
        mask: url(#mask-38);
      }

      .cls-171 {
        mask: url(#mask-37);
      }

      .cls-172 {
        mask: url(#mask-49);
      }

      .cls-173 {
        mask: url(#mask-48);
      }

      .cls-174 {
        mask: url(#mask-47);
      }

      .cls-175 {
        mask: url(#mask-28);
      }

      .cls-176 {
        mask: url(#mask-29);
      }

      .cls-177 {
        mask: url(#mask-26);
      }

      .cls-178 {
        mask: url(#mask-27);
      }

      .cls-179 {
        fill: #2e2b2c;
      }

      .cls-122 {
        fill: #6d6e71;
      }
    </style>
    <filter id="luminosity-noclip" x="1" y="1.9" width="358" height="356.1" color-interpolation-filters="sRGB" filterUnits="userSpaceOnUse">
      <feFlood flood-color="#fff" result="bg"/>
      <feBlend in="SourceGraphic" in2="bg"/>
    </filter>
    <filter id="luminosity-noclip-2" x="1" y="-8371.5" width="358" height="32766" color-interpolation-filters="sRGB" filterUnits="userSpaceOnUse">
      <feFlood flood-color="#fff" result="bg"/>
      <feBlend in="SourceGraphic" in2="bg"/>
    </filter>
    <mask id="mask-1" x="1" y="-8371.5" width="358" height="32766" maskUnits="userSpaceOnUse"/>
    <linearGradient id="linear-gradient" x1="104.3" y1="7.5" x2="294.3" y2="330.5" gradientUnits="userSpaceOnUse">
      <stop offset="0" stop-color="#fff"/>
      <stop offset="1" stop-color="gray"/>
    </linearGradient>
    <mask id="mask" x="1" y="1.9" width="358" height="356.1" maskUnits="userSpaceOnUse">
      <g class="cls-2">
        <g class="cls-79">
          <path class="cls-70" d="M1.2,136.5c-4.3-42.8,56.4-11,61.6-34.8,5.2-23.7-13.8-69.3,39.5-93,64.6-28.8,98.5,44.5,122.8,21.2,24.2-23.3,63.1-8.9,75.6,3.2,16.7,16.1-23.3,24.7-8.1,44.6,15.2,19.9,69.2,36.2,66.3,72.1-1.4,17.7-32.1,19.1-34,31-1.9,11.9,20.4,54.1-.9,62.7-21.4,8.5-48.9,5.7-36.6,58.9,12.3,53.2-5.2,74.1-49.4,37-44.2-37-66.5-47-78.3-28-11.9,19-23.3,13.8-39.4-30.9-16.1-44.6-43.2,3.3-52.7-27.5-9.5-30.9,3.7-37.7-3.3-47.5C47.1,181.7,2.8,152.9,1.2,136.5Z"/>
        </g>
      </g>
    </mask>
    <linearGradient id="linear-gradient-2" x1="104.3" y1="7.5" x2="294.3" y2="330.5" gradientUnits="userSpaceOnUse">
      <stop offset="0" stop-color="#fff"/>
      <stop offset="1" stop-color="#949292"/>
    </linearGradient>
    <filter id="luminosity-noclip-3" x="1.3" y="2.7" width="355.3" height="351.9" color-interpolation-filters="sRGB" filterUnits="userSpaceOnUse">
      <feFlood flood-color="#fff" result="bg"/>
      <feBlend in="SourceGraphic" in2="bg"/>
    </filter>
    <filter id="luminosity-noclip-4" x="1.3" y="-8371.5" width="355.3" height="32766" color-interpolation-filters="sRGB" filterUnits="userSpaceOnUse">
      <feFlood flood-color="#fff" result="bg"/>
      <feBlend in="SourceGraphic" in2="bg"/>
    </filter>
    <mask id="mask-3" x="1.3" y="-8371.5" width="355.3" height="32766" maskUnits="userSpaceOnUse"/>
    <linearGradient id="linear-gradient-3" x1="104.8" y1="8.2" x2="294.3" y2="328.3" gradientUnits="userSpaceOnUse">
      <stop offset="0" stop-color="#fff"/>
      <stop offset="1" stop-color="#848484"/>
    </linearGradient>
    <mask id="mask-2" x="1.3" y="2.7" width="355.3" height="351.9" maskUnits="userSpaceOnUse">
      <g class="cls-31">
        <g class="cls-74">
          <path class="cls-40" d="M1.5,136.5c-3.9-42.4,56.8-9.9,62.1-34,5.2-23.5-13.8-69.1,39-92.9,63.8-28.8,97.8,44.2,122.4,21.5,24.3-22.4,62.6-9.7,75.2,2.2,16.6,15.8-22.9,25-7.9,44.7,15.1,19.8,67.6,36.1,64.2,71-1.7,17.4-32.4,18.8-34.2,30.9-1.8,12,19.9,53.3-.9,61.9-20.9,8.7-47.9,6-35.9,58.1,12,52.1-5.5,72.7-48.7,36.3-43.1-36.3-65.3-45.7-77-27-11.8,18.8-23.3,13.3-39.1-30.3-15.8-43.8-42.6,3-52.3-27.2-9.7-30,3.1-37.1-4.1-46.9C47.3,181.4,3,152.8,1.5,136.5Z"/>
        </g>
      </g>
    </mask>
    <linearGradient id="linear-gradient-4" x1="104.8" y1="8.2" x2="294.3" y2="328.3" gradientUnits="userSpaceOnUse">
      <stop offset="0" stop-color="#fff"/>
      <stop offset="1" stop-color="#949292"/>
    </linearGradient>
    <filter id="luminosity-noclip-5" x="1.7" y="3.6" width="352.6" height="347.6" color-interpolation-filters="sRGB" filterUnits="userSpaceOnUse">
      <feFlood flood-color="#fff" result="bg"/>
      <feBlend in="SourceGraphic" in2="bg"/>
    </filter>
    <filter id="luminosity-noclip-6" x="1.7" y="-8371.5" width="352.6" height="32766" color-interpolation-filters="sRGB" filterUnits="userSpaceOnUse">
      <feFlood flood-color="#fff" result="bg"/>
      <feBlend in="SourceGraphic" in2="bg"/>
    </filter>
    <mask id="mask-5" x="1.7" y="-8371.5" width="352.6" height="32766" maskUnits="userSpaceOnUse"/>
    <linearGradient id="linear-gradient-5" x1="105.1" y1="9.1" x2="294.1" y2="326.1" gradientUnits="userSpaceOnUse">
      <stop offset="0" stop-color="#fff"/>
      <stop offset="1" stop-color="#888"/>
    </linearGradient>
    <mask id="mask-4" x="1.7" y="3.6" width="352.6" height="347.6" maskUnits="userSpaceOnUse">
      <g class="cls-34">
        <g class="cls-76">
          <path class="cls-42" d="M1.8,136.4c-3.4-42,57.1-8.8,62.6-33.2,5.2-23.3-13.8-68.8,38.5-92.8,63.1-28.8,97.1,44,122.1,21.8,24.3-21.6,62.1-10.5,74.8,1.3,16.6,15.5-22.6,25.3-7.7,44.8,14.9,19.6,65.9,35.9,62.1,70-1.9,17.2-32.6,18.6-34.4,30.8-1.8,12.1,19.3,52.5-.9,61.2-20.5,8.8-46.9,6.4-35.3,57.4,11.6,51-5.9,71.3-48.1,35.5-42.1-35.6-64.1-44.4-75.7-26.1-11.8,18.5-23.3,12.8-38.7-29.8-15.4-43-41.9,2.7-51.9-26.8-9.8-29.1,2.3-36.5-4.9-46.3C47.4,181.2,3.2,152.8,1.8,136.4Z"/>
        </g>
      </g>
    </mask>
    <linearGradient id="linear-gradient-6" x1="105.1" y1="9.1" x2="294.1" y2="326.1" xlink:href="#linear-gradient-4"/>
    <filter id="luminosity-noclip-7" x="2" y="4.4" width="350" height="343.4" color-interpolation-filters="sRGB" filterUnits="userSpaceOnUse">
      <feFlood flood-color="#fff" result="bg"/>
      <feBlend in="SourceGraphic" in2="bg"/>
    </filter>
    <filter id="luminosity-noclip-8" x="2" y="-8371.5" width="350" height="32766" color-interpolation-filters="sRGB" filterUnits="userSpaceOnUse">
      <feFlood flood-color="#fff" result="bg"/>
      <feBlend in="SourceGraphic" in2="bg"/>
    </filter>
    <mask id="mask-7" x="2" y="-8371.5" width="350" height="32766" maskUnits="userSpaceOnUse"/>
    <linearGradient id="linear-gradient-7" x1="105.3" y1="10" x2="293.7" y2="324" gradientUnits="userSpaceOnUse">
      <stop offset="0" stop-color="#fff"/>
      <stop offset="1" stop-color="#8c8c8c"/>
    </linearGradient>
    <mask id="mask-6" x="2" y="4.4" width="350" height="343.4" maskUnits="userSpaceOnUse">
      <g class="cls-33">
        <g class="cls-77">
          <path class="cls-43" d="M2.1,136.3c-3-41.6,57.5-7.7,63-32.5,5.1-23.1-13.8-68.6,38-92.6,62.3-28.8,96.3,43.8,121.7,22.1,24.3-20.8,61.7-11.3,74.4.3,16.6,15.1-22.3,25.6-7.5,44.9,14.8,19.4,64.3,35.8,60,68.9-2.2,16.9-32.9,18.3-34.6,30.7-1.7,12.2,18.8,51.7-.9,60.4-20.1,8.9-45.9,6.7-34.6,56.6,11.3,50-6.2,69.9-47.4,34.8-41.1-34.9-62.9-43.1-74.3-25.1-11.7,18.3-23.4,12.4-38.3-29.3-15.1-42.2-41.3,2.3-51.5-26.4-10-28.3,1.6-35.9-5.6-45.6C47.5,180.9,3.3,152.8,2.1,136.3Z"/>
        </g>
      </g>
    </mask>
    <linearGradient id="linear-gradient-8" x1="105.3" y1="10" x2="293.7" y2="324" xlink:href="#linear-gradient-4"/>
    <filter id="luminosity-noclip-9" x="2.3" y="5.2" width="347.3" height="339.1" color-interpolation-filters="sRGB" filterUnits="userSpaceOnUse">
      <feFlood flood-color="#fff" result="bg"/>
      <feBlend in="SourceGraphic" in2="bg"/>
    </filter>
    <filter id="luminosity-noclip-10" x="2.3" y="-8371.5" width="347.3" height="32766" color-interpolation-filters="sRGB" filterUnits="userSpaceOnUse">
      <feFlood flood-color="#fff" result="bg"/>
      <feBlend in="SourceGraphic" in2="bg"/>
    </filter>
    <mask id="mask-9" x="2.3" y="-8371.5" width="347.3" height="32766" maskUnits="userSpaceOnUse"/>
    <linearGradient id="linear-gradient-9" x1="105.4" y1="11" x2="293.2" y2="321.8" gradientUnits="userSpaceOnUse">
      <stop offset="0" stop-color="#fff"/>
      <stop offset="1" stop-color="#909090"/>
    </linearGradient>
    <mask id="mask-8" x="2.3" y="5.2" width="347.3" height="339.1" maskUnits="userSpaceOnUse">
      <g class="cls-32">
        <g class="cls-80">
          <path class="cls-41" d="M2.4,136.2c-2.6-41.1,57.9-6.6,63.5-31.7,5.1-22.8-13.8-68.4,37.5-92.5,61.5-28.7,95.6,43.6,121.4,22.4,24.3-19.9,61.2-12.1,74-.7,16.5,14.8-22,25.8-7.4,45,14.6,19.2,62.7,35.7,57.9,67.9-2.5,16.6-33.2,18-34.8,30.6-1.7,12.4,18.2,50.9-.8,59.6-19.7,9.1-44.9,7.1-33.9,55.8,10.9,48.9-6.5,68.5-46.7,34.1-40.1-34.2-61.7-41.8-73-24.1-11.7,18.1-23.4,11.9-38-28.8-14.7-41.3-40.6,2-51-26-10.2-27.4.9-35.4-6.4-45C47.6,180.6,3.5,152.8,2.4,136.2Z"/>
        </g>
      </g>
    </mask>
    <linearGradient id="linear-gradient-10" x1="105.4" y1="11" x2="293.2" y2="321.8" xlink:href="#linear-gradient-4"/>
    <filter id="luminosity-noclip-11" x="2.6" y="6" width="344.7" height="334.8" color-interpolation-filters="sRGB" filterUnits="userSpaceOnUse">
      <feFlood flood-color="#fff" result="bg"/>
      <feBlend in="SourceGraphic" in2="bg"/>
    </filter>
    <filter id="luminosity-noclip-12" x="2.6" y="-8371.5" width="344.7" height="32766" color-interpolation-filters="sRGB" filterUnits="userSpaceOnUse">
      <feFlood flood-color="#fff" result="bg"/>
      <feBlend in="SourceGraphic" in2="bg"/>
    </filter>
    <mask id="mask-11" x="2.6" y="-8371.5" width="344.7" height="32766" maskUnits="userSpaceOnUse"/>
    <linearGradient id="linear-gradient-11" x1="105.5" y1="11.9" x2="292.7" y2="319.7" gradientUnits="userSpaceOnUse">
      <stop offset="0" stop-color="#fff"/>
      <stop offset="1" stop-color="#949494"/>
    </linearGradient>
    <mask id="mask-10" x="2.6" y="6" width="344.7" height="334.8" maskUnits="userSpaceOnUse">
      <g class="cls-18">
        <g class="cls-155">
          <path class="cls-44" d="M2.7,136.1c-2.2-40.7,58.2-5.5,64-30.9,5-22.6-13.8-68.2,37-92.3,60.8-28.7,94.8,43.4,121,22.8,24.3-19.1,60.7-12.9,73.6-1.6,16.5,14.5-21.7,26.1-7.2,45.1,14.5,19,61,35.6,55.8,66.9-2.7,16.3-33.5,17.8-35.1,30.6-1.6,12.5,17.7,50.1-.8,58.9-19.3,9.2-43.9,7.4-33.3,55.1,10.6,47.8-6.8,67.1-46.1,33.3-39-33.5-60.4-40.4-71.7-23.1-11.6,17.9-23.5,11.5-37.6-28.3-14.4-40.5-40,1.7-50.6-25.6-10.3-26.5.2-34.8-7.2-44.4C47.7,180.3,3.6,152.7,2.7,136.1Z"/>
        </g>
      </g>
    </mask>
    <linearGradient id="linear-gradient-12" x1="105.5" y1="11.9" x2="292.7" y2="319.7" xlink:href="#linear-gradient-4"/>
    <filter id="luminosity-noclip-13" x="3" y="6.8" width="342.1" height="330.6" color-interpolation-filters="sRGB" filterUnits="userSpaceOnUse">
      <feFlood flood-color="#fff" result="bg"/>
      <feBlend in="SourceGraphic" in2="bg"/>
    </filter>
    <filter id="luminosity-noclip-14" x="3" y="-8371.5" width="342.1" height="32766" color-interpolation-filters="sRGB" filterUnits="userSpaceOnUse">
      <feFlood flood-color="#fff" result="bg"/>
      <feBlend in="SourceGraphic" in2="bg"/>
    </filter>
    <mask id="mask-13" x="3" y="-8371.5" width="342.1" height="32766" maskUnits="userSpaceOnUse"/>
    <linearGradient id="linear-gradient-13" x1="105.6" y1="12.8" x2="292.2" y2="317.4" gradientUnits="userSpaceOnUse">
      <stop offset="0" stop-color="#fff"/>
      <stop offset="1" stop-color="#989898"/>
    </linearGradient>
    <mask id="mask-12" x="3" y="6.8" width="342.1" height="330.6" maskUnits="userSpaceOnUse">
      <g class="cls-17">
        <g class="cls-157">
          <path class="cls-45" d="M3,136.1c-1.9-40.3,58.6-4.4,64.4-30.2,5-22.4-13.8-67.9,36.5-92.2,60-28.7,94,43.2,120.7,23.1,24.3-18.3,60.3-13.7,73.2-2.6,16.5,14.1-21.3,26.4-7,45.2,14.3,18.8,59.4,35.4,53.7,65.8-3,16-33.7,17.5-35.3,30.5-1.5,12.6,17.1,49.3-.8,58.1-18.9,9.3-42.9,7.8-32.6,54.3,10.2,46.8-7.2,65.7-45.4,32.6-38-32.8-59.2-39.1-70.3-22.1-11.6,17.6-23.5,11-37.3-27.8-14-39.7-39.3,1.4-50.2-25.2-10.5-25.6-.5-34.2-7.9-43.8C47.9,180.1,3.8,152.7,3,136.1Z"/>
        </g>
      </g>
    </mask>
    <linearGradient id="linear-gradient-14" x1="105.6" y1="12.8" x2="292.2" y2="317.4" xlink:href="#linear-gradient-4"/>
    <filter id="luminosity-noclip-15" x="3.3" y="7.6" width="339.4" height="326.3" color-interpolation-filters="sRGB" filterUnits="userSpaceOnUse">
      <feFlood flood-color="#fff" result="bg"/>
      <feBlend in="SourceGraphic" in2="bg"/>
    </filter>
    <filter id="luminosity-noclip-16" x="3.3" y="-8371.5" width="339.4" height="32766" color-interpolation-filters="sRGB" filterUnits="userSpaceOnUse">
      <feFlood flood-color="#fff" result="bg"/>
      <feBlend in="SourceGraphic" in2="bg"/>
    </filter>
    <mask id="mask-15" x="3.3" y="-8371.5" width="339.4" height="32766" maskUnits="userSpaceOnUse"/>
    <linearGradient id="linear-gradient-15" x1="105.8" y1="13.8" x2="291.6" y2="315.2" gradientUnits="userSpaceOnUse">
      <stop offset="0" stop-color="#fff"/>
      <stop offset="1" stop-color="#9c9c9c"/>
    </linearGradient>
    <mask id="mask-14" x="3.3" y="7.6" width="339.4" height="326.3" maskUnits="userSpaceOnUse">
      <g class="cls-20">
        <g class="cls-161">
          <path class="cls-58" d="M3.3,136c-1.5-39.9,59-3.3,64.9-29.4,5-22.2-13.8-67.7,36-92.1,59.2-28.7,93.2,43,120.4,23.4,24.2-17.5,59.8-14.4,72.8-3.5,16.4,13.8-21,26.7-6.8,45.3,14.2,18.6,57.7,35.3,51.6,64.8-3.2,15.7-34,17.2-35.5,30.4-1.5,12.7,16.6,48.5-.7,57.4-18.4,9.5-41.8,8.1-32,53.6,9.9,45.7-7.5,64.3-44.7,31.8-37-32.1-58-37.8-69-21.1-11.5,17.4-23.5,10.5-36.9-27.3-13.6-38.8-38.7,1.1-49.8-24.8-10.6-24.8-1.2-33.6-8.7-43.2C48,179.8,3.9,152.7,3.3,136Z"/>
        </g>
      </g>
    </mask>
    <linearGradient id="linear-gradient-16" x1="105.8" y1="13.8" x2="291.6" y2="315.2" xlink:href="#linear-gradient-4"/>
    <filter id="luminosity-noclip-17" x="3.6" y="8.4" width="336.8" height="322" color-interpolation-filters="sRGB" filterUnits="userSpaceOnUse">
      <feFlood flood-color="#fff" result="bg"/>
      <feBlend in="SourceGraphic" in2="bg"/>
    </filter>
    <filter id="luminosity-noclip-18" x="3.6" y="-8371.5" width="336.8" height="32766" color-interpolation-filters="sRGB" filterUnits="userSpaceOnUse">
      <feFlood flood-color="#fff" result="bg"/>
      <feBlend in="SourceGraphic" in2="bg"/>
    </filter>
    <mask id="mask-17" x="3.6" y="-8371.5" width="336.8" height="32766" maskUnits="userSpaceOnUse"/>
    <linearGradient id="linear-gradient-17" x1="105.9" y1="14.7" x2="290.9" y2="312.9" gradientUnits="userSpaceOnUse">
      <stop offset="0" stop-color="#fff"/>
      <stop offset="1" stop-color="#a0a0a0"/>
    </linearGradient>
    <mask id="mask-16" x="3.6" y="8.4" width="336.8" height="322" maskUnits="userSpaceOnUse">
      <g class="cls-16">
        <g class="cls-160">
          <path class="cls-57" d="M3.6,135.9c-1.1-39.5,59.3-2.2,65.4-28.6,4.9-21.9-13.8-67.5,35.5-91.9,58.5-28.7,92.4,42.8,120,23.7,24.2-16.7,59.3-15.2,72.4-4.5,16.4,13.5-20.7,27-6.6,45.4,14,18.4,56,35.2,49.5,63.7-3.5,15.5-34.2,17-35.7,30.3-1.4,12.9,16.1,47.7-.7,56.6-18,9.6-40.8,8.5-31.3,52.8,9.5,44.6-7.8,62.9-44.1,31.1-36-31.4-56.8-36.5-67.7-20.2-11.5,17.2-23.6,10.1-36.5-26.7-13.3-38-38,.8-49.4-24.4-10.8-23.9-1.9-33.1-9.5-42.6-16.8-21.1-60.9-47.9-61.3-64.7Z"/>
        </g>
      </g>
    </mask>
    <linearGradient id="linear-gradient-18" x1="105.9" y1="14.7" x2="290.9" y2="312.9" xlink:href="#linear-gradient-4"/>
    <filter id="luminosity-noclip-19" x="3.9" y="9.3" width="334.2" height="317.8" color-interpolation-filters="sRGB" filterUnits="userSpaceOnUse">
      <feFlood flood-color="#fff" result="bg"/>
      <feBlend in="SourceGraphic" in2="bg"/>
    </filter>
    <filter id="luminosity-noclip-20" x="3.9" y="-8371.5" width="334.2" height="32766" color-interpolation-filters="sRGB" filterUnits="userSpaceOnUse">
      <feFlood flood-color="#fff" result="bg"/>
      <feBlend in="SourceGraphic" in2="bg"/>
    </filter>
    <mask id="mask-19" x="3.9" y="-8371.5" width="334.2" height="32766" maskUnits="userSpaceOnUse"/>
    <linearGradient id="linear-gradient-19" x1="106" y1="15.7" x2="290.3" y2="310.5" gradientUnits="userSpaceOnUse">
      <stop offset="0" stop-color="#fff"/>
      <stop offset="1" stop-color="#a5a5a5"/>
    </linearGradient>
    <mask id="mask-18" x="3.9" y="9.3" width="334.2" height="317.8" maskUnits="userSpaceOnUse">
      <g class="cls-19">
        <g class="cls-158">
          <path class="cls-53" d="M3.9,135.8c-.7-39,59.7-1.1,65.9-27.9,4.9-21.7-13.9-67.3,35-91.8,57.7-28.7,91.6,42.5,119.7,24,24.1-15.9,58.8-16,72-5.5,16.3,13.1-20.4,27.3-6.5,45.5,13.9,18.2,54.3,35.1,47.4,62.7-3.8,15.2-34.5,16.7-35.9,30.2-1.3,13,15.5,46.9-.7,55.8-17.6,9.8-39.8,8.8-30.7,52,9.2,43.6-8.1,61.5-43.4,30.3-34.9-30.8-55.6-35.2-66.3-19.2-11.4,17-23.6,9.6-36.2-26.2-12.9-37.2-37.3.5-49-24-10.9-23-2.6-32.5-10.2-41.9-16.8-20.7-60.8-47.3-61.1-64.1Z"/>
        </g>
      </g>
    </mask>
    <linearGradient id="linear-gradient-20" x1="106" y1="15.7" x2="290.3" y2="310.5" xlink:href="#linear-gradient-4"/>
    <filter id="luminosity-noclip-21" x="4.2" y="10" width="331.7" height="313.6" color-interpolation-filters="sRGB" filterUnits="userSpaceOnUse">
      <feFlood flood-color="#fff" result="bg"/>
      <feBlend in="SourceGraphic" in2="bg"/>
    </filter>
    <filter id="luminosity-noclip-22" x="4.2" y="-8371.5" width="331.7" height="32766" color-interpolation-filters="sRGB" filterUnits="userSpaceOnUse">
      <feFlood flood-color="#fff" result="bg"/>
      <feBlend in="SourceGraphic" in2="bg"/>
    </filter>
    <mask id="mask-21" x="4.2" y="-8371.5" width="331.7" height="32766" maskUnits="userSpaceOnUse"/>
    <linearGradient id="linear-gradient-21" x1="106.2" y1="16.6" x2="289.5" y2="308.2" gradientUnits="userSpaceOnUse">
      <stop offset="0" stop-color="#fff"/>
      <stop offset="1" stop-color="#a9a9a9"/>
    </linearGradient>
    <mask id="mask-20" x="4.2" y="10" width="331.7" height="313.6" maskUnits="userSpaceOnUse">
      <g class="cls-13">
        <g class="cls-163">
          <path class="cls-54" d="M4.2,135.7c-.4-38.6,60.1,0,66.3-27.1,4.9-21.5-13.9-67.2,34.5-91.7,56.9-28.8,90.8,42.3,119.3,24.3,24.1-15.1,58.4-16.8,71.6-6.4,16.3,12.8-20.1,27.6-6.3,45.6,13.8,18.1,52.6,35,45.3,61.6-4.1,14.9-34.8,16.4-36.1,30.2-1.3,13.1,15,46.1-.6,55.1-17.2,9.9-38.8,9.2-30,51.3,8.8,42.5-8.5,60.1-42.7,29.6-33.9-30.1-54.3-33.9-65-18.2-11.3,16.7-23.7,9.2-35.8-25.7-12.6-36.4-36.6.2-48.5-23.7-11.1-22.1-3.3-31.9-11-41.3-16.7-20.4-60.8-46.7-60.9-63.6Z"/>
        </g>
      </g>
    </mask>
    <linearGradient id="linear-gradient-22" x1="106.2" y1="16.6" x2="289.5" y2="308.2" xlink:href="#linear-gradient-4"/>
    <filter id="luminosity-noclip-23" x="4.5" y="10.8" width="329.1" height="309.3" color-interpolation-filters="sRGB" filterUnits="userSpaceOnUse">
      <feFlood flood-color="#fff" result="bg"/>
      <feBlend in="SourceGraphic" in2="bg"/>
    </filter>
    <filter id="luminosity-noclip-24" x="4.5" y="-8371.5" width="329.1" height="32766" color-interpolation-filters="sRGB" filterUnits="userSpaceOnUse">
      <feFlood flood-color="#fff" result="bg"/>
      <feBlend in="SourceGraphic" in2="bg"/>
    </filter>
    <mask id="mask-23" x="4.5" y="-8371.5" width="329.1" height="32766" maskUnits="userSpaceOnUse"/>
    <linearGradient id="linear-gradient-23" x1="106.3" y1="17.5" x2="288.8" y2="305.8" gradientUnits="userSpaceOnUse">
      <stop offset="0" stop-color="#fff"/>
      <stop offset="1" stop-color="#adadad"/>
    </linearGradient>
    <mask id="mask-22" x="4.5" y="10.8" width="329.1" height="309.3" maskUnits="userSpaceOnUse">
      <g class="cls-14">
        <g class="cls-168">
          <path class="cls-52" d="M4.5,135.6c0-38.2,60.5,1.2,66.8-26.3,4.9-21.2-13.9-66.9,34-91.5,56.1-28.8,90,42,119,24.6,24-14.4,57.9-17.6,71.2-7.4,16.3,12.5-19.7,27.9-6.1,45.7,13.6,17.9,50.9,34.9,43.2,60.6-4.4,14.7-35.1,16.1-36.3,30.1-1.2,13.2,14.4,45.3-.6,54.3-16.8,10.1-37.8,9.5-29.4,50.5,8.5,41.4-8.8,58.7-42.1,28.8-32.9-29.4-53.1-32.6-63.6-17.2-11.3,16.5-23.7,8.7-35.5-25.2-12.2-35.5-36-.2-48.1-23.3-11.2-21.3-4-31.3-11.8-40.7-16.7-20.1-60.7-46.1-60.7-63.1Z"/>
        </g>
      </g>
    </mask>
    <linearGradient id="linear-gradient-24" x1="106.3" y1="17.5" x2="288.8" y2="305.8" xlink:href="#linear-gradient-4"/>
    <filter id="luminosity-noclip-25" x="4.8" y="11.6" width="326.5" height="305" color-interpolation-filters="sRGB" filterUnits="userSpaceOnUse">
      <feFlood flood-color="#fff" result="bg"/>
      <feBlend in="SourceGraphic" in2="bg"/>
    </filter>
    <filter id="luminosity-noclip-26" x="4.8" y="-8371.5" width="326.5" height="32766" color-interpolation-filters="sRGB" filterUnits="userSpaceOnUse">
      <feFlood flood-color="#fff" result="bg"/>
      <feBlend in="SourceGraphic" in2="bg"/>
    </filter>
    <mask id="mask-25" x="4.8" y="-8371.5" width="326.5" height="32766" maskUnits="userSpaceOnUse"/>
    <linearGradient id="linear-gradient-25" x1="106.5" y1="18.5" x2="288" y2="303.3" gradientUnits="userSpaceOnUse">
      <stop offset="0" stop-color="#fff"/>
      <stop offset="1" stop-color="#b1b1b1"/>
    </linearGradient>
    <mask id="mask-24" x="4.8" y="11.6" width="326.5" height="305" maskUnits="userSpaceOnUse">
      <g class="cls-11">
        <g class="cls-166">
          <path class="cls-59" d="M4.8,135.6c.4-37.7,60.9,2.3,67.3-25.5,4.8-21-13.9-66.7,33.5-91.4,55.4-28.8,89.1,41.8,118.7,25,23.9-13.6,57.4-18.4,70.8-8.3,16.2,12.2-19.4,28.2-5.9,45.8,13.5,17.7,49.1,34.8,41.1,59.6-4.7,14.4-35.3,15.9-36.5,30-1.1,13.4,13.9,44.5-.6,53.5-16.4,10.2-36.8,9.9-28.7,49.8,8.1,40.4-9.1,57.3-41.4,28.1-31.8-28.7-51.9-31.3-62.3-16.2-11.3,16.3-23.7,8.2-35.1-24.7-11.8-34.7-35.3-.5-47.7-22.9-11.3-20.4-4.7-30.8-12.6-40.1-16.6-19.8-60.7-45.5-60.5-62.6Z"/>
        </g>
      </g>
    </mask>
    <linearGradient id="linear-gradient-26" x1="106.5" y1="18.5" x2="288" y2="303.3" xlink:href="#linear-gradient-4"/>
    <filter id="luminosity-noclip-27" x="5.1" y="12.5" width="324" height="300.8" color-interpolation-filters="sRGB" filterUnits="userSpaceOnUse">
      <feFlood flood-color="#fff" result="bg"/>
      <feBlend in="SourceGraphic" in2="bg"/>
    </filter>
    <filter id="luminosity-noclip-28" x="5.1" y="-8371.5" width="324" height="32766" color-interpolation-filters="sRGB" filterUnits="userSpaceOnUse">
      <feFlood flood-color="#fff" result="bg"/>
      <feBlend in="SourceGraphic" in2="bg"/>
    </filter>
    <mask id="mask-27" x="5.1" y="-8371.5" width="324" height="32766" maskUnits="userSpaceOnUse"/>
    <linearGradient id="linear-gradient-27" x1="106.6" y1="19.4" x2="287.2" y2="300.8" gradientUnits="userSpaceOnUse">
      <stop offset="0" stop-color="#fff"/>
      <stop offset="1" stop-color="#b5b5b5"/>
    </linearGradient>
    <mask id="mask-26" x="5.1" y="12.5" width="324" height="300.8" maskUnits="userSpaceOnUse">
      <g class="cls-12">
        <g class="cls-178">
          <path class="cls-60" d="M5.1,135.5c.7-37.3,61.2,3.4,67.8-24.8,4.8-20.8-13.9-66.5,33-91.2,54.6-28.8,88.2,41.5,118.3,25.3,23.8-12.9,56.9-19.2,70.4-9.3,16.2,11.8-19.1,28.4-5.8,45.9,13.3,17.5,47.4,34.7,39,58.5-5,14.1-35.6,15.6-36.7,29.9-1.1,13.5,13.3,43.8-.5,52.8-16,10.4-35.8,10.2-28.1,49,7.8,39.3-9.4,55.9-40.7,27.3-30.8-28-50.7-30-61-15.3-11.2,16.1-23.8,7.8-34.7-24.2-11.6-33.9-34.6-.8-47.3-22.5-11.4-19.5-5.4-30.2-13.3-39.5-16.6-19.4-60.6-44.9-60.3-62Z"/>
        </g>
      </g>
    </mask>
    <linearGradient id="linear-gradient-28" x1="106.6" y1="19.4" x2="287.2" y2="300.8" xlink:href="#linear-gradient-4"/>
    <filter id="luminosity-noclip-29" x="5.4" y="13.3" width="321.5" height="296.5" color-interpolation-filters="sRGB" filterUnits="userSpaceOnUse">
      <feFlood flood-color="#fff" result="bg"/>
      <feBlend in="SourceGraphic" in2="bg"/>
    </filter>
    <filter id="luminosity-noclip-30" x="5.4" y="-8371.5" width="321.5" height="32766" color-interpolation-filters="sRGB" filterUnits="userSpaceOnUse">
      <feFlood flood-color="#fff" result="bg"/>
      <feBlend in="SourceGraphic" in2="bg"/>
    </filter>
    <mask id="mask-29" x="5.4" y="-8371.5" width="321.5" height="32766" maskUnits="userSpaceOnUse"/>
    <linearGradient id="linear-gradient-29" x1="106.8" y1="20.3" x2="286.3" y2="298.3" gradientUnits="userSpaceOnUse">
      <stop offset="0" stop-color="#fff"/>
      <stop offset="1" stop-color="#b9b9b9"/>
    </linearGradient>
    <mask id="mask-28" x="5.4" y="13.3" width="321.5" height="296.5" maskUnits="userSpaceOnUse">
      <g class="cls-15">
        <g class="cls-176">
          <path class="cls-64" d="M5.4,135.4c1-36.9,61.6,4.5,68.2-24,4.8-20.5-13.9-66.3,32.5-91.1,53.8-28.8,87.4,41.3,118,25.6,23.7-12.1,56.5-19.9,70-10.3,16.1,11.5-18.8,28.7-5.6,46,13.2,17.3,45.6,34.6,36.9,57.5-5.3,13.9-35.9,15.3-36.9,29.8-1,13.6,12.8,43-.5,52-15.6,10.6-34.8,10.6-27.4,48.2,7.4,38.2-9.8,54.5-40.1,26.6-29.8-27.3-49.5-28.7-59.6-14.3-11.2,15.8-23.9,7.3-34.4-23.6-11.2-33-33.9-1.1-46.9-22.1-11.5-18.6-6.1-29.6-14.1-38.9-16.5-19.1-60.6-44.3-60.1-61.5Z"/>
        </g>
      </g>
    </mask>
    <linearGradient id="linear-gradient-30" x1="106.8" y1="20.3" x2="286.3" y2="298.3" xlink:href="#linear-gradient-4"/>
    <filter id="luminosity-noclip-31" x="5.7" y="14.1" width="318.9" height="292.3" color-interpolation-filters="sRGB" filterUnits="userSpaceOnUse">
      <feFlood flood-color="#fff" result="bg"/>
      <feBlend in="SourceGraphic" in2="bg"/>
    </filter>
    <filter id="luminosity-noclip-32" x="5.7" y="-8371.5" width="318.9" height="32766" color-interpolation-filters="sRGB" filterUnits="userSpaceOnUse">
      <feFlood flood-color="#fff" result="bg"/>
      <feBlend in="SourceGraphic" in2="bg"/>
    </filter>
    <mask id="mask-31" x="5.7" y="-8371.5" width="318.9" height="32766" maskUnits="userSpaceOnUse"/>
    <linearGradient id="linear-gradient-31" x1="107" y1="21.3" x2="285.4" y2="295.8" gradientUnits="userSpaceOnUse">
      <stop offset="0" stop-color="#fff"/>
      <stop offset="1" stop-color="#bdbdbd"/>
    </linearGradient>
    <mask id="mask-30" x="5.7" y="14.1" width="318.9" height="292.3" maskUnits="userSpaceOnUse">
      <g class="cls-26">
        <g class="cls-138">
          <path class="cls-56" d="M5.7,135.3c1.4-36.5,62,5.6,68.7-23.2,4.7-20.3-13.9-66.1,31.9-91,53.1-28.8,86.5,41,117.6,25.9,23.6-11.4,56-20.7,69.6-11.2,16.1,11.2-18.4,29-5.4,46.1,13,17.1,43.8,34.5,34.8,56.4-5.6,13.6-36.1,15.1-37.2,29.7-.9,13.7,12.3,42.2-.5,51.3-15.1,10.7-33.8,10.9-26.7,47.5,7.1,37.2-10.1,53.1-39.4,25.8-28.8-26.6-48.3-27.3-58.3-13.3-11.1,15.6-23.9,6.9-34-23.1-10.8-32.2-33.2-1.4-46.5-21.7-11.6-17.8-6.8-29.1-14.9-38.2-16.5-18.8-60.5-43.7-59.9-61Z"/>
        </g>
      </g>
    </mask>
    <linearGradient id="linear-gradient-32" x1="107" y1="21.3" x2="285.4" y2="295.8" xlink:href="#linear-gradient-4"/>
    <filter id="luminosity-noclip-33" x="6" y="14.9" width="316.4" height="288" color-interpolation-filters="sRGB" filterUnits="userSpaceOnUse">
      <feFlood flood-color="#fff" result="bg"/>
      <feBlend in="SourceGraphic" in2="bg"/>
    </filter>
    <filter id="luminosity-noclip-34" x="6" y="-8371.5" width="316.4" height="32766" color-interpolation-filters="sRGB" filterUnits="userSpaceOnUse">
      <feFlood flood-color="#fff" result="bg"/>
      <feBlend in="SourceGraphic" in2="bg"/>
    </filter>
    <mask id="mask-33" x="6" y="-8371.5" width="316.4" height="32766" maskUnits="userSpaceOnUse"/>
    <linearGradient id="linear-gradient-33" x1="107.1" y1="22.2" x2="284.4" y2="293.2" gradientUnits="userSpaceOnUse">
      <stop offset="0" stop-color="#fff"/>
      <stop offset="1" stop-color="#c1c1c1"/>
    </linearGradient>
    <mask id="mask-32" x="6" y="14.9" width="316.4" height="288" maskUnits="userSpaceOnUse">
      <g class="cls-28">
        <g class="cls-142">
          <path class="cls-55" d="M6,135.2c1.7-36,62.4,6.7,69.2-22.5,4.7-20.1-14-65.8,31.4-90.8,52.3-28.8,85.6,40.7,117.3,26.2,23.5-10.7,55.5-21.5,69.2-12.2,16,10.9-18.1,29.3-5.2,46.2,12.9,16.9,42,34.4,32.7,55.4-5.9,13.4-36.4,14.8-37.4,29.7-.9,13.9,11.7,41.5-.4,50.5-14.7,10.9-32.8,11.3-26.1,46.7,6.7,36.1-10.4,51.7-38.7,25.1-27.7-25.9-47.1-26-57-12.3-11.1,15.4-24,6.4-33.7-22.6-10.5-31.4-32.4-1.7-46-21.3-11.7-16.9-7.5-28.5-15.6-37.6-16.4-18.5-60.5-43.2-59.7-60.4Z"/>
        </g>
      </g>
    </mask>
    <linearGradient id="linear-gradient-34" x1="107.1" y1="22.2" x2="284.4" y2="293.2" xlink:href="#linear-gradient-4"/>
    <filter id="luminosity-noclip-35" x="6.3" y="15.7" width="313.9" height="283.8" color-interpolation-filters="sRGB" filterUnits="userSpaceOnUse">
      <feFlood flood-color="#fff" result="bg"/>
      <feBlend in="SourceGraphic" in2="bg"/>
    </filter>
    <filter id="luminosity-noclip-36" x="6.3" y="-8371.5" width="313.9" height="32766" color-interpolation-filters="sRGB" filterUnits="userSpaceOnUse">
      <feFlood flood-color="#fff" result="bg"/>
      <feBlend in="SourceGraphic" in2="bg"/>
    </filter>
    <mask id="mask-35" x="6.3" y="-8371.5" width="313.9" height="32766" maskUnits="userSpaceOnUse"/>
    <linearGradient id="linear-gradient-35" x1="107.3" y1="23.1" x2="283.4" y2="290.6" gradientUnits="userSpaceOnUse">
      <stop offset="0" stop-color="#fff"/>
      <stop offset="1" stop-color="#c5c5c5"/>
    </linearGradient>
    <mask id="mask-34" x="6.3" y="15.7" width="313.9" height="283.8" maskUnits="userSpaceOnUse">
      <g class="cls-27">
        <g class="cls-139">
          <path class="cls-61" d="M6.3,135.1c2-35.6,62.7,7.8,69.6-21.7,4.7-19.9-14-65.6,30.9-90.7,51.5-28.8,84.7,40.3,117,26.5,23.4-10,55-22.3,68.8-13.1,16,10.6-17.8,29.6-5,46.3,12.8,16.7,40.2,34.2,30.6,54.3-6.2,13.1-36.7,14.5-37.6,29.6-.8,14,11.2,40.7-.4,49.7-14.3,11.1-31.8,11.6-25.4,45.9,6.4,35-10.7,50.3-38.1,24.4-26.7-25.2-45.9-24.7-55.6-11.3-11,15.2-24,6-33.3-22.1-10.1-30.5-31.7-2-45.6-20.9-11.8-16-8.2-27.9-16.4-37-16.3-18.1-60.5-42.6-59.5-59.9Z"/>
        </g>
      </g>
    </mask>
    <linearGradient id="linear-gradient-36" x1="107.3" y1="23.1" x2="283.4" y2="290.6" xlink:href="#linear-gradient-4"/>
    <filter id="luminosity-noclip-37" x="6.6" y="16.5" width="311.4" height="279.5" color-interpolation-filters="sRGB" filterUnits="userSpaceOnUse">
      <feFlood flood-color="#fff" result="bg"/>
      <feBlend in="SourceGraphic" in2="bg"/>
    </filter>
    <filter id="luminosity-noclip-38" x="6.6" y="-8371.5" width="311.4" height="32766" color-interpolation-filters="sRGB" filterUnits="userSpaceOnUse">
      <feFlood flood-color="#fff" result="bg"/>
      <feBlend in="SourceGraphic" in2="bg"/>
    </filter>
    <mask id="mask-37" x="6.6" y="-8371.5" width="311.4" height="32766" maskUnits="userSpaceOnUse"/>
    <linearGradient id="linear-gradient-37" x1="107.5" y1="24" x2="282.3" y2="287.9" gradientUnits="userSpaceOnUse">
      <stop offset="0" stop-color="#fff"/>
      <stop offset="1" stop-color="#cacaca"/>
    </linearGradient>
    <mask id="mask-36" x="6.6" y="16.5" width="311.4" height="279.5" maskUnits="userSpaceOnUse">
      <g class="cls-29">
        <g class="cls-171">
          <path class="cls-63" d="M6.6,135.1c2.4-35.2,63.1,8.9,70.1-20.9,4.6-19.6-14-65.4,30.4-90.5,50.8-28.7,83.8,40,116.6,26.8,23.2-9.3,54.5-23.1,68.4-14.1,15.9,10.3-17.5,29.9-4.9,46.4,12.6,16.6,38.4,34.1,28.5,53.3-6.6,12.8-37,14.3-37.8,29.5-.8,14.1,10.7,40-.4,49-13.9,11.3-30.8,12-24.8,45.2,6,34-11.1,48.9-37.4,23.6-25.7-24.5-44.7-23.4-54.3-10.4-11,14.9-24.1,5.5-33-21.6-9.8-29.7-31-2.3-45.2-20.5-11.8-15.2-8.9-27.4-17.2-36.4-16.3-17.8-60.4-42-59.3-59.4Z"/>
        </g>
      </g>
    </mask>
    <linearGradient id="linear-gradient-38" x1="107.5" y1="24" x2="282.3" y2="287.9" xlink:href="#linear-gradient-4"/>
    <filter id="luminosity-noclip-39" x="6.9" y="17.3" width="309" height="275.2" color-interpolation-filters="sRGB" filterUnits="userSpaceOnUse">
      <feFlood flood-color="#fff" result="bg"/>
      <feBlend in="SourceGraphic" in2="bg"/>
    </filter>
    <filter id="luminosity-noclip-40" x="6.9" y="-8371.5" width="309" height="32766" color-interpolation-filters="sRGB" filterUnits="userSpaceOnUse">
      <feFlood flood-color="#fff" result="bg"/>
      <feBlend in="SourceGraphic" in2="bg"/>
    </filter>
    <mask id="mask-39" x="6.9" y="-8371.5" width="309" height="32766" maskUnits="userSpaceOnUse"/>
    <linearGradient id="linear-gradient-39" x1="107.7" y1="24.9" x2="281.3" y2="285.3" gradientUnits="userSpaceOnUse">
      <stop offset="0" stop-color="#fff"/>
      <stop offset="1" stop-color="#cecece"/>
    </linearGradient>
    <mask id="mask-38" x="6.9" y="17.3" width="309" height="275.2" maskUnits="userSpaceOnUse">
      <g class="cls-30">
        <g class="cls-169">
          <path class="cls-62" d="M6.9,135c2.7-34.8,63.5,10,70.6-20.2,4.6-19.4-14-65.2,29.9-90.4,50-28.7,82.9,39.7,116.3,27.1,23.1-8.7,54-23.8,68-15.1,15.8,9.9-17.2,30.2-4.7,46.5,12.5,16.4,36.5,34,26.4,52.3-6.9,12.6-37.3,14-38,29.4-.7,14.2,10.2,39.3-.3,48.2-13.5,11.5-29.7,12.3-24.1,44.4,5.7,32.9-11.3,47.5-36.7,22.9-24.6-23.8-43.5-22.1-52.9-9.4-10.9,14.7-24.1,5-32.6-21.1-9.4-28.9-30.2-2.6-44.8-20.2-11.9-14.3-9.6-26.8-17.9-35.8-16.2-17.5-60.4-41.4-59.1-58.8Z"/>
        </g>
      </g>
    </mask>
    <linearGradient id="linear-gradient-40" x1="107.7" y1="24.9" x2="281.3" y2="285.3" xlink:href="#linear-gradient-4"/>
    <filter id="luminosity-noclip-41" x="7.2" y="18.1" width="306.5" height="271" color-interpolation-filters="sRGB" filterUnits="userSpaceOnUse">
      <feFlood flood-color="#fff" result="bg"/>
      <feBlend in="SourceGraphic" in2="bg"/>
    </filter>
    <filter id="luminosity-noclip-42" x="7.2" y="-8371.5" width="306.5" height="32766" color-interpolation-filters="sRGB" filterUnits="userSpaceOnUse">
      <feFlood flood-color="#fff" result="bg"/>
      <feBlend in="SourceGraphic" in2="bg"/>
    </filter>
    <mask id="mask-41" x="7.2" y="-8371.5" width="306.5" height="32766" maskUnits="userSpaceOnUse"/>
    <linearGradient id="linear-gradient-41" x1="107.8" y1="25.8" x2="280.1" y2="282.5" gradientUnits="userSpaceOnUse">
      <stop offset="0" stop-color="#fff"/>
      <stop offset="1" stop-color="#d2d2d2"/>
    </linearGradient>
    <mask id="mask-40" x="7.2" y="18.1" width="306.5" height="271" maskUnits="userSpaceOnUse">
      <g class="cls-23">
        <g class="cls-136">
          <path class="cls-65" d="M7.2,134.9c3-34.3,63.8,11.1,71.1-19.4,4.5-19.2-14-65,29.4-90.3,49.2-28.7,82,39.3,115.9,27.5,23-8,53.5-24.6,67.6-16,15.8,9.6-16.8,30.5-4.5,46.6,12.3,16.2,34.7,33.9,24.3,51.2-7.3,12.3-37.5,13.7-38.2,29.3-.7,14.4,9.6,38.5-.3,47.5-13,11.7-28.7,12.7-23.5,43.7,5.3,31.8-11.6,46.1-36.1,22.1-23.6-23.1-42.3-20.8-51.6-8.4-10.9,14.5-24.1,4.6-32.2-20.5-9.1-28.1-29.5-3-44.4-19.8-11.9-13.4-10.3-26.2-18.7-35.2-16.2-17.2-60.4-40.8-58.9-58.3Z"/>
        </g>
      </g>
    </mask>
    <linearGradient id="linear-gradient-42" x1="107.8" y1="25.8" x2="280.1" y2="282.5" xlink:href="#linear-gradient-4"/>
    <filter id="luminosity-noclip-43" x="7.4" y="18.9" width="304.1" height="266.7" color-interpolation-filters="sRGB" filterUnits="userSpaceOnUse">
      <feFlood flood-color="#fff" result="bg"/>
      <feBlend in="SourceGraphic" in2="bg"/>
    </filter>
    <filter id="luminosity-noclip-44" x="7.4" y="-8371.5" width="304.1" height="32766" color-interpolation-filters="sRGB" filterUnits="userSpaceOnUse">
      <feFlood flood-color="#fff" result="bg"/>
      <feBlend in="SourceGraphic" in2="bg"/>
    </filter>
    <mask id="mask-43" x="7.4" y="-8371.5" width="304.1" height="32766" maskUnits="userSpaceOnUse"/>
    <linearGradient id="linear-gradient-43" x1="108" y1="26.7" x2="279" y2="279.8" gradientUnits="userSpaceOnUse">
      <stop offset="0" stop-color="#fff"/>
      <stop offset="1" stop-color="#d6d6d6"/>
    </linearGradient>
    <mask id="mask-42" x="7.4" y="18.9" width="304.1" height="266.7" maskUnits="userSpaceOnUse">
      <g class="cls-21">
        <g class="cls-145">
          <path class="cls-66" d="M7.5,134.8c3.3-33.9,64.1,12.2,71.5-18.6,4.5-19-14-64.7,28.9-90.1,48.5-28.7,81.1,38.9,115.6,27.8,22.8-7.4,53.1-25.4,67.2-17,15.7,9.3-16.5,30.7-4.3,46.7,12.2,16,32.8,33.7,22.2,50.2-7.7,12-37.8,13.5-38.4,29.2-.6,14.5,9.1,37.8-.3,46.7-12.6,11.9-27.7,13-22.8,42.9,5,30.7-12,44.7-35.4,21.4-22.6-22.4-41.1-19.5-50.3-7.4-10.8,14.2-24.2,4.1-31.9-20-8.7-27.2-28.7-3.3-44-19.4-12-12.6-11-25.7-19.5-34.5-16.1-16.9-60.3-40.2-58.6-57.8Z"/>
        </g>
      </g>
    </mask>
    <linearGradient id="linear-gradient-44" x1="108" y1="26.7" x2="279" y2="279.8" xlink:href="#linear-gradient-4"/>
    <filter id="luminosity-noclip-45" x="7.7" y="19.7" width="301.7" height="262.5" color-interpolation-filters="sRGB" filterUnits="userSpaceOnUse">
      <feFlood flood-color="#fff" result="bg"/>
      <feBlend in="SourceGraphic" in2="bg"/>
    </filter>
    <filter id="luminosity-noclip-46" x="7.7" y="-8371.5" width="301.7" height="32766" color-interpolation-filters="sRGB" filterUnits="userSpaceOnUse">
      <feFlood flood-color="#fff" result="bg"/>
      <feBlend in="SourceGraphic" in2="bg"/>
    </filter>
    <mask id="mask-45" x="7.7" y="-8371.5" width="301.7" height="32766" maskUnits="userSpaceOnUse"/>
    <linearGradient id="linear-gradient-45" x1="108.2" y1="27.7" x2="277.7" y2="277" gradientUnits="userSpaceOnUse">
      <stop offset="0" stop-color="#fff"/>
      <stop offset="1" stop-color="#dadada"/>
    </linearGradient>
    <mask id="mask-44" x="7.7" y="19.7" width="301.7" height="262.5" maskUnits="userSpaceOnUse">
      <g class="cls-24">
        <g class="cls-148">
          <path class="cls-68" d="M7.8,134.7c3.6-33.5,64.5,13.3,72-17.9,4.4-18.7-14-64.5,28.4-90,47.7-28.7,80.2,38.5,115.2,28.1,22.7-6.7,52.6-26.2,66.8-17.9,15.7,9-16.2,31-4.2,46.8,12,15.8,30.9,33.6,20.2,49.1-8.1,11.7-38.1,13.2-38.6,29.2-.6,14.6,8.6,37.1-.2,45.9-12.1,12.2-26.7,13.4-22.2,42.1,4.6,29.7-12.3,43.3-34.8,20.6-21.5-21.7-39.9-18.2-48.9-6.4-10.8,14-24.2,3.7-31.5-19.5-8.3-26.4-27.9-3.7-43.6-19-12-11.8-11.7-25.1-20.2-33.9-16-16.6-60.3-39.6-58.4-57.3Z"/>
        </g>
      </g>
    </mask>
    <linearGradient id="linear-gradient-46" x1="108.2" y1="27.7" x2="277.7" y2="277" xlink:href="#linear-gradient-4"/>
    <filter id="luminosity-noclip-47" x="8" y="20.5" width="299.3" height="258.2" color-interpolation-filters="sRGB" filterUnits="userSpaceOnUse">
      <feFlood flood-color="#fff" result="bg"/>
      <feBlend in="SourceGraphic" in2="bg"/>
    </filter>
    <filter id="luminosity-noclip-48" x="8" y="-8371.5" width="299.3" height="32766" color-interpolation-filters="sRGB" filterUnits="userSpaceOnUse">
      <feFlood flood-color="#fff" result="bg"/>
      <feBlend in="SourceGraphic" in2="bg"/>
    </filter>
    <mask id="mask-47" x="8" y="-8371.5" width="299.3" height="32766" maskUnits="userSpaceOnUse"/>
    <linearGradient id="linear-gradient-47" x1="108.4" y1="28.6" x2="276.5" y2="274.2" gradientUnits="userSpaceOnUse">
      <stop offset="0" stop-color="#fff"/>
      <stop offset="1" stop-color="#dedede"/>
    </linearGradient>
    <mask id="mask-46" x="8" y="20.5" width="299.3" height="258.2" maskUnits="userSpaceOnUse">
      <g class="cls-25">
        <g class="cls-174">
          <path class="cls-69" d="M8.1,134.7c3.9-33.1,64.9,14.4,72.5-17.1,4.4-18.5-14-64.3,27.9-89.8,47-28.7,79.3,38,114.9,28.4,22.5-6.1,52.1-26.9,66.4-18.9,15.6,8.7-15.9,31.3-4,46.9,11.9,15.6,29,33.4,18.1,48.1-8.5,11.4-38.3,12.9-38.8,29.1-.5,14.7,8.1,36.4-.2,45.2-11.7,12.4-25.7,13.7-21.5,41.4,4.3,28.6-12.6,41.9-34.1,19.9-20.5-21-38.7-16.9-47.6-5.5-10.8,13.8-24.2,3.2-31.2-19-8-25.6-27.1-4-43.1-18.6-12-10.9-12.4-24.5-21-33.3-16-16.3-60.3-39-58.2-56.7Z"/>
        </g>
      </g>
    </mask>
    <linearGradient id="linear-gradient-48" x1="108.4" y1="28.6" x2="276.5" y2="274.2" xlink:href="#linear-gradient-4"/>
    <filter id="luminosity-noclip-49" x="8.3" y="21.3" width="297" height="254" color-interpolation-filters="sRGB" filterUnits="userSpaceOnUse">
      <feFlood flood-color="#fff" result="bg"/>
      <feBlend in="SourceGraphic" in2="bg"/>
    </filter>
    <filter id="luminosity-noclip-50" x="8.3" y="-8371.5" width="297" height="32766" color-interpolation-filters="sRGB" filterUnits="userSpaceOnUse">
      <feFlood flood-color="#fff" result="bg"/>
      <feBlend in="SourceGraphic" in2="bg"/>
    </filter>
    <mask id="mask-49" x="8.3" y="-8371.5" width="297" height="32766" maskUnits="userSpaceOnUse"/>
    <linearGradient id="linear-gradient-49" x1="108.6" y1="29.5" x2="275.2" y2="271.4" gradientUnits="userSpaceOnUse">
      <stop offset="0" stop-color="#fff"/>
      <stop offset="1" stop-color="#e2e2e2"/>
    </linearGradient>
    <mask id="mask-48" x="8.3" y="21.3" width="297" height="254" maskUnits="userSpaceOnUse">
      <g class="cls-22">
        <g class="cls-172">
          <path class="cls-67" d="M8.4,134.6c4.2-32.6,65.2,15.5,72.9-16.3,4.4-18.3-14-64,27.4-89.7C154.9-.1,187.1,66.1,223.3,57.3c22.4-5.5,51.6-27.7,66-19.9,15.6,8.4-15.6,31.6-3.8,47,11.8,15.4,27,33.2,16,47-8.9,11.1-38.6,12.6-39,29-.4,14.9,7.6,35.6-.2,44.4-11.2,12.6-24.7,14.1-20.9,40.6,3.9,27.5-12.9,40.5-33.4,19.1-19.5-20.3-37.5-15.6-46.3-4.5-10.7,13.6-24.3,2.7-30.8-18.5-7.6-24.8-26.3-4.4-42.7-18.2-12-10.1-13.1-24-21.8-32.7-15.9-16-60.3-38.4-58-56.2Z"/>
        </g>
      </g>
    </mask>
    <linearGradient id="linear-gradient-50" x1="108.6" y1="29.5" x2="275.2" y2="271.4" xlink:href="#linear-gradient-4"/>
    <filter id="luminosity-noclip-51" x="8.6" y="22.1" width="294.7" height="249.7" color-interpolation-filters="sRGB" filterUnits="userSpaceOnUse">
      <feFlood flood-color="#fff" result="bg"/>
      <feBlend in="SourceGraphic" in2="bg"/>
    </filter>
    <filter id="luminosity-noclip-52" x="8.6" y="-8371.5" width="294.7" height="32766" color-interpolation-filters="sRGB" filterUnits="userSpaceOnUse">
      <feFlood flood-color="#fff" result="bg"/>
      <feBlend in="SourceGraphic" in2="bg"/>
    </filter>
    <mask id="mask-51" x="8.6" y="-8371.5" width="294.7" height="32766" maskUnits="userSpaceOnUse"/>
    <linearGradient id="linear-gradient-51" x1="108.8" y1="30.4" x2="273.8" y2="268.5" gradientUnits="userSpaceOnUse">
      <stop offset="0" stop-color="#fff"/>
      <stop offset="1" stop-color="#e6e6e6"/>
    </linearGradient>
    <mask id="mask-50" x="8.6" y="22.1" width="294.7" height="249.7" maskUnits="userSpaceOnUse">
      <g class="cls-10">
        <g class="cls-129">
          <path class="cls-49" d="M8.7,134.5c4.5-32.2,65.6,16.6,73.4-15.6,4.3-18.1-13.9-63.7,26.9-89.6,45.5-28.5,77.5,37.1,114.2,29,22.3-4.9,51.1-28.5,65.6-20.8,15.5,8.1-15.2,31.9-3.6,47.1,11.6,15.2,25.1,33,13.9,46-9.3,10.8-38.9,12.4-39.3,28.9-.4,15,7.1,34.9-.1,43.7-10.7,12.9-23.7,14.4-20.2,39.9,3.6,26.5-13.3,39.1-32.8,18.4-18.5-19.6-36.3-14.3-44.9-3.5-10.7,13.3-24.3,2.3-30.4-18-7.2-23.9-25.5-4.8-42.3-17.8-12.1-9.3-13.8-23.4-22.6-32.1-15.8-15.6-60.3-37.8-57.8-55.7Z"/>
        </g>
      </g>
    </mask>
    <linearGradient id="linear-gradient-52" x1="108.8" y1="30.4" x2="273.8" y2="268.5" xlink:href="#linear-gradient-4"/>
    <filter id="luminosity-noclip-53" x="8.9" y="22.9" width="292.5" height="245.5" color-interpolation-filters="sRGB" filterUnits="userSpaceOnUse">
      <feFlood flood-color="#fff" result="bg"/>
      <feBlend in="SourceGraphic" in2="bg"/>
    </filter>
    <filter id="luminosity-noclip-54" x="8.9" y="-8371.5" width="292.5" height="32766" color-interpolation-filters="sRGB" filterUnits="userSpaceOnUse">
      <feFlood flood-color="#fff" result="bg"/>
      <feBlend in="SourceGraphic" in2="bg"/>
    </filter>
    <mask id="mask-53" x="8.9" y="-8371.5" width="292.5" height="32766" maskUnits="userSpaceOnUse"/>
    <linearGradient id="linear-gradient-53" x1="109" y1="31.2" x2="272.4" y2="265.6" gradientUnits="userSpaceOnUse">
      <stop offset="0" stop-color="#fff"/>
      <stop offset="1" stop-color="#eaeaea"/>
    </linearGradient>
    <mask id="mask-52" x="8.9" y="22.9" width="292.5" height="245.5" maskUnits="userSpaceOnUse">
      <g class="cls-8">
        <g class="cls-130">
          <path class="cls-47" d="M9,134.4c4.7-31.8,66,17.7,73.9-14.8,4.3-17.8-13.9-63.5,26.4-89.4,44.7-28.5,76.5,36.6,113.9,29.3,22.1-4.3,50.6-29.2,65.2-21.8,15.4,7.8-14.9,32.2-3.4,47.2,11.5,15,23.1,32.8,11.8,45-9.7,10.4-39.2,12.1-39.5,28.8-.3,15.1,6.7,34.2-.1,42.9-10.2,13.1-22.7,14.8-19.5,39.1,3.2,25.4-13.6,37.7-32.1,17.6-17.5-18.9-35.1-13-43.6-2.5-10.6,13.1-24.4,1.8-30.1-17.4-6.9-23.1-24.7-5.2-41.9-17.4-12.1-8.6-14.5-22.9-23.3-31.5-15.8-15.3-60.3-37.2-57.6-55.1Z"/>
        </g>
      </g>
    </mask>
    <linearGradient id="linear-gradient-54" x1="109" y1="31.2" x2="272.4" y2="265.6" xlink:href="#linear-gradient-4"/>
    <filter id="luminosity-noclip-55" x="9.2" y="23.7" width="290.3" height="241.3" color-interpolation-filters="sRGB" filterUnits="userSpaceOnUse">
      <feFlood flood-color="#fff" result="bg"/>
      <feBlend in="SourceGraphic" in2="bg"/>
    </filter>
    <filter id="luminosity-noclip-56" x="9.2" y="-8371.5" width="290.3" height="32766" color-interpolation-filters="sRGB" filterUnits="userSpaceOnUse">
      <feFlood flood-color="#fff" result="bg"/>
      <feBlend in="SourceGraphic" in2="bg"/>
    </filter>
    <mask id="mask-55" x="9.2" y="-8371.5" width="290.3" height="32766" maskUnits="userSpaceOnUse"/>
    <linearGradient id="linear-gradient-55" x1="109.2" y1="32.1" x2="271" y2="262.7" gradientUnits="userSpaceOnUse">
      <stop offset="0" stop-color="#fff"/>
      <stop offset="1" stop-color="#efefef"/>
    </linearGradient>
    <mask id="mask-54" x="9.2" y="23.7" width="290.3" height="241.3" maskUnits="userSpaceOnUse">
      <g class="cls-7">
        <g class="cls-132">
          <path class="cls-48" d="M9.3,134.3c5-31.4,66.4,18.8,74.4-14,4.3-17.6-14-63.3,25.9-89.3,44-28.5,75.6,36,113.5,29.7,22-3.7,50.1-30,64.8-22.7,15.4,7.5-14.6,32.5-3.3,47.3,11.3,14.9,21.2,32.5,9.7,43.9-10.2,10-39.4,11.8-39.7,28.8-.2,15.2,6.2,33.5,0,42.1-9.7,13.4-21.7,15.1-18.9,38.3,2.9,24.3-14,36.3-31.4,16.9-16.5-18.2-33.9-11.7-42.3-1.5-10.6,12.8-24.4,1.3-29.7-16.9-6.5-22.3-23.8-5.7-41.5-17.1-12.1-7.8-15.2-22.3-24.1-30.8-15.7-15-60.3-36.7-57.4-54.6Z"/>
        </g>
      </g>
    </mask>
    <linearGradient id="linear-gradient-56" x1="109.2" y1="32.1" x2="271" y2="262.7" xlink:href="#linear-gradient-4"/>
    <filter id="luminosity-noclip-57" x="9.4" y="24.5" width="288.2" height="237" color-interpolation-filters="sRGB" filterUnits="userSpaceOnUse">
      <feFlood flood-color="#fff" result="bg"/>
      <feBlend in="SourceGraphic" in2="bg"/>
    </filter>
    <filter id="luminosity-noclip-58" x="9.4" y="-8371.5" width="288.2" height="32766" color-interpolation-filters="sRGB" filterUnits="userSpaceOnUse">
      <feFlood flood-color="#fff" result="bg"/>
      <feBlend in="SourceGraphic" in2="bg"/>
    </filter>
    <mask id="mask-57" x="9.4" y="-8371.5" width="288.2" height="32766" maskUnits="userSpaceOnUse"/>
    <linearGradient id="linear-gradient-57" x1="109.4" y1="33" x2="269.5" y2="259.8" gradientUnits="userSpaceOnUse">
      <stop offset="0" stop-color="#fff"/>
      <stop offset="1" stop-color="#f3f3f3"/>
    </linearGradient>
    <mask id="mask-56" x="9.4" y="24.5" width="288.2" height="237" maskUnits="userSpaceOnUse">
      <g class="cls-6">
        <g class="cls-143">
          <path class="cls-51" d="M9.6,134.2c5.3-31,66.7,19.9,74.8-13.3,4.2-17.4-14-63.1,25.4-89.1,43.2-28.5,74.7,35.5,113.2,30,21.9-3.1,49.6-30.7,64.4-23.7,15.3,7.2-14.3,32.8-3.1,47.4,11.2,14.7,19.2,32.3,7.6,42.9-10.6,9.6-39.7,11.6-39.9,28.7-.2,15.4,5.7,32.8,0,41.4-9.2,13.6-20.7,15.5-18.2,37.6,2.5,23.3-14.3,34.9-30.8,16.1-15.4-17.5-32.7-10.4-40.9-.5-10.6,12.6-24.4.9-29.4-16.4-6.1-21.5-23-6.1-41.1-16.7-12.1-7-15.9-21.7-24.9-30.2-15.6-14.7-60.3-36.1-57.2-54.1Z"/>
        </g>
      </g>
    </mask>
    <linearGradient id="linear-gradient-58" x1="109.4" y1="33" x2="269.5" y2="259.8" xlink:href="#linear-gradient-4"/>
    <filter id="luminosity-noclip-59" x="9.7" y="25.3" width="286.2" height="232.8" color-interpolation-filters="sRGB" filterUnits="userSpaceOnUse">
      <feFlood flood-color="#fff" result="bg"/>
      <feBlend in="SourceGraphic" in2="bg"/>
    </filter>
    <filter id="luminosity-noclip-60" x="9.7" y="-8371.5" width="286.2" height="32766" color-interpolation-filters="sRGB" filterUnits="userSpaceOnUse">
      <feFlood flood-color="#fff" result="bg"/>
      <feBlend in="SourceGraphic" in2="bg"/>
    </filter>
    <mask id="mask-59" x="9.7" y="-8371.5" width="286.2" height="32766" maskUnits="userSpaceOnUse"/>
    <linearGradient id="linear-gradient-59" x1="109.6" y1="33.9" x2="268" y2="256.8" gradientUnits="userSpaceOnUse">
      <stop offset="0" stop-color="#fff"/>
      <stop offset="1" stop-color="#f7f7f7"/>
    </linearGradient>
    <mask id="mask-58" x="9.7" y="25.3" width="286.2" height="232.8" maskUnits="userSpaceOnUse">
      <g class="cls-9">
        <g class="cls-137">
          <path class="cls-50" d="M9.9,134.2c5.5-30.6,67.1,21,75.3-12.5,4.2-17.2-14-62.8,24.9-89,42.4-28.5,73.8,34.9,112.9,30.3,21.8-2.6,49.1-31.5,64-24.7,15.2,7-13.9,33.1-2.9,47.5,11,14.5,17.3,32,5.5,41.8-11.1,9.2-40,11.3-40.1,28.6-.1,15.5,5.3,32.1,0,40.6-8.7,13.9-19.7,15.8-17.6,36.8,2.2,22.2-14.6,33.5-30.1,15.4-14.4-16.8-31.5-9.1-39.6.4-10.5,12.4-24.4.4-29-15.9-5.7-20.6-22.1-6.6-40.6-16.3-12.1-6.3-16.5-21.2-25.6-29.6-15.5-14.4-60.3-35.5-57-53.5Z"/>
        </g>
      </g>
    </mask>
    <linearGradient id="linear-gradient-60" x1="109.6" y1="33.9" x2="268" y2="256.8" xlink:href="#linear-gradient-4"/>
    <filter id="luminosity-noclip-61" x="10" y="26" width="284.3" height="228.6" color-interpolation-filters="sRGB" filterUnits="userSpaceOnUse">
      <feFlood flood-color="#fff" result="bg"/>
      <feBlend in="SourceGraphic" in2="bg"/>
    </filter>
    <filter id="luminosity-noclip-62" x="10" y="-8371.5" width="284.3" height="32766" color-interpolation-filters="sRGB" filterUnits="userSpaceOnUse">
      <feFlood flood-color="#fff" result="bg"/>
      <feBlend in="SourceGraphic" in2="bg"/>
    </filter>
    <mask id="mask-61" x="10" y="-8371.5" width="284.3" height="32766" maskUnits="userSpaceOnUse"/>
    <linearGradient id="linear-gradient-61" x1="109.8" y1="34.8" x2="266.4" y2="253.8" gradientUnits="userSpaceOnUse">
      <stop offset="0" stop-color="#fff"/>
      <stop offset="1" stop-color="#fbfbfb"/>
    </linearGradient>
    <mask id="mask-60" x="10" y="26" width="284.3" height="228.6" maskUnits="userSpaceOnUse">
      <g class="cls-5">
        <g class="cls-134">
          <path class="cls-46" d="M10.2,134.1c5.8-30.1,67.5,22.1,75.8-11.7,4.1-16.9-14-62.6,24.3-88.9,41.7-28.5,72.9,34.3,112.5,30.6,21.7-2,48.6-32.2,63.6-25.6,15.2,6.7-13.6,33.3-2.7,47.6,10.9,14.3,15.4,31.7,3.4,40.8-11.6,8.8-40.2,11-40.3,28.5,0,15.6,4.8,31.4,0,39.9-8.1,14.2-18.6,16.2-16.9,36.1,1.8,21.1-14.9,32.1-29.4,14.6-13.4-16.1-30.3-7.8-38.2,1.4-10.5,12.1-24.5,0-28.7-15.4-5.4-19.8-21.3-7.2-40.2-15.9-12.1-5.6-17.2-20.6-26.4-29-15.4-14.2-60.3-34.9-56.8-53Z"/>
        </g>
      </g>
    </mask>
    <linearGradient id="linear-gradient-62" x1="109.8" y1="34.8" x2="266.4" y2="253.8" xlink:href="#linear-gradient-4"/>
    <linearGradient id="linear-gradient-63" x1="110" y1="35.6" x2="264.8" y2="250.8" xlink:href="#linear-gradient-2"/>
  </defs>
  <!-- Generator: Adobe Illustrator 28.6.0, SVG Export Plug-In . SVG Version: 1.2.0 Build 709)  -->
  <g>
    <g id="Layer_1">
      <g class="cls-118">
        <g class="cls-119">
          <g class="cls-1">
            <path class="cls-121" d="M1.2,136.5c-4.3-42.8,56.4-11,61.6-34.8,5.2-23.7-13.8-69.3,39.5-93,64.6-28.8,98.5,44.5,122.8,21.2,24.2-23.3,63.1-8.9,75.6,3.2,16.7,16.1-23.3,24.7-8.1,44.6,15.2,19.9,69.2,36.2,66.3,72.1-1.4,17.7-32.1,19.1-34,31-1.9,11.9,20.4,54.1-.9,62.7-21.4,8.5-48.9,5.7-36.6,58.9,12.3,53.2-5.2,74.1-49.4,37-44.2-37-66.5-47-78.3-28-11.9,19-23.3,13.8-39.4-30.9-16.1-44.6-43.2,3.3-52.7-27.5-9.5-30.9,3.7-37.7-3.3-47.5C47.1,181.7,2.8,152.9,1.2,136.5Z"/>
          </g>
          <g class="cls-73">
            <path class="cls-84" d="M1.5,136.5c-3.9-42.4,56.8-9.9,62.1-34,5.2-23.5-13.8-69.1,39-92.9,63.8-28.8,97.8,44.2,122.4,21.5,24.3-22.4,62.6-9.7,75.2,2.2,16.6,15.8-22.9,25-7.9,44.7,15.1,19.8,67.6,36.1,64.2,71-1.7,17.4-32.4,18.8-34.2,30.9-1.8,12,19.9,53.3-.9,61.9-20.9,8.7-47.9,6-35.9,58.1,12,52.1-5.5,72.7-48.7,36.3-43.1-36.3-65.3-45.7-77-27-11.8,18.8-23.3,13.3-39.1-30.3-15.8-43.8-42.6,3-52.3-27.2-9.7-30,3.1-37.1-4.1-46.9C47.3,181.4,3,152.8,1.5,136.5Z"/>
          </g>
          <g class="cls-75">
            <path class="cls-83" d="M1.8,136.4c-3.4-42,57.1-8.8,62.6-33.2,5.2-23.3-13.8-68.8,38.5-92.8,63.1-28.8,97.1,44,122.1,21.8,24.3-21.6,62.1-10.5,74.8,1.3,16.6,15.5-22.6,25.3-7.7,44.8,14.9,19.6,65.9,35.9,62.1,70-1.9,17.2-32.6,18.6-34.4,30.8-1.8,12.1,19.3,52.5-.9,61.2-20.5,8.8-46.9,6.4-35.3,57.4,11.6,51-5.9,71.3-48.1,35.5-42.1-35.6-64.1-44.4-75.7-26.1-11.8,18.5-23.3,12.8-38.7-29.8-15.4-43-41.9,2.7-51.9-26.8-9.8-29.1,2.3-36.5-4.9-46.3C47.4,181.2,3.2,152.8,1.8,136.4Z"/>
          </g>
          <g class="cls-78">
            <path class="cls-82" d="M2.1,136.3c-3-41.6,57.5-7.7,63-32.5,5.1-23.1-13.8-68.6,38-92.6,62.3-28.8,96.3,43.8,121.7,22.1,24.3-20.8,61.7-11.3,74.4.3,16.6,15.1-22.3,25.6-7.5,44.9,14.8,19.4,64.3,35.8,60,68.9-2.2,16.9-32.9,18.3-34.6,30.7-1.7,12.2,18.8,51.7-.9,60.4-20.1,8.9-45.9,6.7-34.6,56.6,11.3,50-6.2,69.9-47.4,34.8-41.1-34.9-62.9-43.1-74.3-25.1-11.7,18.3-23.4,12.4-38.3-29.3-15.1-42.2-41.3,2.3-51.5-26.4-10-28.3,1.6-35.9-5.6-45.6C47.5,180.9,3.3,152.8,2.1,136.3Z"/>
          </g>
          <g class="cls-81">
            <path class="cls-99" d="M2.4,136.2c-2.6-41.1,57.9-6.6,63.5-31.7,5.1-22.8-13.8-68.4,37.5-92.5,61.5-28.7,95.6,43.6,121.4,22.4,24.3-19.9,61.2-12.1,74-.7,16.5,14.8-22,25.8-7.4,45,14.6,19.2,62.7,35.7,57.9,67.9-2.5,16.6-33.2,18-34.8,30.6-1.7,12.4,18.2,50.9-.8,59.6-19.7,9.1-44.9,7.1-33.9,55.8,10.9,48.9-6.5,68.5-46.7,34.1-40.1-34.2-61.7-41.8-73-24.1-11.7,18.1-23.4,11.9-38-28.8-14.7-41.3-40.6,2-51-26-10.2-27.4.9-35.4-6.4-45C47.6,180.6,3.5,152.8,2.4,136.2Z"/>
          </g>
          <g class="cls-152">
            <path class="cls-98" d="M2.7,136.1c-2.2-40.7,58.2-5.5,64-30.9,5-22.6-13.8-68.2,37-92.3,60.8-28.7,94.8,43.4,121,22.8,24.3-19.1,60.7-12.9,73.6-1.6,16.5,14.5-21.7,26.1-7.2,45.1,14.5,19,61,35.6,55.8,66.9-2.7,16.3-33.5,17.8-35.1,30.6-1.6,12.5,17.7,50.1-.8,58.9-19.3,9.2-43.9,7.4-33.3,55.1,10.6,47.8-6.8,67.1-46.1,33.3-39-33.5-60.4-40.4-71.7-23.1-11.6,17.9-23.5,11.5-37.6-28.3-14.4-40.5-40,1.7-50.6-25.6-10.3-26.5.2-34.8-7.2-44.4C47.7,180.3,3.6,152.7,2.7,136.1Z"/>
          </g>
          <g class="cls-159">
            <path class="cls-112" d="M3,136.1c-1.9-40.3,58.6-4.4,64.4-30.2,5-22.4-13.8-67.9,36.5-92.2,60-28.7,94,43.2,120.7,23.1,24.3-18.3,60.3-13.7,73.2-2.6,16.5,14.1-21.3,26.4-7,45.2,14.3,18.8,59.4,35.4,53.7,65.8-3,16-33.7,17.5-35.3,30.5-1.5,12.6,17.1,49.3-.8,58.1-18.9,9.3-42.9,7.8-32.6,54.3,10.2,46.8-7.2,65.7-45.4,32.6-38-32.8-59.2-39.1-70.3-22.1-11.6,17.6-23.5,11-37.3-27.8-14-39.7-39.3,1.4-50.2-25.2-10.5-25.6-.5-34.2-7.9-43.8C47.9,180.1,3.8,152.7,3,136.1Z"/>
          </g>
          <g class="cls-153">
            <path class="cls-111" d="M3.3,136c-1.5-39.9,59-3.3,64.9-29.4,5-22.2-13.8-67.7,36-92.1,59.2-28.7,93.2,43,120.4,23.4,24.2-17.5,59.8-14.4,72.8-3.5,16.4,13.8-21,26.7-6.8,45.3,14.2,18.6,57.7,35.3,51.6,64.8-3.2,15.7-34,17.2-35.5,30.4-1.5,12.7,16.6,48.5-.7,57.4-18.4,9.5-41.8,8.1-32,53.6,9.9,45.7-7.5,64.3-44.7,31.8-37-32.1-58-37.8-69-21.1-11.5,17.4-23.5,10.5-36.9-27.3-13.6-38.8-38.7,1.1-49.8-24.8-10.6-24.8-1.2-33.6-8.7-43.2C48,179.8,3.9,152.7,3.3,136Z"/>
          </g>
          <g class="cls-156">
            <path class="cls-103" d="M3.6,135.9c-1.1-39.5,59.3-2.2,65.4-28.6,4.9-21.9-13.8-67.5,35.5-91.9,58.5-28.7,92.4,42.8,120,23.7,24.2-16.7,59.3-15.2,72.4-4.5,16.4,13.5-20.7,27-6.6,45.4,14,18.4,56,35.2,49.5,63.7-3.5,15.5-34.2,17-35.7,30.3-1.4,12.9,16.1,47.7-.7,56.6-18,9.6-40.8,8.5-31.3,52.8,9.5,44.6-7.8,62.9-44.1,31.1-36-31.4-56.8-36.5-67.7-20.2-11.5,17.2-23.6,10.1-36.5-26.7-13.3-38-38,.8-49.4-24.4-10.8-23.9-1.9-33.1-9.5-42.6-16.8-21.1-60.9-47.9-61.3-64.7Z"/>
          </g>
          <g class="cls-154">
            <path class="cls-102" d="M3.9,135.8c-.7-39,59.7-1.1,65.9-27.9,4.9-21.7-13.9-67.3,35-91.8,57.7-28.7,91.6,42.5,119.7,24,24.1-15.9,58.8-16,72-5.5,16.3,13.1-20.4,27.3-6.5,45.5,13.9,18.2,54.3,35.1,47.4,62.7-3.8,15.2-34.5,16.7-35.9,30.2-1.3,13,15.5,46.9-.7,55.8-17.6,9.8-39.8,8.8-30.7,52,9.2,43.6-8.1,61.5-43.4,30.3-34.9-30.8-55.6-35.2-66.3-19.2-11.4,17-23.6,9.6-36.2-26.2-12.9-37.2-37.3.5-49-24-10.9-23-2.6-32.5-10.2-41.9-16.8-20.7-60.8-47.3-61.1-64.1Z"/>
          </g>
          <g class="cls-164">
            <path class="cls-101" d="M4.2,135.7c-.4-38.6,60.1,0,66.3-27.1,4.9-21.5-13.9-67.2,34.5-91.7,56.9-28.8,90.8,42.3,119.3,24.3,24.1-15.1,58.4-16.8,71.6-6.4,16.3,12.8-20.1,27.6-6.3,45.6,13.8,18.1,52.6,35,45.3,61.6-4.1,14.9-34.8,16.4-36.1,30.2-1.3,13.1,15,46.1-.6,55.1-17.2,9.9-38.8,9.2-30,51.3,8.8,42.5-8.5,60.1-42.7,29.6-33.9-30.1-54.3-33.9-65-18.2-11.3,16.7-23.7,9.2-35.8-25.7-12.6-36.4-36.6.2-48.5-23.7-11.1-22.1-3.3-31.9-11-41.3-16.7-20.4-60.8-46.7-60.9-63.6Z"/>
          </g>
          <g class="cls-162">
            <path class="cls-100" d="M4.5,135.6c0-38.2,60.5,1.2,66.8-26.3,4.9-21.2-13.9-66.9,34-91.5,56.1-28.8,90,42,119,24.6,24-14.4,57.9-17.6,71.2-7.4,16.3,12.5-19.7,27.9-6.1,45.7,13.6,17.9,50.9,34.9,43.2,60.6-4.4,14.7-35.1,16.1-36.3,30.1-1.2,13.2,14.4,45.3-.6,54.3-16.8,10.1-37.8,9.5-29.4,50.5,8.5,41.4-8.8,58.7-42.1,28.8-32.9-29.4-53.1-32.6-63.6-17.2-11.3,16.5-23.7,8.7-35.5-25.2-12.2-35.5-36-.2-48.1-23.3-11.2-21.3-4-31.3-11.8-40.7-16.7-20.1-60.7-46.1-60.7-63.1Z"/>
          </g>
          <g class="cls-167">
            <path class="cls-116" d="M4.8,135.6c.4-37.7,60.9,2.3,67.3-25.5,4.8-21-13.9-66.7,33.5-91.4,55.4-28.8,89.1,41.8,118.7,25,23.9-13.6,57.4-18.4,70.8-8.3,16.2,12.2-19.4,28.2-5.9,45.8,13.5,17.7,49.1,34.8,41.1,59.6-4.7,14.4-35.3,15.9-36.5,30-1.1,13.4,13.9,44.5-.6,53.5-16.4,10.2-36.8,9.9-28.7,49.8,8.1,40.4-9.1,57.3-41.4,28.1-31.8-28.7-51.9-31.3-62.3-16.2-11.3,16.3-23.7,8.2-35.1-24.7-11.8-34.7-35.3-.5-47.7-22.9-11.3-20.4-4.7-30.8-12.6-40.1-16.6-19.8-60.7-45.5-60.5-62.6Z"/>
          </g>
          <g class="cls-177">
            <path class="cls-115" d="M5.1,135.5c.7-37.3,61.2,3.4,67.8-24.8,4.8-20.8-13.9-66.5,33-91.2,54.6-28.8,88.2,41.5,118.3,25.3,23.8-12.9,56.9-19.2,70.4-9.3,16.2,11.8-19.1,28.4-5.8,45.9,13.3,17.5,47.4,34.7,39,58.5-5,14.1-35.6,15.6-36.7,29.9-1.1,13.5,13.3,43.8-.5,52.8-16,10.4-35.8,10.2-28.1,49,7.8,39.3-9.4,55.9-40.7,27.3-30.8-28-50.7-30-61-15.3-11.2,16.1-23.8,7.8-34.7-24.2-11.6-33.9-34.6-.8-47.3-22.5-11.4-19.5-5.4-30.2-13.3-39.5-16.6-19.4-60.6-44.9-60.3-62Z"/>
          </g>
          <g class="cls-175">
            <path class="cls-114" d="M5.4,135.4c1-36.9,61.6,4.5,68.2-24,4.8-20.5-13.9-66.3,32.5-91.1,53.8-28.8,87.4,41.3,118,25.6,23.7-12.1,56.5-19.9,70-10.3,16.1,11.5-18.8,28.7-5.6,46,13.2,17.3,45.6,34.6,36.9,57.5-5.3,13.9-35.9,15.3-36.9,29.8-1,13.6,12.8,43-.5,52-15.6,10.6-34.8,10.6-27.4,48.2,7.4,38.2-9.8,54.5-40.1,26.6-29.8-27.3-49.5-28.7-59.6-14.3-11.2,15.8-23.9,7.3-34.4-23.6-11.2-33-33.9-1.1-46.9-22.1-11.5-18.6-6.1-29.6-14.1-38.9-16.5-19.1-60.6-44.3-60.1-61.5Z"/>
          </g>
          <g class="cls-140">
            <path class="cls-113" d="M5.7,135.3c1.4-36.5,62,5.6,68.7-23.2,4.7-20.3-13.9-66.1,31.9-91,53.1-28.8,86.5,41,117.6,25.9,23.6-11.4,56-20.7,69.6-11.2,16.1,11.2-18.4,29-5.4,46.1,13,17.1,43.8,34.5,34.8,56.4-5.6,13.6-36.1,15.1-37.2,29.7-.9,13.7,12.3,42.2-.5,51.3-15.1,10.7-33.8,10.9-26.7,47.5,7.1,37.2-10.1,53.1-39.4,25.8-28.8-26.6-48.3-27.3-58.3-13.3-11.1,15.6-23.9,6.9-34-23.1-10.8-32.2-33.2-1.4-46.5-21.7-11.6-17.8-6.8-29.1-14.9-38.2-16.5-18.8-60.5-43.7-59.9-61Z"/>
          </g>
          <g class="cls-151">
            <path class="cls-110" d="M6,135.2c1.7-36,62.4,6.7,69.2-22.5,4.7-20.1-14-65.8,31.4-90.8,52.3-28.8,85.6,40.7,117.3,26.2,23.5-10.7,55.5-21.5,69.2-12.2,16,10.9-18.1,29.3-5.2,46.2,12.9,16.9,42,34.4,32.7,55.4-5.9,13.4-36.4,14.8-37.4,29.7-.9,13.9,11.7,41.5-.4,50.5-14.7,10.9-32.8,11.3-26.1,46.7,6.7,36.1-10.4,51.7-38.7,25.1-27.7-25.9-47.1-26-57-12.3-11.1,15.4-24,6.4-33.7-22.6-10.5-31.4-32.4-1.7-46-21.3-11.7-16.9-7.5-28.5-15.6-37.6-16.4-18.5-60.5-43.2-59.7-60.4Z"/>
          </g>
          <g class="cls-141">
            <path class="cls-109" d="M6.3,135.1c2-35.6,62.7,7.8,69.6-21.7,4.7-19.9-14-65.6,30.9-90.7,51.5-28.8,84.7,40.3,117,26.5,23.4-10,55-22.3,68.8-13.1,16,10.6-17.8,29.6-5,46.3,12.8,16.7,40.2,34.2,30.6,54.3-6.2,13.1-36.7,14.5-37.6,29.6-.8,14,11.2,40.7-.4,49.7-14.3,11.1-31.8,11.6-25.4,45.9,6.4,35-10.7,50.3-38.1,24.4-26.7-25.2-45.9-24.7-55.6-11.3-11,15.2-24,6-33.3-22.1-10.1-30.5-31.7-2-45.6-20.9-11.8-16-8.2-27.9-16.4-37-16.3-18.1-60.5-42.6-59.5-59.9Z"/>
          </g>
          <g class="cls-165">
            <path class="cls-108" d="M6.6,135.1c2.4-35.2,63.1,8.9,70.1-20.9,4.6-19.6-14-65.4,30.4-90.5,50.8-28.7,83.8,40,116.6,26.8,23.2-9.3,54.5-23.1,68.4-14.1,15.9,10.3-17.5,29.9-4.9,46.4,12.6,16.6,38.4,34.1,28.5,53.3-6.6,12.8-37,14.3-37.8,29.5-.8,14.1,10.7,40-.4,49-13.9,11.3-30.8,12-24.8,45.2,6,34-11.1,48.9-37.4,23.6-25.7-24.5-44.7-23.4-54.3-10.4-11,14.9-24.1,5.5-33-21.6-9.8-29.7-31-2.3-45.2-20.5-11.8-15.2-8.9-27.4-17.2-36.4-16.3-17.8-60.4-42-59.3-59.4Z"/>
          </g>
          <g class="cls-170">
            <path class="cls-107" d="M6.9,135c2.7-34.8,63.5,10,70.6-20.2,4.6-19.4-14-65.2,29.9-90.4,50-28.7,82.9,39.7,116.3,27.1,23.1-8.7,54-23.8,68-15.1,15.8,9.9-17.2,30.2-4.7,46.5,12.5,16.4,36.5,34,26.4,52.3-6.9,12.6-37.3,14-38,29.4-.7,14.2,10.2,39.3-.3,48.2-13.5,11.5-29.7,12.3-24.1,44.4,5.7,32.9-11.3,47.5-36.7,22.9-24.6-23.8-43.5-22.1-52.9-9.4-10.9,14.7-24.1,5-32.6-21.1-9.4-28.9-30.2-2.6-44.8-20.2-11.9-14.3-9.6-26.8-17.9-35.8-16.2-17.5-60.4-41.4-59.1-58.8Z"/>
          </g>
          <g class="cls-146">
            <path class="cls-106" d="M7.2,134.9c3-34.3,63.8,11.1,71.1-19.4,4.5-19.2-14-65,29.4-90.3,49.2-28.7,82,39.3,115.9,27.5,23-8,53.5-24.6,67.6-16,15.8,9.6-16.8,30.5-4.5,46.6,12.3,16.2,34.7,33.9,24.3,51.2-7.3,12.3-37.5,13.7-38.2,29.3-.7,14.4,9.6,38.5-.3,47.5-13,11.7-28.7,12.7-23.5,43.7,5.3,31.8-11.6,46.1-36.1,22.1-23.6-23.1-42.3-20.8-51.6-8.4-10.9,14.5-24.1,4.6-32.2-20.5-9.1-28.1-29.5-3-44.4-19.8-11.9-13.4-10.3-26.2-18.7-35.2-16.2-17.2-60.4-40.8-58.9-58.3Z"/>
          </g>
          <g class="cls-149">
            <path class="cls-105" d="M7.5,134.8c3.3-33.9,64.1,12.2,71.5-18.6,4.5-19-14-64.7,28.9-90.1,48.5-28.7,81.1,38.9,115.6,27.8,22.8-7.4,53.1-25.4,67.2-17,15.7,9.3-16.5,30.7-4.3,46.7,12.2,16,32.8,33.7,22.2,50.2-7.7,12-37.8,13.5-38.4,29.2-.6,14.5,9.1,37.8-.3,46.7-12.6,11.9-27.7,13-22.8,42.9,5,30.7-12,44.7-35.4,21.4-22.6-22.4-41.1-19.5-50.3-7.4-10.8,14.2-24.2,4.1-31.9-20-8.7-27.2-28.7-3.3-44-19.4-12-12.6-11-25.7-19.5-34.5-16.1-16.9-60.3-40.2-58.6-57.8Z"/>
          </g>
          <g class="cls-144">
            <path class="cls-104" d="M7.8,134.7c3.6-33.5,64.5,13.3,72-17.9,4.4-18.7-14-64.5,28.4-90,47.7-28.7,80.2,38.5,115.2,28.1,22.7-6.7,52.6-26.2,66.8-17.9,15.7,9-16.2,31-4.2,46.8,12,15.8,30.9,33.6,20.2,49.1-8.1,11.7-38.1,13.2-38.6,29.2-.6,14.6,8.6,37.1-.2,45.9-12.1,12.2-26.7,13.4-22.2,42.1,4.6,29.7-12.3,43.3-34.8,20.6-21.5-21.7-39.9-18.2-48.9-6.4-10.8,14-24.2,3.7-31.5-19.5-8.3-26.4-27.9-3.7-43.6-19-12-11.8-11.7-25.1-20.2-33.9-16-16.6-60.3-39.6-58.4-57.3Z"/>
          </g>
          <g class="cls-147">
            <path class="cls-117" d="M8.1,134.7c3.9-33.1,64.9,14.4,72.5-17.1,4.4-18.5-14-64.3,27.9-89.8,47-28.7,79.3,38,114.9,28.4,22.5-6.1,52.1-26.9,66.4-18.9,15.6,8.7-15.9,31.3-4,46.9,11.9,15.6,29,33.4,18.1,48.1-8.5,11.4-38.3,12.9-38.8,29.1-.5,14.7,8.1,36.4-.2,45.2-11.7,12.4-25.7,13.7-21.5,41.4,4.3,28.6-12.6,41.9-34.1,19.9-20.5-21-38.7-16.9-47.6-5.5-10.8,13.8-24.2,3.2-31.2-19-8-25.6-27.1-4-43.1-18.6-12-10.9-12.4-24.5-21-33.3-16-16.3-60.3-39-58.2-56.7Z"/>
          </g>
          <g class="cls-173">
            <path class="cls-96" d="M8.4,134.6c4.2-32.6,65.2,15.5,72.9-16.3,4.4-18.3-14-64,27.4-89.7C154.9-.1,187.1,66.1,223.3,57.3c22.4-5.5,51.6-27.7,66-19.9,15.6,8.4-15.6,31.6-3.8,47,11.8,15.4,27,33.2,16,47-8.9,11.1-38.6,12.6-39,29-.4,14.9,7.6,35.6-.2,44.4-11.2,12.6-24.7,14.1-20.9,40.6,3.9,27.5-12.9,40.5-33.4,19.1-19.5-20.3-37.5-15.6-46.3-4.5-10.7,13.6-24.3,2.7-30.8-18.5-7.6-24.8-26.3-4.4-42.7-18.2-12-10.1-13.1-24-21.8-32.7-15.9-16-60.3-38.4-58-56.2Z"/>
          </g>
          <g class="cls-127">
            <path class="cls-97" d="M8.7,134.5c4.5-32.2,65.6,16.6,73.4-15.6,4.3-18.1-13.9-63.7,26.9-89.6,45.5-28.5,77.5,37.1,114.2,29,22.3-4.9,51.1-28.5,65.6-20.8,15.5,8.1-15.2,31.9-3.6,47.1,11.6,15.2,25.1,33,13.9,46-9.3,10.8-38.9,12.4-39.3,28.9-.4,15,7.1,34.9-.1,43.7-10.7,12.9-23.7,14.4-20.2,39.9,3.6,26.5-13.3,39.1-32.8,18.4-18.5-19.6-36.3-14.3-44.9-3.5-10.7,13.3-24.3,2.3-30.4-18-7.2-23.9-25.5-4.8-42.3-17.8-12.1-9.3-13.8-23.4-22.6-32.1-15.8-15.6-60.3-37.8-57.8-55.7Z"/>
          </g>
          <g class="cls-131">
            <path class="cls-95" d="M9,134.4c4.7-31.8,66,17.7,73.9-14.8,4.3-17.8-13.9-63.5,26.4-89.4,44.7-28.5,76.5,36.6,113.9,29.3,22.1-4.3,50.6-29.2,65.2-21.8,15.4,7.8-14.9,32.2-3.4,47.2,11.5,15,23.1,32.8,11.8,45-9.7,10.4-39.2,12.1-39.5,28.8-.3,15.1,6.7,34.2-.1,42.9-10.2,13.1-22.7,14.8-19.5,39.1,3.2,25.4-13.6,37.7-32.1,17.6-17.5-18.9-35.1-13-43.6-2.5-10.6,13.1-24.4,1.8-30.1-17.4-6.9-23.1-24.7-5.2-41.9-17.4-12.1-8.6-14.5-22.9-23.3-31.5-15.8-15.3-60.3-37.2-57.6-55.1Z"/>
          </g>
          <g class="cls-128">
            <path class="cls-94" d="M9.3,134.3c5-31.4,66.4,18.8,74.4-14,4.3-17.6-14-63.3,25.9-89.3,44-28.5,75.6,36,113.5,29.7,22-3.7,50.1-30,64.8-22.7,15.4,7.5-14.6,32.5-3.3,47.3,11.3,14.9,21.2,32.5,9.7,43.9-10.2,10-39.4,11.8-39.7,28.8-.2,15.2,6.2,33.5,0,42.1-9.7,13.4-21.7,15.1-18.9,38.3,2.9,24.3-14,36.3-31.4,16.9-16.5-18.2-33.9-11.7-42.3-1.5-10.6,12.8-24.4,1.3-29.7-16.9-6.5-22.3-23.8-5.7-41.5-17.1-12.1-7.8-15.2-22.3-24.1-30.8-15.7-15-60.3-36.7-57.4-54.6Z"/>
          </g>
          <g class="cls-135">
            <path class="cls-93" d="M9.6,134.2c5.3-31,66.7,19.9,74.8-13.3,4.2-17.4-14-63.1,25.4-89.1,43.2-28.5,74.7,35.5,113.2,30,21.9-3.1,49.6-30.7,64.4-23.7,15.3,7.2-14.3,32.8-3.1,47.4,11.2,14.7,19.2,32.3,7.6,42.9-10.6,9.6-39.7,11.6-39.9,28.7-.2,15.4,5.7,32.8,0,41.4-9.2,13.6-20.7,15.5-18.2,37.6,2.5,23.3-14.3,34.9-30.8,16.1-15.4-17.5-32.7-10.4-40.9-.5-10.6,12.6-24.4.9-29.4-16.4-6.1-21.5-23-6.1-41.1-16.7-12.1-7-15.9-21.7-24.9-30.2-15.6-14.7-60.3-36.1-57.2-54.1Z"/>
          </g>
          <g class="cls-150">
            <path class="cls-92" d="M9.9,134.2c5.5-30.6,67.1,21,75.3-12.5,4.2-17.2-14-62.8,24.9-89,42.4-28.5,73.8,34.9,112.9,30.3,21.8-2.6,49.1-31.5,64-24.7,15.2,7-13.9,33.1-2.9,47.5,11,14.5,17.3,32,5.5,41.8-11.1,9.2-40,11.3-40.1,28.6-.1,15.5,5.3,32.1,0,40.6-8.7,13.9-19.7,15.8-17.6,36.8,2.2,22.2-14.6,33.5-30.1,15.4-14.4-16.8-31.5-9.1-39.6.4-10.5,12.4-24.4.4-29-15.9-5.7-20.6-22.1-6.6-40.6-16.3-12.1-6.3-16.5-21.2-25.6-29.6-15.5-14.4-60.3-35.5-57-53.5Z"/>
          </g>
          <g class="cls-133">
            <path class="cls-91" d="M10.2,134.1c5.8-30.1,67.5,22.1,75.8-11.7,4.1-16.9-14-62.6,24.3-88.9,41.7-28.5,72.9,34.3,112.5,30.6,21.7-2,48.6-32.2,63.6-25.6,15.2,6.7-13.6,33.3-2.7,47.6,10.9,14.3,15.4,31.7,3.4,40.8-11.6,8.8-40.2,11-40.3,28.5,0,15.6,4.8,31.4,0,39.9-8.1,14.2-18.6,16.2-16.9,36.1,1.8,21.1-14.9,32.1-29.4,14.6-13.4-16.1-30.3-7.8-38.2,1.4-10.5,12.1-24.5,0-28.7-15.4-5.4-19.8-21.3-7.2-40.2-15.9-12.1-5.6-17.2-20.6-26.4-29-15.4-14.2-60.3-34.9-56.8-53Z"/>
          </g>
          <path class="cls-90" d="M10.5,134c6.1-29.7,67.8,23.3,76.3-11,4.1-16.7-14-62.4,23.8-88.7,40.9-28.5,72.1,33.6,112.2,30.9,21.6-1.5,48.1-33,63.2-26.6,15.1,6.4-13.3,33.6-2.6,47.7,10.7,14.1,13.4,31.4,1.3,39.7-12,8.3-40.5,10.8-40.5,28.4s4.4,30.7,0,39.1c-7.5,14.5-17.6,16.5-16.3,35.3,1.5,20.1-15.3,30.7-28.8,13.9-12.4-15.4-29.1-6.5-36.9,2.4-10.5,11.9-24.5-.5-28.3-14.9-5-19-20.5-7.7-39.8-15.5-12.1-4.9-17.9-20.1-27.2-28.4-15.4-13.8-60.3-34.3-56.6-52.5Z"/>
        </g>
        <g>
          <path class="cls-122" d="M120,90.5c-1,11.2-9.6,18.9-16.3,17.5-6.8-1.4-7.9-7.3-6.2-21.8,1.3-11.2,5.2-21.5,12-20.2,6.8,1.4,11.6,12.7,10.5,24.4Z"/>
          <path class="cls-88" d="M103.9,107.6c-6.8-1.2-7.6-7.5-6.1-21.4,1.3-11.3,5.2-21.1,11.6-19.8,6.5,1.3,11.3,12.4,10.2,24-1,10.9-9.2,18.4-15.8,17.2Z"/>
          <path class="cls-71" d="M104.1,107.2c-6.7-1.1-7.4-7.8-5.9-20.9,1.3-11.5,5.1-20.6,11.2-19.4,6.3,1.2,11,12.2,9.9,23.5-1,10.6-8.9,17.9-15.3,16.8Z"/>
          <path class="cls-126" d="M104.2,106.8c-6.7-1-7.1-8-5.7-20.5,1.3-11.6,5.1-20.2,10.8-19.1,6,1.1,10.7,11.9,9.7,23.1-1,10.3-8.6,17.4-14.7,16.5Z"/>
          <path class="cls-123" d="M104.4,106.4c-6.7-.8-6.9-8.3-5.5-20.1,1.3-11.7,5-19.7,10.4-18.7s10.4,11.7,9.4,22.6c-.9,10.1-8.3,17-14.2,16.1Z"/>
          <path class="cls-3" d="M104.6,106c-6.7-.7-6.6-8.5-5.3-19.6,1.4-11.9,5-19.2,9.9-18.3s10.1,11.4,9.1,22.2c-.9,9.8-8,16.5-13.7,15.8Z"/>
          <path class="cls-36" d="M104.8,105.6c-6.7-.6-6.4-8.8-5.2-19.2,1.4-12,4.9-18.8,9.5-18s9.8,11.2,8.8,21.7c-.9,9.5-7.7,16-13.1,15.4Z"/>
          <path class="cls-85" d="M104.9,105.2c-6.7-.4-6.1-9.1-5-18.8,1.4-12.2,4.9-18.3,9.1-17.6s9.4,10.9,8.5,21.3c-.9,9.2-7.4,15.5-12.6,15.1Z"/>
          <path class="cls-38" d="M105.1,104.9c-6.7-.3-5.9-9.3-4.8-18.4,1.4-12.3,4.8-17.9,8.7-17.3s9.1,10.6,8.2,20.9c-.8,8.9-7,15-12.1,14.8Z"/>
          <path class="cls-125" d="M105.3,104.5c-6.7-.1-5.6-9.6-4.6-17.9,1.4-12.4,4.8-17.4,8.3-16.9,4.6.7,8.8,10.4,7.9,20.4-.8,8.6-6.7,14.6-11.5,14.4Z"/>
          <path class="cls-4" d="M105.5,104.1c-6.7,0-5.3-9.8-4.5-17.5,1.4-12.6,4.7-16.9,7.9-16.5,4.3.6,8.5,10.1,7.6,20-.8,8.3-6.4,14.1-11,14.1Z"/>
          <path class="cls-86" d="M105.7,102.8c-6.4,0-5.2-9.4-4.3-16.8,1.4-12,4.5-16.2,7.6-15.8,4.2.5,8.2,9.7,7.3,19.1-.7,7.9-6.2,13.5-10.6,13.5Z"/>
          <path class="cls-37" d="M105.9,101.5c-6.2,0-5-9-4.2-16,1.3-11.5,4.4-15.5,7.3-15.1,4.1.5,7.9,9.3,7.1,18.3-.7,7.6-6,12.9-10.3,12.9Z"/>
          <path class="cls-124" d="M106.1,100.2c-6,0-4.8-8.6-4-15.3,1.3-11,4.2-14.8,7.1-14.4,3.9.5,7.7,8.9,6.8,17.4-.7,7.2-5.8,12.3-9.9,12.3Z"/>
          <path class="cls-72" d="M106.3,98.9c-5.8,0-4.6-8.2-3.9-14.6,1.2-10.5,4.1-14.1,6.8-13.8,3.8.5,7.4,8.4,6.6,16.6-.7,6.9-5.6,11.7-9.5,11.7Z"/>
          <path class="cls-120" d="M106.4,97.6c-5.6,0-4.5-7.8-3.7-13.8,1.2-9.9,3.9-13.4,6.6-13.1,3.6.5,7.1,8,6.3,15.8-.6,6.6-5.4,11.1-9.2,11.1Z"/>
          <path class="cls-87" d="M106.6,96.4c-5.4,0-4.3-7.3-3.6-13.1,1.2-9.4,3.8-12.7,6.3-12.4,3.5.4,6.8,7.6,6.1,14.9-.6,6.2-5.1,10.5-8.8,10.5Z"/>
          <path class="cls-35" d="M106.8,95.1c-5.1,0-4.1-6.9-3.4-12.4,1.1-8.9,3.6-12,6.1-11.7,3.3.4,6.5,7.2,5.8,14.1-.6,5.9-4.9,9.9-8.5,9.9Z"/>
          <path class="cls-179" d="M107,93.8c-4.9,0-3.9-6.5-3.3-11.6,1.1-8.3,3.5-11.3,5.8-11,3.2.4,6.3,6.7,5.6,13.3-.6,5.5-4.7,9.3-8.1,9.3Z"/>
          <path class="cls-89" d="M107.2,92.5c-4.7,0-3.8-6.1-3.1-10.9,1-7.8,3.3-10.5,5.5-10.3,3.1.4,6,6.3,5.3,12.4-.5,5.2-4.5,8.8-7.7,8.8Z"/>
          <path class="cls-39" d="M107.4,91.2c-4.5,0-3.6-5.7-3-10.1,1-7.3,3.2-9.8,5.3-9.6,2.9.3,5.7,5.9,5.1,11.6-.5,4.8-4.3,8.2-7.4,8.2Z"/>
        </g>
        <g>
          <path class="cls-122" d="M139.4,85.2c10.7,3.6,21.1-1.1,22.6-7.8,1.5-6.7-3.4-10.2-17.4-14.5-10.8-3.4-21.8-3.9-23.3,2.8-1.5,6.7,6.9,15.8,18.1,19.5Z"/>
          <path class="cls-88" d="M140.1,84.9c-11-3.5-19.7-12.4-18.4-19s11.7-6.2,22.8-2.7c14,4.4,18.5,7.7,17.1,14.1-1.5,6.7-11.9,10.7-21.5,7.7Z"/>
          <path class="cls-71" d="M140.8,84.7c-10.8-3.4-19.8-12-18.7-18.5s10.9-6.2,22.3-2.7c14,4.4,18.1,7.6,16.8,13.6-1.5,6.7-12,10.1-20.4,7.5Z"/>
          <path class="cls-126" d="M141.6,84.4c-10.7-3.2-19.9-11.6-19-18s10-6.2,21.7-2.6c14.1,4.4,17.7,7.5,16.5,13.2-1.5,6.6-12,9.5-19.2,7.3Z"/>
          <path class="cls-123" d="M142.3,84.2c-10.5-3-20-11.2-19.3-17.4s9.2-6.2,21.2-2.5c14.1,4.4,17.3,7.5,16.1,12.8-1.5,6.6-12,8.9-18.1,7.2Z"/>
          <path class="cls-3" d="M143,83.9c-10.4-2.9-20.1-10.8-19.6-16.9s8.4-6.2,20.7-2.4c14.1,4.4,16.9,7.4,15.8,12.3-1.4,6.6-12.1,8.3-16.9,7Z"/>
          <path class="cls-36" d="M143.7,83.7c-10.2-2.8-20.1-10.4-19.9-16.4s7.5-6.3,20.2-2.3c14.2,4.4,16.5,7.3,15.5,11.9-1.4,6.6-12.1,7.8-15.8,6.8Z"/>
          <path class="cls-85" d="M144.4,83.4c-10.1-2.8-20.2-10-20.2-15.9s6.7-6.3,19.7-2.2c14.2,4.4,16.1,7.2,15.2,11.4-1.4,6.5-12.2,7.3-14.7,6.7Z"/>
          <path class="cls-38" d="M145.1,83.1c-10.3-.7-20.3-9.6-20.5-15.3s5.9-6.3,19.1-2.1c14.2,4.4,15.7,7.2,14.9,11-1.4,6.5-12.4,7.2-13.5,6.5Z"/>
          <path class="cls-125" d="M145.9,82.9c-10.2-.4-20.4-9.2-20.8-14.8s5-6.3,18.6-2.1c14.3,4.5,15.3,7.1,14.6,10.6-1.4,6.5-12.4,6.7-12.4,6.3Z"/>
          <path class="cls-4" d="M146.6,82.6c-10.1,0-20.4-8.8-21.1-14.3-.5-4,4.2-6.3,18.1-2,14.3,4.5,14.9,7,14.3,10.1-1.4,6.4-12.5,6.2-11.3,6.2Z"/>
          <path class="cls-86" d="M145.8,82.2c-9.7,0-19.6-8.5-20.2-13.8-.5-3.9,4-6.1,17.4-1.9,13.7,4.3,14.3,6.8,13.7,9.8-1.4,6.2-12,5.9-10.8,5.9Z"/>
          <path class="cls-37" d="M145.1,81.7c-9.3,0-18.8-8.2-19.4-13.3-.5-3.8,3.9-5.9,16.7-1.8,13.2,4.2,13.7,6.5,13.1,9.4-1.3,6-11.5,5.7-10.4,5.7Z"/>
          <path class="cls-124" d="M144.4,81.2c-8.9,0-18-7.9-18.6-12.8-.4-3.6,3.7-5.7,15.9-1.8,12.6,4,13.2,6.3,12.6,9.1-1.2,5.8-11,5.5-9.9,5.5Z"/>
          <path class="cls-72" d="M143.6,80.8c-8.5,0-17.1-7.6-17.7-12.3-.4-3.5,3.5-5.4,15.2-1.7,12,3.9,12.6,6,12,8.7-1.2,5.5-10.5,5.3-9.5,5.3Z"/>
          <path class="cls-120" d="M142.9,80.3c-8.1,0-16.3-7.3-16.9-11.8-.4-3.4,3.4-5.2,14.5-1.6,11.5,3.7,12,5.8,11.4,8.4-1.1,5.3-10,5.1-9,5.1Z"/>
          <path class="cls-87" d="M142.1,79.9c-7.7,0-15.5-7-16-11.4-.4-3.2,3.2-5,13.8-1.6,10.9,3.6,11.4,5.6,10.8,8-1.1,5.1-9.5,4.9-8.6,4.9Z"/>
          <path class="cls-35" d="M141.4,79.4c-7.3,0-14.7-6.7-15.2-10.9-.4-3.1,3-4.8,13.1-1.5,10.3,3.4,10.8,5.3,10.3,7.7-1,4.9-9,4.7-8.1,4.7Z"/>
          <path class="cls-179" d="M140.7,78.9c-6.9,0-13.9-6.4-14.4-10.4-.3-2.9,2.9-4.6,12.3-1.4,9.7,3.2,10.2,5.1,9.7,7.3-1,4.7-8.5,4.5-7.7,4.5Z"/>
          <path class="cls-89" d="M139.9,78.5c-6.5,0-13.1-6.1-13.5-9.9-.3-2.8,2.7-4.4,11.6-1.4,9.2,3.1,9.6,4.8,9.1,7-.9,4.4-8,4.3-7.2,4.3Z"/>
          <path class="cls-39" d="M139.2,78c-6.1,0-12.3-5.8-12.7-9.4-.3-2.7,2.5-4.1,10.9-1.3,8.6,2.9,9,4.6,8.6,6.6-.8,4.2-7.5,4-6.8,4Z"/>
        </g>
      </g>
    </g>
  </g>
</svg>