<?xml version="1.0" encoding="UTF-8"?>
<svg xmlns="http://www.w3.org/2000/svg" xmlns:xlink="http://www.w3.org/1999/xlink" version="1.1" viewBox="0 0 515 420">
  <defs>
    <style>
      .cls-1 {
        fill: #2f2c2e;
      }

      .cls-2 {
        fill: #2c292a;
      }

      .cls-3 {
        fill: #8b8c8e;
        opacity: .5;
      }

      .cls-4 {
        fill: #bcbec0;
        opacity: .2;
      }

      .cls-5 {
        fill: #666668;
        opacity: .8;
      }

      .cls-6 {
        fill: #4d4d4f;
        opacity: .9;
      }

      .cls-7 {
        fill: #b0b1b3;
        opacity: .3;
      }

      .cls-8 {
        fill: #3e3d3f;
      }

      .cls-9 {
        fill: #414042;
      }

      .cls-10 {
        fill: #231f20;
      }

      .cls-11 {
        fill: url(#linear-gradient);
      }

      .cls-11, .cls-12 {
        opacity: 0;
      }

      .cls-13 {
        fill: #323031;
      }

      .cls-14 {
        fill: #7f7f81;
        opacity: .6;
      }

      .cls-15 {
        fill: url(#linear-gradient-9);
        opacity: .3;
      }

      .cls-16 {
        fill: url(#linear-gradient-4);
        opacity: 0;
      }

      .cls-17 {
        fill: url(#linear-gradient-6);
        opacity: .2;
      }

      .cls-18 {
        fill: url(#linear-gradient-5);
        opacity: .1;
      }

      .cls-19 {
        fill: url(#linear-gradient-8);
        opacity: .2;
      }

      .cls-20 {
        fill: url(#linear-gradient-7);
        opacity: .2;
      }

      .cls-21 {
        fill: url(#linear-gradient-3);
        opacity: 0;
      }

      .cls-22 {
        fill: url(#linear-gradient-2);
        opacity: 0;
      }

      .cls-23 {
        fill: #5a595b;
        opacity: .8;
      }

      .cls-24 {
        fill: #383638;
      }

      .cls-25 {
        fill: #a3a5a7;
        opacity: .4;
      }

      .cls-26 {
        fill: #292627;
      }

      .cls-27 {
        fill: #3b393b;
      }

      .cls-28 {
        fill: url(#linear-gradient-64);
        opacity: .9;
      }

      .cls-29 {
        fill: url(#linear-gradient-29);
        opacity: .9;
      }

      .cls-30 {
        fill: url(#linear-gradient-28);
        opacity: .9;
      }

      .cls-31 {
        fill: url(#linear-gradient-63);
        opacity: .9;
      }

      .cls-32 {
        fill: url(#linear-gradient-27);
        opacity: .8;
      }

      .cls-33 {
        fill: url(#linear-gradient-62);
        opacity: .8;
      }

      .cls-34 {
        fill: url(#linear-gradient-26);
        opacity: .8;
      }

      .cls-35 {
        fill: url(#linear-gradient-25);
        opacity: .8;
      }

      .cls-36 {
        fill: url(#linear-gradient-61);
        opacity: .8;
      }

      .cls-37 {
        fill: url(#linear-gradient-24);
        opacity: .7;
      }

      .cls-38 {
        fill: url(#linear-gradient-60);
        opacity: .8;
      }

      .cls-39 {
        fill: url(#linear-gradient-23);
        opacity: .7;
      }

      .cls-40 {
        fill: url(#linear-gradient-59);
        opacity: .8;
      }

      .cls-41 {
        fill: url(#linear-gradient-57);
        opacity: .7;
      }

      .cls-42 {
        fill: url(#linear-gradient-22);
        opacity: .7;
      }

      .cls-43 {
        fill: url(#linear-gradient-58);
        opacity: .7;
      }

      .cls-44 {
        fill: url(#linear-gradient-38);
        opacity: .1;
      }

      .cls-45 {
        fill: url(#linear-gradient-37);
        opacity: .1;
      }

      .cls-46 {
        fill: url(#linear-gradient-44);
        opacity: .3;
      }

      .cls-47 {
        fill: url(#linear-gradient-10);
        opacity: .3;
      }

      .cls-48 {
        fill: url(#linear-gradient-43);
        opacity: .3;
      }

      .cls-49 {
        fill: url(#linear-gradient-42);
        opacity: .3;
      }

      .cls-50 {
        fill: url(#linear-gradient-41);
        opacity: .2;
      }

      .cls-51 {
        fill: url(#linear-gradient-36);
        opacity: 0;
      }

      .cls-52 {
        fill: url(#linear-gradient-55);
        opacity: .6;
      }

      .cls-53 {
        fill: url(#linear-gradient-54);
        opacity: .6;
      }

      .cls-54 {
        fill: url(#linear-gradient-20);
        opacity: .6;
      }

      .cls-55 {
        fill: url(#linear-gradient-53);
        opacity: .6;
      }

      .cls-56 {
        fill: url(#linear-gradient-19);
        opacity: .6;
      }

      .cls-57 {
        fill: url(#linear-gradient-18);
        opacity: .5;
      }

      .cls-58 {
        fill: url(#linear-gradient-52);
        opacity: .6;
      }

      .cls-59 {
        fill: url(#linear-gradient-17);
        opacity: .5;
      }

      .cls-60 {
        fill: url(#linear-gradient-51);
        opacity: .5;
      }

      .cls-61 {
        fill: url(#linear-gradient-50);
        opacity: .5;
      }

      .cls-62 {
        fill: url(#linear-gradient-16);
        opacity: .5;
      }

      .cls-63 {
        fill: url(#linear-gradient-49);
        opacity: .5;
      }

      .cls-64 {
        fill: url(#linear-gradient-40);
        opacity: .2;
      }

      .cls-65 {
        fill: url(#linear-gradient-39);
        opacity: .2;
      }

      .cls-66 {
        fill: url(#linear-gradient-11);
        opacity: .3;
      }

      .cls-67 {
        fill: url(#linear-gradient-31);
        opacity: 1;
      }

      .cls-68 {
        fill: url(#linear-gradient-30);
        opacity: .9;
      }

      .cls-69 {
        fill: url(#linear-gradient-15);
        opacity: .5;
      }

      .cls-70 {
        fill: url(#linear-gradient-48);
        opacity: .4;
      }

      .cls-71 {
        fill: url(#linear-gradient-14);
        opacity: .4;
      }

      .cls-72 {
        fill: url(#linear-gradient-13);
        opacity: .4;
      }

      .cls-73 {
        fill: url(#linear-gradient-47);
        opacity: .4;
      }

      .cls-74 {
        fill: url(#linear-gradient-12);
        opacity: .4;
      }

      .cls-75 {
        fill: url(#linear-gradient-46);
        opacity: .4;
      }

      .cls-76 {
        fill: url(#linear-gradient-45);
        opacity: .3;
      }

      .cls-77 {
        fill: url(#linear-gradient-56);
        opacity: .7;
      }

      .cls-78 {
        fill: url(#linear-gradient-21);
        opacity: .6;
      }

      .cls-79 {
        fill: url(#linear-gradient-32);
      }

      .cls-80 {
        fill: #353334;
      }

      .cls-81 {
        opacity: .8;
      }

      .cls-82 {
        opacity: .6;
      }

      .cls-83 {
        opacity: .5;
      }

      .cls-84 {
        fill: #727274;
        opacity: .7;
      }

      .cls-85 {
        fill: #97989a;
        opacity: .4;
      }

      .cls-12 {
        fill: url(#linear-gradient-33);
      }

      .cls-86 {
        fill: #262223;
      }

      .cls-87 {
        fill: url(#linear-gradient-34);
        opacity: 0;
      }

      .cls-88 {
        fill: url(#linear-gradient-35);
        opacity: 0;
      }
    </style>
    <linearGradient id="linear-gradient" x1="-8330.5" y1="412.4" x2="-7807.8" y2="110.6" gradientTransform="translate(-7850.3) rotate(-180) scale(1 -1)" gradientUnits="userSpaceOnUse">
      <stop offset="0" stop-color="#949292"/>
      <stop offset="1" stop-color="#fff"/>
    </linearGradient>
    <linearGradient id="linear-gradient-2" x1="-8327.7" y1="410.3" x2="-7810.1" y2="111.5" xlink:href="#linear-gradient"/>
    <linearGradient id="linear-gradient-3" x1="-8325" y1="408.3" x2="-7812.4" y2="112.3" xlink:href="#linear-gradient"/>
    <linearGradient id="linear-gradient-4" x1="-8322.2" y1="406.2" x2="-7814.7" y2="113.2" xlink:href="#linear-gradient"/>
    <linearGradient id="linear-gradient-5" x1="-8319.5" y1="404.2" x2="-7817" y2="114.1" xlink:href="#linear-gradient"/>
    <linearGradient id="linear-gradient-6" x1="-8316.7" y1="402.2" x2="-7819.3" y2="115" xlink:href="#linear-gradient"/>
    <linearGradient id="linear-gradient-7" x1="-8314" y1="400.1" x2="-7821.6" y2="115.9" xlink:href="#linear-gradient"/>
    <linearGradient id="linear-gradient-8" x1="-8311.3" y1="398.1" x2="-7823.9" y2="116.7" xlink:href="#linear-gradient"/>
    <linearGradient id="linear-gradient-9" x1="-8308.6" y1="396.1" x2="-7826.3" y2="117.6" xlink:href="#linear-gradient"/>
    <linearGradient id="linear-gradient-10" x1="-8305.9" y1="394.1" x2="-7828.6" y2="118.5" xlink:href="#linear-gradient"/>
    <linearGradient id="linear-gradient-11" x1="-8303.2" y1="392.1" x2="-7830.9" y2="119.4" xlink:href="#linear-gradient"/>
    <linearGradient id="linear-gradient-12" x1="-8300.5" y1="390.1" x2="-7833.2" y2="120.2" xlink:href="#linear-gradient"/>
    <linearGradient id="linear-gradient-13" x1="-8297.9" y1="388.1" x2="-7835.5" y2="121.1" xlink:href="#linear-gradient"/>
    <linearGradient id="linear-gradient-14" x1="-8295.2" y1="386" x2="-7837.8" y2="122" xlink:href="#linear-gradient"/>
    <linearGradient id="linear-gradient-15" x1="-8292.5" y1="384" x2="-7840.1" y2="122.9" xlink:href="#linear-gradient"/>
    <linearGradient id="linear-gradient-16" x1="-8289.8" y1="382" x2="-7842.4" y2="123.7" xlink:href="#linear-gradient"/>
    <linearGradient id="linear-gradient-17" x1="-8287.2" y1="380" x2="-7844.8" y2="124.6" xlink:href="#linear-gradient"/>
    <linearGradient id="linear-gradient-18" x1="-8284.5" y1="378" x2="-7847.1" y2="125.4" xlink:href="#linear-gradient"/>
    <linearGradient id="linear-gradient-19" x1="-8281.8" y1="376" x2="-7849.4" y2="126.3" xlink:href="#linear-gradient"/>
    <linearGradient id="linear-gradient-20" x1="-8279.2" y1="374" x2="-7851.7" y2="127.2" xlink:href="#linear-gradient"/>
    <linearGradient id="linear-gradient-21" x1="-8276.5" y1="371.9" x2="-7854" y2="128" xlink:href="#linear-gradient"/>
    <linearGradient id="linear-gradient-22" x1="-8273.8" y1="369.9" x2="-7856.4" y2="128.9" xlink:href="#linear-gradient"/>
    <linearGradient id="linear-gradient-23" x1="-8271.2" y1="367.9" x2="-7858.7" y2="129.7" xlink:href="#linear-gradient"/>
    <linearGradient id="linear-gradient-24" x1="-8268.5" y1="365.9" x2="-7861" y2="130.6" xlink:href="#linear-gradient"/>
    <linearGradient id="linear-gradient-25" x1="-8265.9" y1="363.9" x2="-7863.3" y2="131.5" xlink:href="#linear-gradient"/>
    <linearGradient id="linear-gradient-26" x1="-8263.2" y1="361.9" x2="-7865.6" y2="132.3" xlink:href="#linear-gradient"/>
    <linearGradient id="linear-gradient-27" x1="-8260.6" y1="359.8" x2="-7868" y2="133.2" xlink:href="#linear-gradient"/>
    <linearGradient id="linear-gradient-28" x1="-8257.9" y1="357.8" x2="-7870.3" y2="134" xlink:href="#linear-gradient"/>
    <linearGradient id="linear-gradient-29" x1="-8255.3" y1="355.8" x2="-7872.6" y2="134.9" xlink:href="#linear-gradient"/>
    <linearGradient id="linear-gradient-30" x1="-8252.6" y1="353.8" x2="-7874.9" y2="135.7" xlink:href="#linear-gradient"/>
    <linearGradient id="linear-gradient-31" x1="-8250" y1="351.8" x2="-7877.2" y2="136.6" xlink:href="#linear-gradient"/>
    <linearGradient id="linear-gradient-32" x1="-8247.3" y1="349.8" x2="-7879.6" y2="137.5" xlink:href="#linear-gradient"/>
    <linearGradient id="linear-gradient-33" x1="-8215.7" y1="154.6" x2="-7851.3" y2="154.6" gradientTransform="translate(-7850.3) rotate(-180) scale(1 -1)" gradientUnits="userSpaceOnUse">
      <stop offset="0" stop-color="#949292"/>
      <stop offset="1" stop-color="#fff"/>
    </linearGradient>
    <linearGradient id="linear-gradient-34" x1="-8214.7" y1="154.5" x2="-7851.9" y2="154.5" xlink:href="#linear-gradient-33"/>
    <linearGradient id="linear-gradient-35" x1="-8213.7" y1="154.3" x2="-7852.4" y2="154.3" xlink:href="#linear-gradient-33"/>
    <linearGradient id="linear-gradient-36" x1="-8212.8" y1="154.2" x2="-7853" y2="154.2" xlink:href="#linear-gradient-33"/>
    <linearGradient id="linear-gradient-37" x1="-8211.8" y1="154" x2="-7853.5" y2="154" xlink:href="#linear-gradient-33"/>
    <linearGradient id="linear-gradient-38" x1="-8210.8" y1="153.9" x2="-7854.1" y2="153.9" xlink:href="#linear-gradient-33"/>
    <linearGradient id="linear-gradient-39" x1="-8209.8" y1="153.8" x2="-7854.6" y2="153.8" xlink:href="#linear-gradient-33"/>
    <linearGradient id="linear-gradient-40" x1="-8208.8" y1="153.6" x2="-7855.2" y2="153.6" xlink:href="#linear-gradient-33"/>
    <linearGradient id="linear-gradient-41" x1="-8207.8" y1="153.5" x2="-7855.7" y2="153.5" xlink:href="#linear-gradient-33"/>
    <linearGradient id="linear-gradient-42" x1="-8206.8" y1="153.4" x2="-7856.3" y2="153.4" xlink:href="#linear-gradient-33"/>
    <linearGradient id="linear-gradient-43" x1="-8205.8" y1="153.3" x2="-7856.8" y2="153.3" xlink:href="#linear-gradient-33"/>
    <linearGradient id="linear-gradient-44" x1="-8204.8" y1="153.2" x2="-7857.4" y2="153.2" xlink:href="#linear-gradient-33"/>
    <linearGradient id="linear-gradient-45" x1="-8203.8" y1="153.1" x2="-7857.9" y2="153.1" xlink:href="#linear-gradient-33"/>
    <linearGradient id="linear-gradient-46" x1="-8202.8" y1="153.1" x2="-7858.5" y2="153.1" xlink:href="#linear-gradient-33"/>
    <linearGradient id="linear-gradient-47" x1="-8201.8" y1="153" x2="-7859.1" y2="153" xlink:href="#linear-gradient-33"/>
    <linearGradient id="linear-gradient-48" x1="-8200.9" y1="153" x2="-7859.6" y2="153" xlink:href="#linear-gradient-33"/>
    <linearGradient id="linear-gradient-49" x1="-8199.9" y1="153" x2="-7860.2" y2="153" xlink:href="#linear-gradient-33"/>
    <linearGradient id="linear-gradient-50" x1="-8198.9" y1="152.9" x2="-7860.7" y2="152.9" xlink:href="#linear-gradient-33"/>
    <linearGradient id="linear-gradient-51" x1="-8197.9" y1="153" x2="-7861.3" y2="153" xlink:href="#linear-gradient-33"/>
    <linearGradient id="linear-gradient-52" x1="-8196.9" y1="153" x2="-7861.8" y2="153" xlink:href="#linear-gradient-33"/>
    <linearGradient id="linear-gradient-53" x1="-8195.9" y1="153" x2="-7862.4" y2="153" xlink:href="#linear-gradient-33"/>
    <linearGradient id="linear-gradient-54" x1="-8194.9" y1="153.1" x2="-7862.9" y2="153.1" xlink:href="#linear-gradient-33"/>
    <linearGradient id="linear-gradient-55" x1="-8194" y1="153.2" x2="-7863.5" y2="153.2" xlink:href="#linear-gradient-33"/>
    <linearGradient id="linear-gradient-56" x1="-8193" y1="153.3" x2="-7864" y2="153.3" xlink:href="#linear-gradient-33"/>
    <linearGradient id="linear-gradient-57" x1="-8192" y1="153.4" x2="-7864.6" y2="153.4" xlink:href="#linear-gradient-33"/>
    <linearGradient id="linear-gradient-58" x1="-8191" y1="153.5" x2="-7865.1" y2="153.5" xlink:href="#linear-gradient-33"/>
    <linearGradient id="linear-gradient-59" x1="-8190" y1="153.6" x2="-7865.7" y2="153.6" xlink:href="#linear-gradient-33"/>
    <linearGradient id="linear-gradient-60" x1="-8189.1" y1="153.8" x2="-7866.3" y2="153.8" xlink:href="#linear-gradient-33"/>
    <linearGradient id="linear-gradient-61" x1="-8188.1" y1="153.9" x2="-7866.8" y2="153.9" xlink:href="#linear-gradient-33"/>
    <linearGradient id="linear-gradient-62" x1="-8187.1" y1="154.1" x2="-7867.4" y2="154.1" xlink:href="#linear-gradient-33"/>
    <linearGradient id="linear-gradient-63" x1="-8186.1" y1="154.3" x2="-7867.9" y2="154.3" xlink:href="#linear-gradient-33"/>
    <linearGradient id="linear-gradient-64" x1="-8185.1" y1="154.4" x2="-7868.5" y2="154.4" xlink:href="#linear-gradient-33"/>
  </defs>
  <!-- Generator: Adobe Illustrator 28.6.0, SVG Export Plug-In . SVG Version: 1.2.0 Build 709)  -->
  <g>
    <g id="Layer_1">
      <g class="cls-81">
        <g class="cls-82">
          <path class="cls-11" d="M6.1,27c25.3-55.3,86.1-14.1,126,32.1,78.3,90.7,159,79.9,153.2,98.9,16.5,69.2,45.1,10.8,80,47,14.5,15-4.8,67.9,66.9,75.6,28,3,33.3,47.8,60.8,56.1,12.3,3.7,21.1,13,20.8,16.5-.5,5.8-16.4,12.8-38.3,16.6-37.9,6.6-70-12.4-80.7,9.1-6.5,13-26.5,24.4-49,24-14.7-.3-30.4-5.7-44.1-19-34.6-33.8-59.5-28.4-70.8,9.1-23.4,76.9-85.6-33-104.1-62.6-24.7-39.5-62.6-40.2-69.9-58.7h0c-5.7-7.8-9.4-23.1-11.4-50C40.7,153-16.1,75.6,6.1,27Z"/>
          <path class="cls-22" d="M8,28.6C30.7-20.9,82.3,8.2,121,48.1c4.1,4.2,8,8.5,11.8,12.8,60.7,70.1,122.9,79,144.1,88.3,6,2.7,8.9,5.5,7.7,9.6,16.4,68.4,45.3,11.6,79.3,46.7,14.3,14.9-5.9,66.1,66,74.9,7.8,1,13.9,5.1,19.1,10.8,13.4,14.4,21.7,38.6,41.2,44.7,7.8,2.4,14.3,7.1,17.8,11s2.9,4.1,2.7,5.3c-.8,5.7-16.7,12.3-38.3,15.7-31.9,5-59.4-7.4-73,2.3s-4.5,4-6.1,7.3c-3.6,7.6-11.5,14.9-22.2,19.2-7.7,3.1-16.7,4.9-26.1,4.5-13.3-.5-27.5-5.2-40-15.7-1.3-1.1-2.7-2.3-4-3.6-35.4-34.4-59.3-27.5-70.8,9.1-23.1,74.9-83.7-32.2-102.5-62.3-22.9-36.6-57.1-39.4-67.4-54.3-.7-1.1-1.3-2.2-1.8-3.4h0c-5.6-7.7-9.3-22.6-11.2-49.5C42.3,153.5-14,76.7,8,28.6Z"/>
          <path class="cls-21" d="M9.8,30.3c22.4-49,73.7-19.8,111.9,19.7,4,4.2,7.9,8.4,11.7,12.7,60.4,69.5,122.3,78.2,142.8,87.4,5.8,2.7,8.7,5.5,7.5,9.6,16.4,67.6,45.4,12.4,78.6,46.4,14.1,14.7-7,64.3,65,74.2,7.7,1.1,13.7,5.1,18.9,10.7,13.3,14.2,21.7,37.9,40.9,44s14.1,7,17.6,10.9,2.8,4,2.6,5.2c-1.1,5.6-17,11.7-38.4,14.7-31.8,4.4-58.7-7.6-71.7,2.9s-4.3,4-5.8,7.4c-3.4,7.7-11,15.3-21.6,19.5-7.7,3-16.7,4.6-26.1,4-13.3-.8-27.5-5.7-39.8-16.1-1.3-1.1-2.7-2.3-4-3.6-36.3-35-59.3-26.7-70.7,9.1-23.1,72.7-81.7-31.5-100.8-62-22.7-36.3-56.7-38.9-66.8-53.4-.7-1.1-1.3-2.2-1.8-3.4h0c-5.4-7.5-9.1-22.2-11.1-48.9C43.9,154-11.9,77.8,9.8,30.3Z"/>
          <path class="cls-16" d="M11.7,32c22.2-48.5,73.1-19.1,110.8,19.9,4,4.1,7.9,8.3,11.5,12.6,60.1,69,121.6,77.5,141.5,86.5,5.7,2.8,8.4,5.5,7.4,9.6,16.3,66.7,45.6,13.2,77.9,46.1,14,14.5-8,62.4,64,73.5,7.5,1.2,13.5,5.1,18.7,10.7,13.3,14.1,21.6,37.2,40.7,43.4,7.6,2.5,13.9,6.9,17.4,10.8s2.8,4,2.5,5.1c-1.4,5.5-17.3,11.2-38.5,13.8-31.7,3.9-57.9-8-70.4,3.4s-4.1,4.1-5.5,7.4c-3.2,7.8-10.5,15.6-21.1,19.7-7.6,2.9-16.6,4.3-26.1,3.6-13.4-1-27.5-6.2-39.6-16.4-1.3-1.1-2.7-2.3-4-3.6-37.1-35.6-59.3-25.9-70.6,9.1-22.9,70.6-79.8-30.7-99.1-61.7-22.6-36.1-56.2-38.4-66.1-52.5-.7-1.1-1.3-2.2-1.8-3.4h0c-5.3-7.4-9-21.7-10.9-48.4C45.5,154.6-9.8,79,11.7,32Z"/>
          <path class="cls-18" d="M13.5,33.7C35.5-14.3,85.9,15.3,123.2,53.8c3.9,4.1,7.8,8.3,11.4,12.5,59.8,68.4,121,76.7,140.2,85.7,5.5,2.8,8.2,5.6,7.2,9.6,16.3,65.9,45.7,14,77.2,45.9,13.8,14.3-9.1,60.5,63,72.8s13.3,5.2,18.5,10.6c13.2,13.9,21.6,36.5,40.4,42.7s13.7,6.8,17.3,10.7,2.7,4,2.4,5c-1.7,5.4-17.7,10.7-38.5,12.9-31.6,3.3-57.1-8.4-69.1,3.9s-3.9,4.1-5.2,7.5c-3,7.9-9.9,16-20.5,19.9-7.6,2.8-16.6,4-26,3.1-13.4-1.3-27.6-6.7-39.5-16.8-1.3-1.1-2.7-2.3-4-3.6-37.9-36.3-59.2-25.1-70.5,9.2-22.8,68.5-77.8-30-97.5-61.4-22.4-35.8-55.7-37.8-65.5-51.6-.7-1-1.3-2.1-1.8-3.3h0c-5.2-7.2-8.9-21.3-10.8-47.8C47.1,155.1-7.7,80.1,13.5,33.7Z"/>
          <path class="cls-17" d="M15.3,35.4c21.7-47.5,71.8-17.8,108.6,20.4,3.9,4.1,7.7,8.2,11.3,12.4,59.5,67.9,120.4,76,138.9,84.8,5.3,2.8,7.9,5.6,7,9.6,16.2,65.1,45.9,14.8,76.4,45.6,13.6,14.2-10.2,58.6,62,72.2,7.2,1.4,13.1,5.2,18.2,10.6,13.2,13.7,21.6,35.8,40.2,42.1s13.4,6.8,17.1,10.6,2.7,3.9,2.3,5c-2,5.3-18,10.2-38.6,12-31.5,2.7-58.9-10.9-67.7,4.5-2.1,1.6-3.7,4.2-4.9,7.6-2.8,8-9.4,16.4-19.9,20.2-7.6,2.7-16.6,3.7-26,2.6-13.4-1.5-27.6-7.2-39.3-17.1-1.3-1.1-2.7-2.4-4-3.6-38.7-37-59.1-24.2-70.5,9.2-22.6,66.4-75.8-29.2-95.8-61.1-22.2-35.5-55.2-37.3-64.9-50.6-.7-1-1.3-2.1-1.7-3.3h0c-5.1-7.1-8.7-20.8-10.6-47.2C48.7,155.6-5.7,81.2,15.3,35.4Z"/>
          <path class="cls-20" d="M17.2,37.1c21.5-46.9,71.2-17.1,107.4,20.6,3.9,4,7.6,8.1,11.2,12.2,59.1,67.3,119.8,75.2,137.6,83.9,5.2,2.8,7.7,5.7,6.9,9.6,16.2,64.3,46,15.6,75.7,45.3,13.4,14-11.3,56.7,61,71.5,7.1,1.4,12.9,5.2,18,10.5,13.1,13.5,21.5,35.1,39.9,41.5,7.1,2.5,13.2,6.7,16.9,10.4s2.6,3.9,2.2,4.9c-2.3,5.2-18.3,9.6-38.7,11-31.3,2.1-58.7-11.6-66.4,5-2,1.6-3.5,4.2-4.6,7.7-2.6,8.1-8.9,16.8-19.4,20.4-7.5,2.6-16.5,3.4-25.9,2.2-13.4-1.8-27.6-7.6-39.1-17.5-1.3-1.2-2.7-2.4-4-3.6-39.5-37.6-59-23.4-70.4,9.2-22.4,64.3-73.9-28.4-94.2-60.8-22.1-35.3-54.8-36.8-64.2-49.7-.7-1-1.2-2.1-1.7-3.2h0c-5-6.9-8.6-20.4-10.5-46.7C50.3,156.2-3.6,82.4,17.2,37.1Z"/>
          <path class="cls-19" d="M19,38.8C40.2-7.7,89.6,22.3,125.3,59.6c3.8,4,7.5,8.1,11.1,12.1,58.8,66.7,119.1,74.5,136.3,83,5,2.9,7.5,5.7,6.7,9.6,16.1,63.5,46.2,16.4,75,45,13.2,13.8-12.4,54.8,60,70.8,7,1.5,12.7,5.3,17.8,10.5,13.1,13.3,21.5,34.4,39.7,40.8s13,6.6,16.7,10.3,2.6,3.9,2.1,4.8c-2.6,5.1-18.6,9.1-38.8,10.1-31.2,1.6-58.4-12.3-65.1,5.5-1.8,1.7-3.3,4.2-4.3,7.7-2.4,8.2-8.4,17.2-18.8,20.6-7.5,2.5-16.5,3.1-25.9,1.7-13.5-2-27.7-8.1-39-17.8-1.3-1.2-2.7-2.4-4-3.6-40.4-38.3-58.9-22.6-70.3,9.2-22.2,62.2-71.9-27.7-92.5-60.6-21.9-35-54.3-36.2-63.6-48.8-.6-1-1.2-2.1-1.7-3.2h0c-4.8-6.8-8.4-19.9-10.3-46.1C51.9,156.7-1.5,83.5,19,38.8Z"/>
          <path class="cls-15" d="M20.8,40.4c21-45.9,70-15.8,105.2,21.1,3.8,4,7.5,8,11,12,58.5,66.2,118.5,73.7,135,82.1,4.8,2.9,7.2,5.7,6.5,9.6,16.1,62.7,46.3,17.2,74.3,44.8,13,13.6-13.5,52.9,59,70.1,6.8,1.6,12.5,5.3,17.6,10.4,13,13.1,21.4,33.7,39.5,40.2,6.9,2.5,12.8,6.5,16.6,10.2s2.5,3.8,2,4.8c-2.9,5-18.9,8.6-38.8,9.2-31.1,1-58.2-13.1-63.8,6.1-1.7,1.7-3.1,4.3-4,7.8-2.2,8.4-7.8,17.5-18.2,20.8-7.4,2.4-16.5,2.8-25.8,1.3-13.5-2.3-27.7-8.6-38.8-18.1-1.3-1.2-2.7-2.4-4-3.6-41.2-38.9-58.9-21.8-70.2,9.2-22.1,60.1-70-26.9-90.8-60.3-21.7-34.7-53.8-35.7-63-47.9-.6-1-1.2-2-1.7-3.2h0c-4.7-6.6-8.3-19.5-10.2-45.6C53.5,157.2.6,84.7,20.8,40.4Z"/>
          <path class="cls-47" d="M22.7,42.1C43.4-3.2,92,27,126.7,63.5c3.7,3.9,7.4,7.9,10.9,11.9,58.2,65.6,117.9,73,133.7,81.2,4.6,2.9,7,5.8,6.4,9.6,16,61.8,46.5,18,73.6,44.5,12.9,13.4-14.7,50.9,58,69.4,6.7,1.7,12.3,5.3,17.3,10.4,13,12.9,21.4,33,39.2,39.6s12.6,6.5,16.4,10.1,2.4,3.8,1.8,4.7c-3.2,4.9-19.3,8-38.9,8.3-31,.4-58-13.8-62.4,6.6-1.6,1.7-2.9,4.3-3.7,7.9-2,8.5-7.3,17.9-17.6,21.1-7.4,2.3-16.4,2.5-25.8.8-13.5-2.5-27.7-9.1-38.7-18.5s-2.7-2.4-4-3.6c-42-39.5-58.8-20.9-70.2,9.3-21.9,58-68-26.1-89.2-60-21.6-34.5-53.3-35.2-62.4-46.9-.6-1-1.2-2-1.7-3.1h0c-4.6-6.5-8.2-19-10-45C55.1,157.7,2.7,85.8,22.7,42.1Z"/>
          <path class="cls-66" d="M24.5,43.8C45-1,93.3,29.3,127.5,65.4c3.7,3.9,7.3,7.8,10.8,11.8,57.9,65.1,117.3,72.3,132.5,80.3,4.5,2.9,6.7,5.8,6.2,9.6,16,61,46.6,18.8,72.9,44.2,12.7,13.3-15.8,48.9,57,68.7,6.5,1.8,12.1,5.3,17.1,10.3,12.9,12.7,21.4,32.3,39,38.9s12.4,6.4,16.2,10,2.4,3.8,1.7,4.6c-3.6,4.8-19.6,7.5-39,7.3-30.9-.2-57.8-14.6-61.1,7.1-1.5,1.7-2.7,4.4-3.4,7.9-1.8,8.6-6.8,18.3-17.1,21.3-7.4,2.2-16.4,2.3-25.7.3-13.5-2.8-27.8-9.6-38.5-18.8s-2.7-2.4-4-3.6c-42.9-40.2-58.7-20.1-70.1,9.3-21.7,55.9-66.1-25.4-87.5-59.7-21.4-34.2-52.9-34.6-61.7-46-.6-1-1.2-2-1.6-3.1h0c-4.5-6.4-8-18.6-9.9-44.5C56.6,158.3,4.8,86.9,24.5,43.8Z"/>
          <path class="cls-74" d="M26.4,45.5c20.3-44.3,68.1-13.8,101.8,21.8,3.7,3.9,7.2,7.8,10.7,11.6,57.6,64.5,116.6,71.5,131.2,79.4,4.3,2.9,6.5,5.8,6,9.6,16,60.2,46.8,19.6,72.2,43.9,12.5,13.1-16.9,46.9,56.1,68.1,6.4,1.9,11.9,5.4,16.9,10.3,12.9,12.5,21.3,31.6,38.7,38.3,6.5,2.5,12.2,6.3,16,9.8s2.3,3.7,1.6,4.6c-3.9,4.7-19.9,6.9-39,6.4-30.8-.8-57.5-15.3-59.8,7.6-1.4,1.7-2.4,4.4-3.1,8-1.6,8.7-6.2,18.7-16.5,21.5-7.3,2.1-16.3,2-25.7-.1-13.6-3-27.8-10.1-38.3-19.2s-2.7-2.4-4-3.6c-43.7-40.8-58.6-19.3-70,9.3-21.5,53.8-64.1-24.6-85.8-59.4-21.2-33.9-52.4-34.1-61.1-45.1-.6-1-1.1-1.9-1.6-3h0c-4.4-6.2-7.9-18.1-9.7-43.9C58.2,158.8,6.9,88.1,26.4,45.5Z"/>
          <path class="cls-72" d="M28.2,47.2c20-43.8,67.5-13.2,100.7,22,3.6,3.8,7.1,7.7,10.6,11.5,57.3,64,116,70.8,129.9,78.5,4.1,3,6.3,5.9,5.9,9.6,15.9,59.4,46.9,20.4,71.4,43.7,12.3,12.9-18,44.8,55.1,67.4,6.2,1.9,11.7,5.4,16.7,10.2,12.9,12.3,21.3,30.9,38.5,37.7s12,6.2,15.8,9.7,2.3,3.7,1.5,4.5c-4.3,4.6-20.2,6.4-39.1,5.5-30.7-1.4-57.3-16-58.5,8.2-1.3,1.7-2.2,4.4-2.8,8.1-1.4,8.8-5.7,19-15.9,21.8-7.3,2-16.3,1.7-25.6-.6-13.6-3.3-27.8-10.6-38.2-19.5s-2.7-2.4-4-3.6c-44.5-41.4-58.5-18.5-69.9,9.3-21.3,51.7-62.1-23.8-84.2-59.1-21-33.7-51.9-33.6-60.5-44.2-.6-1-1.1-1.9-1.6-3h0c-4.2-6.1-7.7-17.7-9.6-43.4C59.8,159.3,9,89.2,28.2,47.2Z"/>
          <path class="cls-71" d="M30,48.9c19.8-43.3,66.9-12.5,99.6,22.3,3.6,3.8,7.1,7.6,10.4,11.4,56.9,63.4,115.4,70,128.6,77.6,3.9,3,6,5.9,5.7,9.6,15.9,58.6,47.1,21.2,70.7,43.4,12.1,12.7-19.2,42.7,54.1,66.7s11.5,5.4,16.4,10.2c12.8,12.1,21.3,30.1,38.2,37s11.8,6.1,15.7,9.6,2.2,3.6,1.4,4.4c-4.6,4.5-20.5,5.8-39.2,4.6-30.6-2.1-57.1-16.8-57.2,8.7-1.2,1.7-2,4.5-2.5,8.1-1.2,8.9-5.2,19.4-15.3,22-7.3,1.9-16.3,1.4-25.6-1.1-13.6-3.6-27.9-11.1-38-19.8s-2.7-2.4-4-3.6c-45.4-42-58.4-17.7-69.9,9.3-21.1,49.6-60.2-23.1-82.5-58.8-20.9-33.4-51.5-33-59.8-43.2-.6-.9-1.1-1.9-1.6-2.9h0c-4.1-5.9-7.6-17.2-9.4-42.8C61.4,159.8,11.1,90.3,30,48.9Z"/>
          <path class="cls-69" d="M31.9,50.6c19.6-42.8,66.3-11.9,98.5,22.5,3.5,3.8,7,7.6,10.3,11.3,56.6,62.8,114.8,69.3,127.3,76.7,3.8,3,5.8,5.9,5.5,9.6,15.8,57.7,47.2,22,70,43.1,11.9,12.6-20.3,40.6,53.1,66s11.3,5.5,16.2,10.1c12.8,12,21.2,29.4,38,36.4s11.6,6.1,15.5,9.5,2.1,3.6,1.3,4.3c-5,4.4-20.9,5.2-39.3,3.6-30.5-2.7-56.8-17.5-55.8,9.2-1.1,1.7-1.8,4.5-2.2,8.2-1,9-4.6,19.8-14.8,22.2-7.2,1.8-16.2,1.1-25.5-1.5-13.6-3.8-27.9-11.6-37.8-20.2s-2.7-2.4-4-3.6c-46.2-42.7-58.3-16.9-69.8,9.4-20.8,47.5-58.2-22.3-80.9-58.5-20.7-33.1-51-32.5-59.2-42.3-.5-.9-1.1-1.9-1.6-2.9h0c-4-5.8-7.5-16.8-9.3-42.2C63,160.4,13.1,91.5,31.9,50.6Z"/>
          <path class="cls-62" d="M33.7,52.2c19.3-42.2,65.7-11.2,97.3,22.7,3.5,3.7,6.9,7.5,10.2,11.2,56.3,62.3,114.2,68.5,126,75.8,3.6,3,5.5,6,5.4,9.6,15.8,56.9,47.4,22.8,69.3,42.8,11.8,12.4-21.4,38.5,52.1,65.3,5.8,2.1,11.1,5.5,16,10.1,12.7,11.8,21.2,28.7,37.7,35.8,5.9,2.5,11.3,6,15.3,9.4s2.1,3.6,1.2,4.3c-5.3,4.3-21.2,4.7-39.3,2.7-30.4-3.3-56.6-18.3-54.5,9.8-1,1.7-1.6,4.6-1.9,8.3-.8,9.1-4.1,20.2-14.2,22.5-7.2,1.7-16.2.8-25.5-2-13.7-4.1-27.9-12.1-37.7-20.5s-2.7-2.4-4-3.6c-47-43.3-58.2-16-69.7,9.4-20.6,45.4-56.3-21.5-79.2-58.2-20.5-32.9-50.5-32-58.6-41.4-.5-.9-1.1-1.8-1.5-2.9h0c-3.9-5.6-7.3-16.3-9.1-41.7-4.4-60.6-53.7-128.9-35.3-169.2Z"/>
          <path class="cls-59" d="M35.5,53.9c19.1-41.7,65.1-10.6,96.2,23,3.4,3.7,6.8,7.4,10.1,11,56,61.7,113.5,67.8,124.7,74.9,3.4,3.1,5.3,6,5.2,9.5,15.7,56.1,47.5,23.6,68.6,42.5,11.6,12.2-22.5,36.3,51.1,64.7,5.7,2.2,10.9,5.5,15.8,10,12.7,11.6,21.1,28,37.5,35.1s11.1,5.9,15.1,9.3,2,3.5,1.1,4.2c-5.7,4.2-21.5,4.1-39.4,1.8-30.3-3.9-56.4-19-53.2,10.3-.9,1.7-1.4,4.6-1.6,8.3-.6,9.2-3.6,20.5-13.6,22.7-7.1,1.6-16.2.5-25.4-2.5-13.7-4.3-28-12.6-37.5-20.9-1.4-1.2-2.7-2.4-4-3.6-47.9-43.9-58.1-15.2-69.6,9.4-20.3,43.3-54.3-20.8-77.5-57.9-20.4-32.6-50-31.4-57.9-40.5-.5-.9-1-1.8-1.5-2.8h0c-3.8-5.5-7.2-15.9-9-41.1-4.3-60-53.2-127.7-35-167.5Z"/>
          <path class="cls-57" d="M37.4,55.6c18.8-41.2,64.4-9.9,95.1,23.2,3.4,3.7,6.7,7.3,10,10.9,55.7,61.2,112.9,67,123.4,74,3.2,3.1,5.1,6.1,5,9.5,15.7,55.3,47.7,24.4,67.9,42.3,11.4,12-23.6,34.1,50.1,64,5.6,2.3,10.7,5.5,15.5,9.9,12.6,11.4,21.1,27.3,37.2,34.5,5.6,2.5,10.9,5.8,14.9,9.1s1.9,3.5,1,4.1c-6,4.1-21.8,3.5-39.5.9-30.2-4.6-56.2-19.8-51.9,10.8-.8,1.7-1.2,4.7-1.3,8.4-.4,9.3-3,20.9-13.1,22.9-7.1,1.5-16.1.2-25.4-2.9-13.7-4.6-28-13.1-37.3-21.2s-2.7-2.4-4-3.6c-48.7-44.5-58-14.4-69.6,9.4-20.1,41.2-52.4-20-75.9-57.6-20.2-32.3-49.6-30.9-57.3-39.5-.5-.9-1-1.8-1.5-2.8h0c-3.6-5.3-7-15.4-8.8-40.6-4.3-59.5-52.7-126.6-34.7-165.8Z"/>
          <path class="cls-56" d="M39.2,57.3c18.6-40.7,63.8-9.3,94,23.5,3.4,3.7,6.7,7.3,9.9,10.8,55.4,60.6,112.3,66.3,122.1,73.1,3.1,3.1,4.8,6.1,4.9,9.5,15.6,54.5,47.8,25.2,67.2,42,11.2,11.9-24.6,31.9,49.1,63.3,5.4,2.3,10.5,5.6,15.3,9.9,12.6,11.2,21.1,26.6,37,33.9s10.7,5.8,14.8,9,1.9,3.4.9,4.1c-6.4,3.9-22.2,3-39.5,0-30.1-5.2-55.9-20.5-50.5,11.4-.7,1.7-1,4.7-1,8.5-.1,9.5-2.5,21.3-12.5,23.2-7.1,1.4-16.1-.1-25.3-3.4-13.7-4.9-28-13.6-37.2-21.6s-2.7-2.4-4-3.6c-49.6-45.2-57.8-13.6-69.5,9.4-19.8,39.1-50.4-19.3-74.2-57.3-20-32-49.1-30.4-56.7-38.6-.5-.9-1-1.8-1.5-2.7h0c-3.5-5.2-6.9-15-8.7-40-4.3-59-52.1-125.5-34.4-164.2Z"/>
          <path class="cls-54" d="M41,59c18.4-40.1,63.2-8.6,92.8,23.7,3.3,3.6,6.6,7.2,9.8,10.7,55.1,60,111.7,65.5,120.8,72.2,2.9,3.1,4.6,6.1,4.7,9.5,15.6,53.6,48,26,66.4,41.7,11,11.7-25.7,29.6,48.1,62.6,5.3,2.4,10.3,5.6,15.1,9.8,12.5,11,21,25.8,36.7,33.2s10.5,5.7,14.6,8.9,1.8,3.4.8,4c-6.7,3.8-22.5,2.4-39.6-1-29.9-5.9-55.7-21.2-49.2,11.9-.6,1.7-.7,4.7-.7,8.5,0,9.6-2,21.7-11.9,23.4-7,1.3-16-.4-25.3-3.8-13.8-5.1-28.1-14-37-21.9-1.4-1.2-2.7-2.4-4-3.6-50.4-45.8-57.7-12.7-69.4,9.5-19.5,37.1-48.5-18.5-72.5-57-19.9-31.8-48.6-29.9-56.1-37.7-.5-.9-1-1.7-1.5-2.7h0c-3.4-5.1-6.7-14.5-8.5-39.5-4.2-58.5-51.6-124.3-34.1-162.5Z"/>
          <path class="cls-78" d="M42.9,60.7c18.1-39.6,62.6-7.9,91.7,23.9,3.3,3.6,6.5,7.1,9.7,10.6,54.7,59.5,111,64.8,119.5,71.3,2.7,3.2,4.4,6.2,4.5,9.5,15.5,52.8,48.1,26.8,65.7,41.4,10.8,11.5-26.7,27.3,47.1,61.9,5.1,2.4,10.1,5.6,14.8,9.8,12.5,10.8,21,25.1,36.5,32.6,5.2,2.5,10.3,5.6,14.4,8.8s1.8,3.4.7,3.9c-7.1,3.7-22.8,1.8-39.7-1.9-29.8-6.6-55.5-22-47.9,12.4-.5,1.7-.5,4.8-.4,8.6.3,9.7-1.4,22-11.3,23.6-7,1.1-16-.7-25.2-4.3-13.8-5.4-28.1-14.5-36.8-22.2-1.4-1.2-2.7-2.4-4-3.6-51.3-46.4-57.6-11.9-69.3,9.5-19.2,35-46.5-17.7-70.9-56.7-19.7-31.5-48.1-29.3-55.4-36.8-.5-.9-1-1.7-1.4-2.7h0c-3.3-4.9-6.6-14.1-8.4-38.9-4.2-57.9-51.1-123.2-33.9-160.8Z"/>
          <path class="cls-42" d="M44.7,62.3c17.9-39.1,62-7.3,90.6,24.2,3.2,3.6,6.4,7.1,9.6,10.5,54.4,58.9,110.4,64,118.2,70.4,2.5,3.2,4.1,6.2,4.4,9.5,15.5,52,48.3,27.6,65,41.2,10.7,11.3-27.7,24.9,46.2,61.2,5,2.5,9.9,5.7,14.6,9.7,12.4,10.6,21,24.4,36.2,32,5.1,2.5,10,5.6,14.2,8.7s1.7,3.3.6,3.9c-7.5,3.5-23.1,1.2-39.8-2.8-29.7-7.2-55.3-22.7-46.6,13-.4,1.7-.3,4.8-.1,8.7.5,9.8-.9,22.4-10.8,23.9-6.9,1-16-1-25.2-4.8-13.8-5.6-28.1-15-36.7-22.6s-2.7-2.4-4-3.6c-52.1-47-57.4-11.1-69.3,9.5-18.9,32.9-44.5-17-69.2-56.4-19.5-31.2-47.7-28.8-54.8-35.8-.5-.9-.9-1.7-1.4-2.6h0c-3.2-4.8-6.5-13.6-8.2-38.4-4.2-57.4-50.5-122.1-33.6-159.1Z"/>
          <path class="cls-39" d="M46.6,64c17.6-38.6,61.4-6.6,89.5,24.4,3.2,3.5,6.3,7,9.4,10.3,54.1,58.4,109.8,63.3,117,69.5,2.4,3.2,3.9,6.2,4.2,9.5,15.4,51.2,48.4,28.4,64.3,40.9,10.5,11.1-28.7,22.6,45.2,60.6,4.9,2.5,9.7,5.7,14.4,9.7,12.4,10.4,20.9,23.7,36,31.3s9.8,5.5,14,8.5,1.6,3.3.4,3.8c-7.8,3.4-23.4.6-39.8-3.8-29.6-7.9-55-23.5-45.2,13.5-.2,1.7,0,4.9.2,8.7.7,9.9-.4,22.8-10.2,24.1-6.9.9-15.9-1.3-25.1-5.2-13.8-5.9-28.1-15.5-36.5-22.9s-2.7-2.4-4-3.6c-53-47.6-57.3-10.3-69.2,9.5-18.6,30.9-42.6-16.2-67.6-56.1-19.4-31-47.2-28.3-54.2-34.9-.4-.8-.9-1.6-1.4-2.6h0c-3.1-4.6-6.3-13.2-8.1-37.8-4.1-56.9-50-120.9-33.3-157.4Z"/>
          <path class="cls-37" d="M48.4,65.7c17.4-38,60.7-6,88.4,24.7,3.1,3.5,6.3,6.9,9.3,10.2,53.8,57.8,109.2,62.6,115.7,68.6,2.2,3.2,3.6,6.3,4,9.5,15.4,50.4,48.6,29.2,63.6,40.6,10.3,11-29.7,20.1,44.2,59.9,4.8,2.6,9.5,5.7,14.2,9.6,12.3,10.2,20.9,22.9,35.7,30.7s9.6,5.4,13.9,8.4,1.6,3.2.3,3.7c-8.2,3.2-23.8,0-39.9-4.7-29.5-8.6-54.8-24.2-43.9,14-.1,1.7.1,4.9.5,8.8.9,10,.2,23.2-9.6,24.3-6.9.8-15.9-1.6-25.1-5.7-13.9-6.2-28.2-16-36.3-23.3s-2.7-2.4-4-3.6c-53.8-48.2-57.1-9.4-69.1,9.6-18.2,28.8-40.6-15.4-65.9-55.8-19.2-30.7-46.7-27.7-53.5-34-.4-.8-.9-1.6-1.4-2.5h0c-2.9-4.5-6.2-12.7-7.9-37.3-4.1-56.4-49.5-119.8-33-155.8Z"/>
          <path class="cls-35" d="M50.2,67.4c17.2-37.5,60.1-5.3,87.2,24.9,3.1,3.5,6.2,6.8,9.2,10.1,53.5,57.2,108.5,61.8,114.4,67.7,2,3.2,3.4,6.3,3.9,9.5,15.3,49.5,48.7,30,62.9,40.3,10.1,10.8-30.6,17.7,43.2,59.2s9.3,5.7,13.9,9.6c12.3,10.1,20.9,22.2,35.5,30,4.7,2.5,9.4,5.4,13.7,8.3s1.5,3.2.2,3.6c-8.5,3.1-24.1-.6-40-5.6-29.4-9.3-48.3-26.3-42.6,14.5s.3,4.9.8,8.9c1.1,10.1.7,23.5-9,24.5-6.8.7-15.8-1.9-25-6.2-13.9-6.4-28.2-16.5-36.2-23.6s-2.7-2.4-4-3.6c-54.7-48.8-56.9-8.6-69,9.6-17.8,26.8-38.7-14.7-64.2-55.6-19-30.4-46.2-27.2-52.9-33.1-.4-.8-.9-1.6-1.4-2.5h0c-2.8-4.3-6-12.3-7.8-36.7-4-55.8-48.9-118.7-32.7-154.1Z"/>
          <path class="cls-34" d="M52.1,69.1c16.9-37,59.5-4.7,86.1,25.1,3.1,3.4,6.1,6.8,9.1,10,53.2,56.7,107.9,61.1,113.1,66.8,1.9,3.3,3.2,6.3,3.7,9.5,15.3,48.7,48.9,30.8,62.2,40.1,9.9,10.6-31.5,15.2,42.2,58.5,4.5,2.6,9.1,5.8,13.7,9.5,12.2,9.9,20.8,21.5,35.2,29.4,4.5,2.5,9.2,5.3,13.5,8.2s1.4,3.1.1,3.6c-8.9,2.9-24.4-1.2-40-6.5-29.2-10-48.8-27.1-41.3,15.1s.6,5,1.1,8.9c1.4,10.2,1.2,23.9-8.5,24.8-6.8.6-15.8-2.2-25-6.6-13.9-6.7-28.2-17-36-24s-2.7-2.4-4-3.6c-55.5-49.4-56.7-7.7-68.9,9.6-17.4,24.7-36.7-13.9-62.6-55.3-18.9-30.2-45.8-26.7-52.3-32.1-.4-.8-.9-1.6-1.3-2.5h0c-2.7-4.2-5.9-11.8-7.7-36.1-4-55.3-48.4-117.5-32.4-152.4Z"/>
          <path class="cls-32" d="M53.9,70.8c16.7-36.5,58.9-4,85,25.4,3,3.4,6,6.7,9,9.9,52.9,56.1,107.3,60.3,111.8,65.9,1.7,3.3,2.9,6.4,3.6,9.5,15.2,47.9,49,31.6,61.4,39.8,9.7,10.4-32.4,12.7,41.2,57.8,4.4,2.7,8.9,5.8,13.5,9.5,12.2,9.7,20.8,20.7,35,28.8s8.9,5.2,13.3,8.1,1.4,3.1,0,3.5c-9.2,2.8-24.7-1.8-40.1-7.5-29.1-10.7-49.4-27.7-40,15.6.4,1.7.8,5,1.4,9,1.6,10.3,1.8,24.3-7.9,25-6.8.5-15.8-2.5-24.9-7.1-13.9-7-28.3-17.5-35.9-24.3-1.4-1.2-2.7-2.4-4-3.6-56.4-50-56.5-6.9-68.9,9.6-17,22.7-34.8-13.1-60.9-55-18.7-29.9-45.3-26.1-51.7-31.2-.4-.8-.8-1.5-1.3-2.4h0c-2.6-4-5.8-11.4-7.5-35.6-4-54.8-47.9-116.4-32.2-150.7Z"/>
          <path class="cls-30" d="M55.7,72.5c16.4-35.9,58.3-3.3,83.9,25.6,3,3.4,5.9,6.6,8.9,9.7,52.5,55.6,106.7,59.6,110.5,65,1.5,3.3,2.7,6.4,3.4,9.5,15.2,47.1,49.2,32.4,60.7,39.5,9.6,10.3-33.2,10.1,40.2,57.1,4.3,2.7,8.7,5.8,13.3,9.4,12.1,9.5,20.8,20,34.7,28.1s8.7,5.2,13.2,8,1.3,3.1,0,3.4c-9.6,2.6-25-2.4-40.2-8.4-29-11.4-50-28.4-38.6,16.1.4,1.7,1,5.1,1.7,9.1,1.8,10.4,2.3,24.7-7.3,25.2-6.7.4-15.7-2.8-24.9-7.5-13.9-7.2-28.3-18-35.7-24.6-1.4-1.2-2.7-2.4-4-3.6-57.3-50.6-56.3-6-68.8,9.6s-32.8-12.4-59.2-54.7c-18.5-29.6-44.8-25.6-51-30.3-.4-.8-.8-1.5-1.3-2.4h0c-2.5-3.9-5.6-10.9-7.4-35-3.9-54.3-47.3-115.3-31.9-149Z"/>
          <path class="cls-29" d="M57.6,74.1c16.2-35.4,57.7-2.7,82.7,25.8,2.9,3.3,5.9,6.5,8.8,9.6,52.2,55,106,58.8,109.2,64.1,1.3,3.3,2.4,6.4,3.2,9.5,15.1,46.3,49.3,33.2,60,39.2,9.4,10.1-34,7.5,39.2,56.5,4.1,2.8,8.5,5.9,13,9.4,12.1,9.3,20.8,19.3,34.5,27.5,4.1,2.5,8.5,5.1,13,7.8s1.2,3-.2,3.4c-9.9,2.4-25.3-3-40.3-9.3-28.8-12.1-50.7-28.9-37.3,16.7.5,1.7,1.2,5.1,2,9.1,2,10.5,2.8,25-6.8,25.5-6.7.3-15.7-3.1-24.9-8-13.9-7.5-28.3-18.5-35.5-25-1.4-1.2-2.7-2.4-4-3.6-58.1-51.2-56.1-5.1-68.7,9.7s-30.8-11.6-57.6-54.4c-18.4-29.4-44.3-25.1-50.4-29.4-.4-.8-.8-1.5-1.3-2.3h0c-2.3-3.8-5.5-10.5-7.2-34.5-3.9-53.8-46.8-114.1-31.6-147.4Z"/>
          <path class="cls-68" d="M59.4,75.8c16-34.9,57.1-2,81.6,26.1,2.9,3.3,5.8,6.5,8.7,9.5,51.9,54.5,105.4,58.1,107.9,63.2,1.2,3.4,2.2,6.5,3.1,9.5,15.1,45.5,49.5,34,59.3,39,9.2,9.9-34.7,4.8,38.2,55.8,4,2.8,8.3,5.9,12.8,9.3,12,9.1,20.8,18.5,34.2,26.9s8.3,5.1,12.8,7.7,1.2,3-.3,3.3c-10.3,2.3-25.6-3.6-40.3-10.2-28.7-12.9-51.5-29.4-36,17.2.6,1.7,1.4,5.1,2.3,9.2,2.2,10.6,3.4,25.4-6.2,25.7-6.6.2-15.6-3.4-24.8-8.5-14-7.8-28.3-19-35.4-25.3-1.4-1.2-2.7-2.4-4-3.6-59-51.8-55.8-4.1-68.6,9.7-15.7,16.8-28.9-10.8-55.9-54.1-18.2-29.1-43.9-24.5-49.8-28.4-.3-.8-.8-1.5-1.3-2.3h0c-2.2-3.6-5.3-10-7.1-33.9-3.8-53.2-46.2-113-31.3-145.7Z"/>
          <path class="cls-67" d="M61.3,77.5c15.7-34.4,56.4-1.4,80.5,26.3,2.8,3.3,5.7,6.4,8.6,9.4,51.6,53.9,104.8,57.3,106.6,62.3,1,3.4,2,6.5,2.9,9.5,15,44.6,49.6,34.8,58.6,38.7,9,9.7-35.4,2.1,37.2,55.1,3.9,2.8,8.1,5.9,12.6,9.3,12,8.9,20.7,17.8,34,26.2s8.1,5,12.6,7.6,1.1,2.9-.4,3.2c-10.6,2.1-25.9-4.3-40.4-11.2-28.5-13.6-52.2-29.8-34.7,17.7s1.6,5.2,2.6,9.3c2.5,10.7,3.9,25.8-5.6,25.9-6.6.1-15.6-3.7-24.8-8.9-14-8-28.4-19.5-35.2-25.7-1.4-1.2-2.7-2.4-4-3.6-59.8-52.4-55.5-3.1-68.6,9.7-15.2,14.9-26.9-10.1-54.3-53.8-18-28.8-43.4-24-49.1-27.5-.3-.7-.8-1.4-1.2-2.3h0c-2.1-3.5-5.2-9.6-6.9-33.4-3.8-52.7-45.7-111.9-31-144Z"/>
          <path class="cls-79" d="M335.1,365.9c13,0,4.8-29.1,2.2-35.5-29.5-72.8,41.1-.3,73.8-6.2,1.6-.3,1.9-2.4.5-3.1-20.7-11.3-30.8-21.9-46.2-33.1-89.5-65.3-39.3-53.6-48.6-63.6-8.6-2.9-47.6,6.5-60.6-47.9-1.2-5.1-60-8.4-113.8-70.7-23.6-27.3-63.9-60.4-79.4-26.6-14.4,31.6,27,90.1,30.7,142.3,2.1,29.5,6.4,31.3,8,35,5.6,3.1,30.7-2,48.5,26.6,27.6,44.2,37.9,66.6,52.6,53.5,13.6-12.1,7.6-65,72.5-6.2,10.9,9.9,43.1,35.4,59.7,35.4Z"/>
        </g>
        <g class="cls-83">
          <path class="cls-12" d="M285.4,158c5.8-18.9-75-8.2-153.2-98.9C82.2,1.3,28.4-21.6,6.1,27c-22.2,48.6,34.6,126,39.5,194.4,2.1,29.3,6.4,44.8,12.9,51.9,8.7,9.4,21.6,3.9,39-4.1,30.5-14,35.5,43.7,64.7,30.5,29.2-13.2,28.4-28,85.2,0,56.8,28,51.1-18.1,64.3-16.5,8,1,37.2-1,48.8-10.3,7.7-6.1,7.7-15.5-10.9-29.2-47-34.6-74.9-50.7-64.3-85.7Z"/>
          <path class="cls-87" d="M6.7,27.3c-22.1,48.3,34.5,125.4,39.5,193.6.2,3.4.5,6.6.8,9.6,2.3,23,6.2,35.9,11.9,42.2,7.3,8,17.5,5.2,31.4-.9,2.4-1,4.8-2.1,7.4-3.3,30.5-13.8,35.8,43.4,64.4,30.5,18.3-8.2,24.4-17.6,40.8-16.2,9.8.8,23,5.4,43.8,15.7,34.1,16.8,45.8,7.1,52.5-2.9,4.3-6.5,6.6-13,11.7-12.6s15.8-.3,27-2.5c1.9-.4,3.7-.8,5.6-1.2,6.2-1.6,12-3.8,15.9-6.8,6.4-4.9,7.6-12.3-2.5-22.2-2.2-2.1-4.9-4.4-8.2-6.8-46.3-34.1-74.6-50.4-64-85.5,4.9-18.6-75.1-8.6-152.7-98.3-2.4-2.8-4.8-5.5-7.3-8.1C77.6.4,27.8-18.8,6.7,27.3Z"/>
          <path class="cls-88" d="M7.2,27.7c-21.9,47.9,34.3,124.8,39.5,192.8.3,3.3.5,6.5.8,9.5,2.2,22.9,6.1,35.8,11.8,42s17,5.3,31.2-1c2.4-1,4.8-2.1,7.3-3.3,30.6-13.6,36,43.2,64.1,30.5,18.2-8.2,23.8-18,40.3-16.6,9.8.8,23.1,5.4,43.7,15.6,33.6,16.6,45.5,7.6,52.4-2.1,4.4-6.3,6.7-12.7,11.7-12.5s15.6-.8,26.8-2.9c1.9-.4,3.7-.7,5.6-1.2,6.2-1.5,12-3.7,15.9-6.6,6.5-4.8,7.7-12.3-2.3-22-2.2-2.1-4.9-4.4-8.2-6.8-45.6-33.5-74.2-50.2-63.7-85.3,4.1-18.3-75.3-8.9-152.2-97.7-2.4-2.8-4.8-5.5-7.2-8.1C78.1,1.7,28.2-18.3,7.2,27.7Z"/>
          <path class="cls-51" d="M7.7,28.1c-21.8,47.6,34.2,124.1,39.4,192,.3,3.3.5,6.5.8,9.5,2.2,22.7,6,35.6,11.6,41.9s16.6,5.3,31.1-1c2.4-1,4.8-2.1,7.3-3.2,30.6-13.4,36.3,43,63.9,30.5,18.1-8.2,23.3-18.3,39.9-17,9.9.8,23.2,5.5,43.6,15.6,33.1,16.4,45.3,8.1,52.3-1.2,4.5-6,6.8-12.1,11.8-12.4s15.3-1.3,26.5-3.3c1.9-.3,3.6-.7,5.6-1.1,6.2-1.4,11.9-3.6,15.9-6.5,6.6-4.7,7.9-12.4-2.1-21.9s-4.9-4.4-8.2-6.7c-45-33-73.9-49.9-63.4-85.1,3.2-17.9-75.4-9.2-151.7-97.1-2.4-2.8-4.8-5.4-7.2-8.1C78.6,2.9,28.7-17.8,7.7,28.1Z"/>
          <path class="cls-45" d="M8.2,28.5c-21.6,47.2,34,123.5,39.4,191.2.3,3.3.5,6.5.8,9.5,2.2,22.6,5.9,35.5,11.4,41.8s16.1,5.4,30.9-1.1c2.4-1,4.8-2.1,7.3-3.2,30.6-13.3,36.6,42.7,63.6,30.6,18-8.1,22.8-18.7,39.4-17.4,10,.8,23.3,5.5,43.5,15.5,32.7,16.2,45.1,8.6,52.2-.4,4.5-5.8,6.9-12.1,11.8-12.3s15.1-1.7,26.2-3.7c1.9-.3,3.6-.6,5.6-1.1,6.2-1.4,11.9-3.5,15.9-6.3,6.6-4.6,8-12.4-1.8-21.8s-4.9-4.3-8.2-6.7c-44.3-32.4-73.5-49.6-63.1-85,2.4-17.6-75.5-9.5-151.2-96.4-2.4-2.7-4.8-5.4-7.2-8C79.2,4.2,29.2-17.2,8.2,28.5Z"/>
          <path class="cls-44" d="M8.7,28.9c-21.5,46.9,33.9,122.9,39.3,190.4.3,3.3.5,6.4.8,9.4,2.2,22.4,5.8,35.3,11.3,41.7s15.7,5.4,30.7-1.2c2.4-1,4.8-2.1,7.3-3.2,30.6-13.1,36.8,42.5,63.3,30.6,18-8.1,22.3-19.1,38.9-17.8,10,.7,23.4,5.5,43.4,15.4,32.2,15.9,44.8,9.2,52.1.4,4.6-5.6,7-11.7,11.8-12.2s14.8-2.2,26-4.1c1.9-.3,3.5-.6,5.6-1,6.1-1.3,11.9-3.4,15.9-6.1,6.7-4.5,8.2-12.4-1.6-21.6-2.2-2.1-4.9-4.3-8.2-6.6-43.6-31.9-73.2-49.3-62.8-84.8,1.5-17.2-75.7-9.9-150.7-95.8-2.4-2.7-4.8-5.4-7.2-8C79.7,5.4,29.6-16.7,8.7,28.9Z"/>
          <path class="cls-65" d="M9.2,29.3c-21.4,46.5,33.7,122.2,39.3,189.6.3,3.3.5,6.4.8,9.4,2.1,22.2,5.7,35.2,11.1,41.5,6.5,7.7,15.2,5.5,30.5-1.3,2.3-1,4.8-2.1,7.2-3.1,30.6-12.9,37.1,42.3,63,30.6,17.9-8,21.8-19.4,38.5-18.2,10.1.7,23.5,5.6,43.3,15.4,31.7,15.7,44.6,9.7,52,1.3,4.7-5.4,7.1-11.4,11.9-12.1s14.5-2.7,25.7-4.5c1.9-.3,3.4-.6,5.6-1,6.1-1.2,11.8-3.3,15.9-5.9,6.8-4.4,8.3-12.4-1.4-21.5s-4.9-4.3-8.1-6.6c-42.9-31.3-72.8-49.1-62.6-84.6.7-16.9-75.8-10.2-150.2-95.2-2.4-2.7-4.7-5.4-7.1-8C80.2,6.7,30.1-16.2,9.2,29.3Z"/>
          <path class="cls-64" d="M9.7,29.6c-21.2,46.2,33.6,121.6,39.3,188.8.3,3.3.6,6.4.8,9.3,2.1,22.1,5.7,35,10.9,41.4s14.8,5.5,30.3-1.3c2.3-1,4.7-2.1,7.2-3.1,30.7-12.7,37.3,42.1,62.7,30.6,17.8-8,21.3-19.8,38-18.7,10.2.7,23.6,5.6,43.2,15.3,31.2,15.5,44.4,10.2,51.9,2.1,4.7-5.2,7.2-11.1,11.9-12s14.3-3.2,25.4-4.9c1.9-.3,3.4-.5,5.6-.9,6.1-1.2,11.8-3.2,15.9-5.7,6.9-4.3,8.4-12.5-1.2-21.4s-5-4.2-8.1-6.6c-42.3-30.8-72.5-48.8-62.3-84.4-.2-16.5-76-10.5-149.7-94.6-2.4-2.7-4.7-5.3-7.1-7.9C80.7,7.9,30.6-15.7,9.7,29.6Z"/>
          <path class="cls-50" d="M10.2,30c-21.1,45.8,33.4,121,39.2,188,.3,3.2.6,6.3.8,9.3,2.1,21.9,5.6,34.9,10.8,41.3,6.2,7.6,14.3,5.6,30.1-1.4,2.3-1,4.7-2.1,7.2-3.1,30.7-12.6,37.6,41.8,62.4,30.6,17.7-8,20.8-20.2,37.5-19.1,10.2.6,23.8,5.6,43.1,15.3,30.7,15.3,44.1,10.7,51.8,3,4.8-5,7.4-10.8,11.9-11.9s14-3.6,25.2-5.3c1.9-.3,3.3-.5,5.6-.9,6.1-1.1,11.7-3.1,15.9-5.6,7-4.2,8.6-12.5-.9-21.2s-5-4.2-8.1-6.5c-41.6-30.2-72.1-48.5-62-84.2-1-16.2-76.1-10.8-149.2-94-2.3-2.7-4.7-5.3-7.1-7.9C81.2,9.2,31-15.2,10.2,30Z"/>
          <path class="cls-49" d="M10.8,30.4c-20.9,45.5,33.3,120.3,39.2,187.2.3,3.2.6,6.3.8,9.3,2,21.8,5.5,34.7,10.6,41.1s13.9,5.6,29.9-1.5c2.3-1,4.7-2.1,7.2-3,30.7-12.4,37.8,41.6,62.1,30.7,17.6-7.9,20.3-20.5,37.1-19.5,10.3.6,23.9,5.7,43,15.2,30.2,15.1,43.9,11.2,51.6,3.8,4.9-4.7,7.5-10.5,12-11.8s13.8-4.1,24.9-5.7c1.9-.3,3.3-.4,5.6-.8,6-1,11.7-3,15.9-5.4,7-4,8.7-12.5-.7-21.1-2.3-2.1-5-4.2-8.1-6.5-40.9-29.7-71.7-48.3-61.7-84.1-1.9-15.8-76.3-11.1-148.7-93.4-2.3-2.7-4.7-5.3-7-7.8C81.8,10.4,31.5-14.7,10.8,30.4Z"/>
          <path class="cls-48" d="M11.3,30.8c-20.8,45.1,33.1,119.7,39.1,186.4.3,3.2.6,6.3.8,9.2,2,21.6,5.4,34.6,10.4,41s13.5,5.7,29.7-1.5c2.3-1,4.7-2.1,7.1-3,30.8-12.2,38.1,41.4,61.9,30.7,17.5-7.9,19.8-20.9,36.6-19.9,10.4.6,24,5.7,42.9,15.1,29.8,14.8,43.7,11.7,51.5,4.6,4.9-4.5,7.6-10.2,12-11.7s13.5-4.6,24.6-6.1c1.9-.3,3.2-.4,5.5-.8,6-1,11.7-2.8,15.9-5.2,7.1-3.9,8.8-12.5-.5-20.9s-5-4.2-8.1-6.4c-40.3-29.1-71.4-48-61.4-83.9-2.7-15.5-76.4-11.5-148.2-92.8-2.3-2.6-4.7-5.2-7-7.8C82.3,11.7,32-14.2,11.3,30.8Z"/>
          <path class="cls-46" d="M11.8,31.2c-20.6,44.7,33,119.1,39.1,185.5.3,3.2.6,6.2.8,9.2,2,21.5,5.3,34.4,10.3,40.9s13,5.7,29.6-1.6c2.3-1,4.7-2,7.1-3,30.8-12,38.4,41.1,61.6,30.7,17.5-7.8,19.3-21.3,36.1-20.3,10.4.6,24.1,5.7,42.8,15.1,29.3,14.6,43.4,12.2,51.4,5.5,5-4.3,7.7-9.9,12-11.6s13.2-5.1,24.4-6.5c1.9-.2,3.2-.4,5.5-.7,6-.9,11.6-2.7,15.9-5,7.2-3.8,9-12.5-.3-20.8s-5-4.1-8.1-6.4c-39.6-28.6-71-47.7-61.1-83.7-3.6-15.2-76.6-11.8-147.7-92.2-2.3-2.6-4.6-5.2-7-7.8C82.8,12.9,32.5-13.7,11.8,31.2Z"/>
          <path class="cls-76" d="M12.3,31.5c-20.5,44.4,32.8,118.4,39.1,184.7.3,3.2.6,6.2.8,9.1,1.9,21.3,5.2,34.3,10.1,40.7s12.6,5.7,29.4-1.7c2.3-1,4.7-2,7.1-2.9,30.8-11.8,38.6,40.9,61.3,30.7,17.4-7.8,18.8-21.6,35.6-20.7,10.5.5,24.2,5.8,42.7,15,28.8,14.4,43.2,12.7,51.3,6.3,5.1-4.1,7.8-9.6,12.1-11.5s13-5.5,24.1-6.9c1.9-.2,3.1-.3,5.5-.7,6-.9,11.6-2.6,16-4.8,7.3-3.7,9.1-12.6,0-20.7s-5-4.1-8.1-6.3c-38.9-28.1-70.7-47.5-60.9-83.5-4.4-14.8-76.7-12.1-147.2-91.6-2.3-2.6-4.6-5.2-6.9-7.7C83.3,14.2,32.9-13.2,12.3,31.5Z"/>
          <path class="cls-75" d="M12.8,31.9c-20.3,44,32.7,117.8,39,183.9.3,3.1.6,6.2.8,9.1,1.9,21.2,5.1,34.1,10,40.6s12.1,5.8,29.2-1.8c2.3-1,4.7-2,7.1-2.9,30.9-11.6,38.9,40.7,61,30.7,17.3-7.7,18.3-22,35.2-21.1,10.6.5,24.3,5.8,42.6,15,28.3,14.2,42.9,13.2,51.2,7.1,5.2-3.9,7.9-9.4,12.1-11.4s12.7-6,23.8-7.3c1.9-.2,3-.3,5.5-.6,5.9-.8,11.6-2.5,16-4.6,7.4-3.6,9.3-12.6.2-20.5s-5-4.1-8.1-6.3c-38.3-27.5-70.3-47.2-60.6-83.3-5.3-14.5-76.8-12.4-146.6-91-2.3-2.6-4.6-5.1-6.9-7.7C83.9,15.4,33.4-12.7,12.8,31.9Z"/>
          <path class="cls-73" d="M13.3,32.3c-20.2,43.7,32.5,117.2,39,183.1.3,3.1.6,6.1.8,9.1,1.9,21,5,34,9.8,40.5s11.7,5.8,29-1.8c2.3-1,4.7-2,7-2.9,30.9-11.4,39.1,40.4,60.7,30.8,17.2-7.7,17.8-22.4,34.7-21.6,10.6.5,24.4,5.8,42.5,14.9,27.8,13.9,42.7,13.7,51.1,8,5.2-3.7,8.1-9.1,12.2-11.3s12.5-6.5,23.6-7.7c1.9-.2,3-.3,5.5-.6,5.9-.8,11.5-2.4,16-4.5,7.5-3.5,9.4-12.6.4-20.4-2.3-2-5-4-8.1-6.2-37.7-26.9-70-46.9-60.3-83.1-6.1-14.1-77-12.8-146.1-90.4-2.3-2.6-4.6-5.1-6.9-7.6C84.4,16.7,33.9-12.1,13.3,32.3Z"/>
          <path class="cls-70" d="M13.8,32.7c-20,43.3,32.4,116.5,39,182.3.3,3.1.6,6.1.8,9,1.8,20.9,5,33.8,9.6,40.3s11.2,5.9,28.8-1.9c2.3-1,4.7-2,7-2.8,30.9-11.2,39.4,40.2,60.4,30.8,17.1-7.7,17.3-22.7,34.2-22,10.7.4,24.5,5.9,42.4,14.8,27.3,13.7,42.5,14.2,51,8.8,5.3-3.5,8.2-8.8,12.2-11.2s12.2-7,23.3-8.1c1.9-.2,2.9-.2,5.5-.5,5.9-.7,11.5-2.3,16-4.3,7.5-3.3,9.5-12.6.6-20.3s-5-4-8.1-6.2c-37-26.3-69.6-46.6-60-83-6.9-13.8-77.1-13.1-145.6-89.8-2.3-2.5-4.6-5.1-6.9-7.6C84.9,17.9,34.3-11.6,13.8,32.7Z"/>
          <path class="cls-63" d="M14.4,33.1c-19.9,43,32.2,115.9,38.9,181.5.3,3.1.6,6.1.8,9,1.8,20.7,4.9,33.6,9.5,40.2s10.8,5.9,28.6-2c2.3-1,4.6-2,7-2.8,31-11,39.6,40,60.1,30.8,17-7.6,16.8-23.1,33.8-22.4,10.8.4,24.7,5.9,42.2,14.8,26.9,13.5,42.2,14.7,50.9,9.7,5.4-3.2,8.3-8.5,12.2-11.1s12-7.4,23-8.5c1.9-.2,2.9-.2,5.5-.5,5.8-.7,11.5-2.2,16-4.1,7.6-3.2,9.7-12.7.9-20.1s-5-4-8.1-6.1c-36.3-25.8-69.3-46.4-59.7-82.8-7.8-13.4-77.3-13.4-145.1-89.2-2.3-2.5-4.5-5.1-6.8-7.6C85.4,19.2,34.8-11.1,14.4,33.1Z"/>
          <path class="cls-61" d="M14.9,33.5c-19.7,42.6,32.1,115.3,38.9,180.7.3,3.1.6,6,.8,8.9,1.8,20.6,4.8,33.5,9.3,40.1s10.4,6,28.4-2.1c2.3-1,4.6-2,7-2.8,31-10.8,39.9,39.8,59.9,30.8,17-7.6,16.3-23.5,33.3-22.8,10.8.4,24.8,5.9,42.1,14.7,26.4,13.3,42,15.2,50.8,10.5,5.4-3,8.4-8.3,12.3-11s11.7-7.9,22.7-8.9c1.9-.2,2.8-.2,5.5-.4,5.8-.6,11.4-2.1,16-3.9,7.7-3.1,9.8-12.7,1.1-20s-5-4-8.1-6.1c-35.7-25.3-68.9-46.1-59.4-82.6-8.6-13.1-77.4-13.7-144.6-88.6-2.3-2.5-4.5-5-6.8-7.5C85.9,20.4,35.3-10.6,14.9,33.5Z"/>
          <path class="cls-60" d="M15.4,33.8c-19.6,42.3,31.9,114.6,38.8,179.9.3,3,.6,6,.8,8.9,1.8,20.4,4.7,33.3,9.1,39.9s9.9,6,28.2-2.1c2.3-1,4.6-2,6.9-2.8,31-10.6,40.2,39.5,59.6,30.8,16.9-7.5,15.8-23.8,32.8-23.2,10.9.4,24.9,6,42,14.6,25.9,13.1,41.8,15.7,50.7,11.3,5.5-2.8,8.5-8,12.3-10.9s11.4-8.4,22.5-9.3c1.9-.2,2.7-.1,5.5-.4,5.8-.6,11.4-2,16-3.7,7.8-3,9.9-12.7,1.3-19.8s-5-3.9-8.1-6c-35-24.7-68.6-45.8-59.2-82.4-9.5-12.7-77.6-14.1-144.1-88-2.3-2.5-4.5-5-6.8-7.5C86.5,21.7,35.7-10.1,15.4,33.8Z"/>
          <path class="cls-58" d="M15.9,34.2c-19.4,41.9,31.8,114,38.8,179.1.3,3,.6,6,.8,8.9,1.7,20.3,4.6,33.2,9,39.8s9.5,6.1,28.1-2.2c2.3-1,4.6-1.9,6.9-2.7,31.1-10.4,40.4,39.3,59.3,30.9,16.8-7.5,15.3-24.2,32.4-23.6,11,.3,25,6,41.9,14.6,25.4,12.8,41.5,16.2,50.6,12.2,5.6-2.6,8.6-7.7,12.3-10.8s11.2-8.9,22.2-9.7c1.9-.1,2.7,0,5.5-.3,5.7-.5,11.4-1.9,16-3.6,7.9-2.9,10-12.7,1.5-19.7s-5.1-3.9-8-6c-34.3-24.2-68.2-45.6-58.9-82.2-10.3-12.4-77.7-14.4-143.6-87.4-2.2-2.5-4.5-5-6.7-7.5C87,22.9,36.2-9.6,15.9,34.2Z"/>
          <path class="cls-55" d="M16.4,34.6c-19.3,41.6,31.6,113.4,38.8,178.3.3,3,.6,6,.9,8.8,1.7,20.1,4.5,33,8.8,39.7s9,6.1,27.9-2.3c2.3-1,4.6-1.9,6.9-2.7,31.1-10.2,40.7,39.1,59,30.9,16.7-7.4,14.8-24.6,31.9-24,11,.3,25.1,6,41.8,14.5,24.9,12.6,41.3,16.7,50.5,13,5.6-2.4,8.7-7.4,12.4-10.7s10.9-9.3,21.9-10.1c1.9-.1,2.6,0,5.5-.3,5.7-.5,11.3-1.8,16-3.4,8-2.8,10.2-12.7,1.8-19.6s-5.1-3.9-8-6c-33.6-23.6-67.9-45.3-58.6-82.1-11.2-12.1-77.9-14.7-143.1-86.8-2.2-2.5-4.5-4.9-6.7-7.4C87.5,24.2,36.7-9.1,16.4,34.6Z"/>
          <path class="cls-53" d="M16.9,35c-19.1,41.2,31.5,112.7,38.7,177.5.3,3,.6,5.9.9,8.8,1.7,19.9,4.5,32.9,8.6,39.6s8.6,6.2,27.7-2.4c2.3-1,4.6-1.9,6.9-2.7,31.1-10,40.9,38.8,58.7,30.9,16.6-7.4,14.3-24.9,31.4-24.5,11.1.3,25.2,6.1,41.7,14.5,24.5,12.4,41.1,17.2,50.4,13.9,5.7-2.2,8.8-7.2,12.4-10.6s10.7-9.8,21.7-10.5c1.9-.1,2.6,0,5.4-.2,5.7-.4,11.3-1.6,16-3.2,8-2.6,10.3-12.7,2-19.4s-5.1-3.8-8-5.9c-33-23.1-67.5-45-58.3-81.9-12-11.7-78-15-142.6-86.2-2.2-2.4-4.4-4.9-6.7-7.4C88,25.4,37.1-8.6,16.9,35Z"/>
          <path class="cls-52" d="M17.4,35.4C-1.5,76.3,48.8,147.5,56.1,212c.3,3,.6,5.9.9,8.7,1.6,19.8,4.4,32.7,8.5,39.4s8.1,6.2,27.5-2.4c2.3-1,4.6-1.9,6.8-2.6,31.2-9.8,41.2,38.6,58.4,30.9,16.5-7.4,13.8-25.3,31-24.9,11.2.3,25.3,6.1,41.6,14.4,24,12.2,40.8,17.7,50.3,14.7,5.8-1.9,8.9-6.9,12.4-10.5s10.4-10.3,21.4-10.9c1.9-.1,2.5,0,5.4-.2,5.7-.4,11.3-1.5,16-3,8.1-2.5,10.4-12.8,2.2-19.3s-5.1-3.8-8-5.9c-32.3-22.5-67.2-44.7-58-81.7-12.9-11.4-78.1-15.3-142.1-85.6-2.2-2.4-4.4-4.9-6.6-7.3C88.5,26.7,37.6-8.1,17.4,35.4Z"/>
          <path class="cls-77" d="M17.9,35.7C-.9,76.3,49.1,147.2,56.6,211.6c.3,3,.6,5.9.9,8.7,1.6,19.6,4.3,32.6,8.3,39.3s7.7,6.3,27.3-2.5c2.3-1,4.6-1.9,6.8-2.6,31.2-9.6,41.5,38.4,58.1,30.9,16.5-7.3,13.3-25.7,30.5-25.3,11.2.2,25.4,6.1,41.5,14.3,23.5,12,40.6,18.2,50.2,15.5,5.9-1.7,9-6.6,12.5-10.4s10.1-10.8,21.1-11.3c1.9,0,2.4,0,5.4-.1,5.6-.3,11.2-1.4,16-2.8,8.2-2.4,10.6-12.8,2.4-19.1s-5.1-3.8-8-5.8c-31.6-22.1-66.8-44.5-57.7-81.5-13.7-11-78.3-15.7-141.6-85-2.2-2.4-4.4-4.8-6.6-7.3C89.1,27.9,38.1-7.6,17.9,35.7Z"/>
          <path class="cls-41" d="M18.5,36.1C-.2,76.3,49.5,147,57.1,211.2c.3,2.9.6,5.8.9,8.7,1.6,19.5,4.2,32.4,8.1,39.2s7.3,6.3,27.1-2.6c2.3-1,4.6-1.9,6.8-2.6,31.3-9.4,41.7,38.1,57.8,30.9,16.4-7.3,12.8-26,30-25.7,11.3.2,25.6,6.2,41.4,14.3,23,11.7,40.4,18.7,50.1,16.4,5.9-1.5,9-6.4,12.5-10.3s9.9-11.2,20.9-11.7c1.9,0,2.4,0,5.4,0,5.6-.3,11.2-1.3,16-2.6,8.3-2.3,10.7-12.8,2.7-19s-5.1-3.8-8-5.8c-30.9-21.5-66.5-44.2-57.5-81.3-14.6-10.7-78.4-16-141.1-84.4-2.2-2.4-4.4-4.8-6.6-7.3C89.6,29.2,38.5-7.1,18.5,36.1Z"/>
          <path class="cls-43" d="M19,36.5C.5,76.4,49.9,146.7,57.5,210.8c.3,2.9.6,5.8.9,8.6,1.5,19.3,4.1,32.2,8,39s6.8,6.4,26.9-2.7c2.3-1,4.6-1.9,6.8-2.5,31.3-9.2,42,37.9,57.6,31,16.3-7.2,12.3-26.4,29.5-26.1,11.4.2,25.7,6.2,41.3,14.2,22.5,11.5,40.1,19.2,49.9,17.2,6-1.3,9.1-6.1,12.5-10.2s9.6-11.7,20.6-12.1c1.9,0,2.3,0,5.4,0,5.6-.2,11.2-1.2,16.1-2.5,8.4-2.2,10.8-12.8,2.9-18.9s-5.1-3.7-8-5.7c-30.2-21-66.1-43.9-57.2-81.2-15.4-10.3-78.6-16.3-140.6-83.8-2.2-2.4-4.4-4.8-6.6-7.2C90.1,30.4,39-6.5,19,36.5Z"/>
          <path class="cls-40" d="M19.5,36.9C1.1,76.4,50.2,146.5,58,210.3c.4,2.9.6,5.8.9,8.6,1.5,19.2,4.1,32.1,7.8,38.9s6.4,6.4,26.7-2.7c2.3-1,4.5-1.9,6.7-2.5,31.3-9,42.2,37.7,57.3,31,16.2-7.2,11.8-26.8,29.1-26.5,11.4.1,25.8,6.2,41.2,14.1,22,11.3,39.9,19.7,49.8,18.1,6.1-1.1,9.2-5.8,12.6-10.1s9.4-12.2,20.3-12.5c1.9,0,2.3.1,5.4,0,5.5-.2,11.1-1.1,16.1-2.3,8.5-2,11-12.8,3.1-18.7s-5.1-3.7-8-5.7c-29.6-20.4-65.8-43.7-56.9-81-16.3-10-78.7-16.6-140.1-83.2-2.2-2.4-4.3-4.8-6.5-7.2C90.6,31.7,39.5-6,19.5,36.9Z"/>
          <path class="cls-38" d="M20,37.3C1.8,76.4,50.6,146.2,58.5,209.9c.4,2.9.6,5.7.9,8.5,1.5,19,4,31.9,7.7,38.8s5.9,6.5,26.6-2.8c2.3-1,4.5-1.9,6.7-2.5,31.4-8.8,42.5,37.5,57,31,16.1-7.2,11.3-27.1,28.6-26.9,11.5.1,25.9,6.3,41.1,14.1,21.6,11.1,39.7,20.2,49.7,18.9,6.1-.9,9.3-5.6,12.6-10s9.1-12.7,20.1-12.9c1.9,0,2.2.2,5.4,0,5.5-.2,11.1-1,16.1-2.1,8.5-1.9,11.1-12.8,3.3-18.6s-5.1-3.7-8-5.6c-28.9-19.9-65.4-43.4-56.6-80.8-17.1-9.6-78.9-17-139.6-82.6-2.2-2.3-4.3-4.7-6.5-7.2C91.1,32.9,39.9-5.5,20,37.3Z"/>
          <path class="cls-36" d="M20.5,37.7c-18.1,38.8,30.4,108.3,38.4,171.8.4,2.9.6,5.7.9,8.5,1.4,18.9,3.9,31.8,7.5,38.6s5.5,6.5,26.4-2.9c2.3-1,4.5-1.8,6.7-2.4,31.4-8.6,42.7,37.2,56.7,31,16-7.1,10.8-27.5,28.1-27.4,11.6,0,26,6.3,41,14,21.1,10.8,39.4,20.7,49.6,19.7,6.2-.6,9.4-5.3,12.6-9.9s8.8-13.1,19.8-13.4c1.9,0,2.1.2,5.4.1,5.5-.1,11.1-.9,16.1-1.9,8.6-1.8,11.2-12.8,3.6-18.5s-5.1-3.6-8-5.6c-28.2-19.3-65.1-43.1-56.3-80.6-18-9.3-79-17.3-139-82-2.2-2.3-4.3-4.7-6.5-7.1C91.7,34.2,40.4-5,20.5,37.7Z"/>
          <path class="cls-33" d="M21,38c-17.9,38.4,30.3,107.7,38.4,171,.4,2.8.7,5.7.9,8.5,1.4,18.7,3.8,31.6,7.3,38.5s5,6.6,26.2-2.9c2.3-1,4.5-1.8,6.7-2.4,31.5-8.3,43,37,56.4,31,16-7.1,10.3-27.9,27.7-27.8,11.6,0,26.1,6.3,40.9,14,20.6,10.6,39.2,21.2,49.5,20.6,6.3-.4,9.5-5,12.7-9.8s8.6-13.6,19.5-13.8c1.9,0,2.1.2,5.4.2,5.4,0,11-.8,16.1-1.7,8.7-1.7,11.3-12.8,3.8-18.3s-5.1-3.6-8-5.5c-27.6-18.8-64.7-42.9-56-80.4-18.8-8.9-79.2-17.6-138.5-81.4-2.1-2.3-4.3-4.7-6.4-7.1C92.2,35.4,40.9-4.5,21,38Z"/>
          <path class="cls-31" d="M21.5,38.4c-17.8,38.1,30.2,107,38.4,170.2.4,2.8.7,5.6.9,8.4,1.4,18.6,3.8,31.4,7.2,38.4s4.6,6.6,26-3c2.3-1,4.5-1.8,6.6-2.4,31.5-8.1,43.3,36.8,56.1,31.1,15.9-7,9.8-28.2,27.2-28.2,11.7,0,26.2,6.4,40.8,13.9,20.1,10.4,39,21.7,49.4,21.4,6.3-.2,9.6-4.8,12.7-9.7s8.3-14.1,19.3-14.2c1.9,0,2,.2,5.4.2,5.4,0,11-.6,16.1-1.6,8.8-1.6,11.4-12.8,4-18.2-2.5-1.8-5.1-3.6-8-5.5-26.9-18.2-64.4-42.6-55.8-80.3-19.7-8.6-79.3-17.9-138-80.8-2.1-2.3-4.3-4.6-6.4-7C92.7,36.7,41.3-4,21.5,38.4Z"/>
          <path class="cls-28" d="M273.2,288c14.9,0,12.6-24.1,31.7-24.1s2,.3,5.3.3c5.4,0,11-.5,16.1-1.4,8.9-1.5,11.6-12.9,4.2-18-25.6-18-72.9-43.7-63.4-85.5-21.3-8.6-83.8-19-143.9-87.2C93.2,37.9,41.8-3.5,22.1,38.8,3.6,78.2,56.4,151.4,61.2,216.6c1.4,18.4,3.7,31.3,7,38.2,2.9,6.1,4.2,6.6,25.8-3.1,36.5-16.5,49.3,34.6,62.5,28.8,15.8-7,9.3-28.6,26.7-28.6,27.9,0,71.7,36.1,90,36.1Z"/>
        </g>
        <g>
          <path class="cls-4" d="M64.3,64.4c3.6,1.8,7.4,2.2,10.5,1.5s5.6-2.4,6.4-4.7c.9-2.3.5-4.2-1.2-6.1s-4.9-3.8-9.7-6.1c-3.7-1.8-7.5-3.1-10.6-3.3s-5.5.5-6.4,2.8c-.9,2.3,0,5.3,1.9,8.2s5.1,5.7,8.9,7.6Z"/>
          <path class="cls-7" d="M53.9,48.8c-.8,2.2,0,5.1,1.9,7.9s5,5.5,8.6,7.3c3.5,1.8,7.1,2.1,10.1,1.5,3-.6,5.3-2.3,6.2-4.5.9-2.2.5-4.1-1.2-5.9-1.7-1.9-4.8-3.7-9.4-5.9-3.6-1.7-7.3-3-10.2-3.2-3.1-.3-5.3.5-6.1,2.8Z"/>
          <path class="cls-25" d="M54.3,49.2c-.7,2.1.1,4.9,2,7.5s4.8,5.2,8.2,7c3.3,1.7,6.8,2.1,9.7,1.5,2.9-.6,5.1-2.1,6-4.2.9-2.2.5-3.9-1.1-5.7-1.7-1.8-4.8-3.6-9-5.6-3.6-1.7-7.1-2.9-9.9-3.1-3-.3-5.2.6-5.9,2.7Z"/>
          <path class="cls-85" d="M54.7,49.5c-.6,2,.2,4.6,2,7.1s4.6,5,7.9,6.7c3.2,1.6,6.5,2,9.3,1.4,2.8-.5,4.9-2,5.8-4,.9-2.1.5-3.8-1.1-5.5-1.7-1.8-4.7-3.5-8.7-5.4-3.5-1.7-6.9-2.8-9.5-3.1-3-.3-5,.6-5.6,2.7Z"/>
          <path class="cls-3" d="M55.2,49.9c-.5,1.9.3,4.4,2,6.8s4.4,4.7,7.6,6.3c3,1.6,6.2,1.9,8.8,1.4,2.6-.5,4.7-1.9,5.6-3.7.9-2,.5-3.6-1-5.2-1.7-1.7-4.6-3.4-8.4-5.2-3.4-1.7-6.7-2.7-9.2-3-2.9-.3-4.8.6-5.3,2.6Z"/>
          <path class="cls-14" d="M55.6,50.2c-.4,1.8.4,4.2,2.1,6.4s4.2,4.5,7.2,6c2.9,1.5,5.9,1.8,8.4,1.4,2.5-.5,4.5-1.7,5.3-3.5.9-1.9.5-3.5-1-5-1.6-1.7-4.6-3.3-8.1-5-3.4-1.6-6.5-2.7-8.9-2.9s-4.6.6-5.1,2.6Z"/>
          <path class="cls-84" d="M56.1,50.5c-.3,1.7.5,3.9,2.1,6.1s4,4.2,6.9,5.7c2.7,1.4,5.6,1.7,8,1.3,2.4-.4,4.3-1.6,5.1-3.2.9-1.8.5-3.3-1-4.8-1.6-1.6-4.5-3.2-7.8-4.8-3.3-1.6-6.3-2.6-8.5-2.8s-4.5.6-4.8,2.5Z"/>
          <path class="cls-5" d="M56.5,50.9c-.2,1.6.6,3.7,2.1,5.7s3.9,4,6.6,5.4c2.6,1.3,5.3,1.7,7.6,1.3,2.3-.4,4.1-1.5,4.9-3,.9-1.7.5-3.2-.9-4.6-1.6-1.6-4.4-3.1-7.5-4.5-3.3-1.6-6.1-2.5-8.2-2.7s-4.3.6-4.6,2.4Z"/>
          <path class="cls-23" d="M56.9,51.2c-.1,1.5.7,3.5,2.2,5.3s3.7,3.7,6.2,5.1c2.5,1.3,5,1.6,7.1,1.3,2.2-.3,3.9-1.3,4.7-2.7.9-1.6.4-3-.9-4.4-1.6-1.6-4.4-3-7.2-4.3-3.2-1.6-5.9-2.4-7.9-2.6-2.8-.3-4.1.6-4.3,2.4Z"/>
          <path class="cls-6" d="M57.4,51.6c0,1.4.8,3.2,2.2,5s3.5,3.5,5.9,4.7c2.3,1.2,4.7,1.5,6.7,1.2,2.1-.3,3.7-1.2,4.5-2.5.9-1.5.4-2.9-.8-4.1-1.6-1.5-4.3-2.9-6.9-4.1-3.2-1.5-5.7-2.3-7.5-2.6-2.7-.3-4,.7-4,2.3Z"/>
          <path class="cls-9" d="M76.1,59.9c2.1-3.3-3.2-5.8-7.3-7.8-8-3.9-11-2.8-11-.2s.9,3,2.2,4.6,3.3,3.3,5.6,4.4c4.4,2.2,9.1,1.2,10.5-1Z"/>
          <path class="cls-8" d="M75.4,59.5c2-3.2-3.1-5.5-7-7.4-15.2-7.3-11.7,4.1-3.1,8.5,4.2,2.1,8.7,1.2,10.1-1.1Z"/>
          <path class="cls-27" d="M74.6,59.1c2-3.1-2.9-5.3-6.6-7.1-14.5-7-11.2,4-3,8.2,4,2,8.3,1.1,9.6-1.1Z"/>
          <path class="cls-24" d="M73.8,58.7c1.9-3-2.7-5-6.2-6.7-13.7-6.6-10.6,3.9-2.9,7.8,3.8,1.9,7.8,1,9.1-1.1Z"/>
          <path class="cls-80" d="M73.1,58.3c1.8-2.9-2.5-4.8-5.9-6.4-13-6.2-10.1,3.8-2.8,7.5,3.6,1.8,7.4.9,8.7-1.1Z"/>
          <path class="cls-13" d="M72.3,57.9c1.7-2.7-2.4-4.6-5.5-6.1-12.2-5.8-9.6,3.7-2.7,7.2,3.4,1.7,7,.8,8.2-1.1Z"/>
          <path class="cls-1" d="M71.5,57.5c1.7-2.6-2.2-4.3-5.2-5.7-11.5-5.4-9.1,3.6-2.6,6.8,3.2,1.6,6.6.7,7.8-1.1Z"/>
          <path class="cls-2" d="M70.8,57.1c1.6-2.5-2-4.1-4.8-5.4-10.7-5-8.6,3.5-2.5,6.5,2.9,1.5,6.2.6,7.3-1.1Z"/>
          <path class="cls-26" d="M70,56.7c1.5-2.4-1.8-3.8-4.4-5-10-4.6-8,3.4-2.4,6.2,2.7,1.4,5.8.5,6.8-1.1Z"/>
          <path class="cls-86" d="M69.2,56.3c1.4-2.2-1.7-3.6-4.1-4.7-9.2-4.2-7.5,3.3-2.3,5.8,2.5,1.2,5.4.4,6.4-1.1Z"/>
          <path class="cls-10" d="M68.5,55.9c1.3-2.1-1.5-3.3-3.7-4.3-8.5-3.9-7,3.2-2.2,5.5,2.3,1.1,5,.3,5.9-1.2Z"/>
        </g>
        <g>
          <path class="cls-4" d="M55.5,72.9c.9,5.8-.4,11.1-2.7,15s-5.8,6.4-9.4,6.6c-7.1.3-9.7-5.3-11.6-20.3-.7-5.8-.8-11.5.3-15.8s3.2-7.2,6.8-7.4c3.6-.1,7.3,2.3,10.3,6.3s5.4,9.6,6.3,15.6Z"/>
          <path class="cls-7" d="M49,57.8c2.9,3.9,5.2,9.3,6.1,15.1.8,5.6-.3,10.8-2.6,14.6-2.2,3.8-5.6,6.3-9,6.5-7.1.4-9.5-5.6-11.3-19.9-.7-5.7-.7-11.3.3-15.5,1-4.3,3.1-7.1,6.6-7.2.4,0,.7,0,1.1,0,3.1.4,6.3,2.7,8.9,6.3Z"/>
          <path class="cls-25" d="M48.8,58.3c2.8,3.8,5,9,5.9,14.7.8,5.4-.3,10.4-2.5,14.1-2.2,3.7-5.3,6.2-8.6,6.4-7,.5-9.3-5.9-11-19.4-.7-5.7-.7-11.1.2-15.1s3.1-7,6.4-7,.7,0,1,0c3,.4,6,2.7,8.6,6.2Z"/>
          <path class="cls-85" d="M48.7,58.7c2.7,3.7,4.8,8.8,5.6,14.2.8,5.2-.3,10.1-2.3,13.7-2.1,3.6-5.1,6-8.3,6.3-6.9.7-9-6.2-10.7-18.9-.7-5.7-.7-10.9.2-14.7s3-6.8,6.2-6.8.7,0,1,0c2.9.5,5.8,2.8,8.3,6.2Z"/>
          <path class="cls-3" d="M48.5,59.2c2.6,3.6,4.6,8.5,5.4,13.8.8,5.1-.3,9.7-2.2,13.2-2,3.5-4.9,5.9-7.9,6.2-6.8.8-8.8-6.5-10.3-18.5-.7-5.6-.7-10.6.1-14.4s3-6.7,6-6.6.6,0,1,.1c2.7.5,5.6,2.8,8,6.2Z"/>
          <path class="cls-14" d="M48.3,59.7c2.5,3.5,4.4,8.2,5.2,13.3.7,4.9-.2,9.4-2.1,12.8-1.9,3.4-4.7,5.7-7.6,6.1-6.8.9-8.6-6.7-10-18-.7-5.6-.7-10.4,0-14s2.9-6.6,5.8-6.4.6,0,.9.1c2.6.6,5.4,2.8,7.7,6.1Z"/>
          <path class="cls-84" d="M48.1,60.2c2.3,3.4,4.2,8,4.9,12.9.7,4.7-.2,9.1-1.9,12.3-1.8,3.3-4.4,5.6-7.2,5.9-6.7,1.1-8.3-7-9.7-17.6-.7-5.5-.7-10.2,0-13.6s2.9-6.4,5.6-6.3.6,0,.9.1c2.5.6,5.1,2.8,7.4,6.1Z"/>
          <path class="cls-5" d="M47.9,60.7c2.2,3.3,4,7.7,4.7,12.4.7,4.5-.2,8.7-1.8,11.9-1.7,3.2-4.2,5.4-6.8,5.8-6.6,1.2-8.1-7.3-9.4-17.1-.7-5.5-.7-10,0-13.2s2.8-6.3,5.4-6.1.6,0,.9.2c2.4.6,4.9,2.9,7.1,6.1Z"/>
          <path class="cls-23" d="M47.8,61.2c2.1,3.2,3.8,7.5,4.5,12,.7,4.4-.1,8.4-1.7,11.4-1.6,3.1-4,5.3-6.5,5.7-6.5,1.3-7.9-7.6-9-16.6-.7-5.4-.7-9.8-.1-12.9s2.7-6.2,5.2-5.9.6,0,.9.2c2.3.7,4.7,2.9,6.7,6Z"/>
          <path class="cls-6" d="M47.6,61.7c2,3.1,3.6,7.2,4.2,11.5.6,4.2-.1,8-1.6,11-1.5,3-3.8,5.1-6.1,5.6-6.5,1.4-7.7-7.9-8.7-16.2-.7-5.4-.7-9.5-.2-12.5.8-4.3,2.7-6,5-5.7s.6.1.8.2c2.1.7,4.5,2.9,6.4,6Z"/>
          <path class="cls-9" d="M44.2,89.3c-6.4,1.6-7.4-8.1-8.4-15.7-1.9-14.6,1.4-18.9,5.5-17.4s4.3,2.9,6.1,6,3.4,6.9,4,11.1c1.2,8.1-2.8,15-7.2,16.1Z"/>
          <path class="cls-8" d="M44,87.6c-6.1,1.5-7.1-7.7-8-14.8-3.5-27.7,12.6-16.1,15-.4,1.1,7.7-2.8,14.2-7,15.2Z"/>
          <path class="cls-27" d="M43.7,85.9c-5.9,1.4-6.8-7.2-7.6-14-3.3-26.1,12.1-15.3,14.3-.4,1.1,7.2-2.7,13.4-6.7,14.4Z"/>
          <path class="cls-24" d="M43.5,84.3c-5.6,1.4-6.4-6.8-7.2-13.1-3-24.6,11.6-14.4,13.7-.4,1,6.8-2.6,12.6-6.5,13.5Z"/>
          <path class="cls-80" d="M43.2,82.6c-5.3,1.3-6.1-6.3-6.8-12.2-2.8-23,11.1-13.5,13-.5.9,6.4-2.5,11.8-6.2,12.7Z"/>
          <path class="cls-13" d="M43,80.9c-5.1,1.3-5.8-5.8-6.4-11.4-2.5-21.4,10.7-12.7,12.4-.5.8,5.9-2.5,11-6,11.9Z"/>
          <path class="cls-1" d="M42.7,79.2c-4.8,1.2-5.4-5.4-6-10.5-2.3-19.8,10.2-11.8,11.7-.5.8,5.5-2.4,10.2-5.7,11Z"/>
          <path class="cls-2" d="M42.5,77.5c-4.6,1.1-5.1-4.9-5.6-9.6-2-18.2,9.7-10.9,11.1-.6.7,5-2.3,9.4-5.5,10.2Z"/>
          <path class="cls-26" d="M42.3,75.8c-4.3,1.1-4.8-4.5-5.2-8.8-1.8-16.7,9.2-10.1,10.4-.6.6,4.6-2.3,8.6-5.2,9.4Z"/>
          <path class="cls-86" d="M42,74.2c-4,1-4.4-4-4.8-7.9-1.5-15.1,8.7-9.2,9.8-.6.5,4.2-2.2,7.8-5,8.5Z"/>
          <path class="cls-10" d="M41.8,72.5c-3.8.9-4.1-3.5-4.4-7-1.3-13.5,8.2-8.3,9.1-.7.5,3.7-2.1,7-4.7,7.7Z"/>
        </g>
        <g>
          <path class="cls-4" d="M69,80.1c17.5,1.8,28.3,20,24.4,28.6-3.8,8.5-19,8.5-24.5-4.7-5.4-13.2-8.2-24.7,0-23.9Z"/>
          <path class="cls-7" d="M69.2,80.5c17.2,1.7,27.7,19.7,24,28-3.8,8.3-18.7,8.3-24-4.6-5.3-12.9-8-24.2,0-23.4Z"/>
          <path class="cls-25" d="M69.4,80.8c16.8,1.7,27.2,19.3,23.5,27.4-3.7,8.2-18.3,8.2-23.5-4.5-5.2-12.7-7.9-23.7,0-22.9Z"/>
          <path class="cls-85" d="M69.6,81.1c16.5,1.6,26.6,18.9,23,26.9-3.6,8-17.9,8-23-4.4-5.1-12.4-7.7-23.3,0-22.5Z"/>
          <path class="cls-3" d="M69.8,81.5c16.2,1.6,26,18.5,22.5,26.3-3.5,7.8-17.5,7.8-22.6-4.3-5-12.1-7.5-22.8,0-22Z"/>
          <path class="cls-14" d="M70,81.8c15.8,1.6,25.5,18.1,22,25.7-3.5,7.7-17.2,7.7-22.1-4.2-4.9-11.9-7.4-22.3,0-21.5Z"/>
          <path class="cls-84" d="M70.2,82.2c15.5,1.5,24.9,17.7,21.5,25.2-3.4,7.5-16.8,7.5-21.6-4.1-4.8-11.6-7.2-21.8,0-21.1Z"/>
          <path class="cls-5" d="M70.4,82.5c15.1,1.5,24.4,17.3,21.1,24.6-3.3,7.3-16.4,7.3-21.1-4-4.7-11.4-7.1-21.3,0-20.6Z"/>
          <path class="cls-23" d="M70.6,82.8c14.8,1.5,23.8,16.9,20.6,24-3.2,7.2-16,7.2-20.6-3.9-4.6-11.1-6.9-20.8,0-20.1Z"/>
          <path class="cls-6" d="M70.8,83.2c14.4,1.4,23.3,16.5,20.1,23.5-3.2,7-15.7,7-20.1-3.8-4.5-10.8-6.7-20.3,0-19.6Z"/>
          <path class="cls-9" d="M71,83.5c14.1,1.4,22.7,16.1,19.6,22.9-3.1,6.8-15.3,6.8-19.6-3.7-4.4-10.6-6.6-19.8,0-19.2Z"/>
          <path class="cls-8" d="M70.9,83.5c13.9,1.4,22.3,15.6,18.8,21.6s-14.8,7.3-19-3c-4.2-10.2-6.3-19.2.1-18.5Z"/>
          <path class="cls-27" d="M70.8,83.5c13.7,1.4,21.9,15.1,18.1,20.2s-14.4,7.7-18.3-2.3c-3.9-9.9-6-18.5.2-17.9Z"/>
          <path class="cls-24" d="M70.7,83.5c13.5,1.4,21.4,14.6,17.3,18.9s-13.9,8.1-17.6-1.6c-3.7-9.6-5.7-17.9.3-17.3Z"/>
          <path class="cls-80" d="M70.6,83.5c13.3,1.4,20.8,14.1,16.6,17.5s-13.4,8.5-17-.9c-3.5-9.3-5.4-17.3.4-16.6Z"/>
          <path class="cls-13" d="M70.5,83.5c13.1,1.4,20.2,13.5,15.8,16.1s-13,8.9-16.3-.1c-3.3-8.9-5.1-16.6.5-16Z"/>
          <path class="cls-1" d="M70.4,83.5c12.9,1.5,19.6,12.9,15,14.8-6.7,2.7-12.5,9.4-15.6.6-3.1-8.6-4.8-16,.6-15.4Z"/>
          <path class="cls-2" d="M70.3,83.5c12.7,1.5,18.9,12.3,14.3,13.4-7.5,1.9-12.1,9.8-15,1.3-2.8-8.3-4.5-15.3.7-14.7Z"/>
          <path class="cls-26" d="M70.2,83.5c12.5,1.5,18.3,11.5,13.5,12.1-8.2.9-11.6,10.2-14.3,2-2.6-8-4.2-14.7.8-14.1Z"/>
          <path class="cls-86" d="M70.1,83.5c12.2,1.5,17.7,10.8,12.7,10.7-8.9-.1-11.2,10.6-13.6,2.7-2.4-7.6-3.9-14,.9-13.5Z"/>
          <path class="cls-10" d="M70,83.5c12,1.5,17.1,10,12,9.4-9.5-1.2-10.7,11.1-13,3.5-2.2-7.3-3.6-13.4,1-12.8Z"/>
        </g>
      </g>
    </g>
  </g>
</svg>